  0
SECTION
  2
HEADER
  9
$ACADVER
  1
AC1009
  9
$INSBASE
 10
0.0
 20
0.0
 30
0.0
  9
$EXTMIN
 10
0.0
 20
0.0
 30
0.0
  9
$EXTMAX
 10
0.0
 20
0.0
 30
0.0
  0
ENDSEC
  0
SECTION
  2
TABLES
  0
TABLE
  2
VPORT
 70
0
  0
ENDTAB
  0
TABLE
  2
LTYPE
 70
1
  0
LTYPE
  2
CONTINUOUS
 70
0
  3
Solid line
 72
65
 73
0
 40
0.0
  0
ENDTAB
  0
TABLE
  2
LAYER
 70
1
  0
LAYER
  2
0
 70
64
 62
7
  6
continuous
  0
ENDTAB
  0
TABLE
  2
STYLE
 70
1
  0
STYLE
  2
STANDARD
 70
0
 40
0
 41
1.0
 50
0.0
 71
0
 42
1
 3
ARIAL.TTF
 4

  0
ENDTAB
  0
TABLE
  2
VIEW
 70
0
  0
ENDTAB
  0
ENDSEC
  0
SECTION
  2
BLOCKS
  0
BLOCK
  8
0
  2
PART__FEATURE
 70
0
 10
0.0
 20
0.0
 30
0.0
  3
PART__FEATURE
  0
CIRCLE
  8
0
 62
0
 10
0.0
 20
185.45
 30
0.0
 40
1.6
  0
CIRCLE
  8
0
 62
0
 10
0.0
 20
185.45
 30
0.0
 40
1.6
  0
LINE
  8
0
 62
0
 10
-163.1
 20
-155.78821624
 30
0.0
 11
-163.1
 21
-193.5
 31
0.0
  0
LINE
  8
0
 62
0
 10
-163.1
 20
-193.5
 30
0.0
 11
-140.063615094
 21
-193.5
 31
0.0
  0
ARC
  8
0
 62
0
 10
-140.063615094
 20
-185.5
 30
0.0
 40
8.0
 50
-90.0
 51
-40.0
  0
LINE
  8
0
 62
0
 10
-133.935259549
 20
-190.642300877
 30
0.0
 11
-129.878555403
 21
-185.807709137
 31
0.0
  0
ARC
  8
0
 62
0
 10
-122.984155415
 20
-191.592797625
 30
0.0
 40
9.0
 50
90.0
 51
140.0
  0
LINE
  8
0
 62
0
 10
-122.984155415
 20
-182.592797625
 30
0.0
 11
122.984155415
 21
-182.592797625
 31
0.0
  0
ARC
  8
0
 62
0
 10
122.984155415
 20
-191.592797625
 30
0.0
 40
9.0
 50
40.0
 51
90.0
  0
LINE
  8
0
 62
0
 10
129.878555403
 20
-185.807709137
 30
0.0
 11
133.935259549
 21
-190.642300877
 31
0.0
  0
ARC
  8
0
 62
0
 10
140.063615094
 20
-185.5
 30
0.0
 40
8.0
 50
-140.0
 51
-90.0
  0
LINE
  8
0
 62
0
 10
140.063615094
 20
-193.5
 30
0.0
 11
163.1
 21
-193.5
 31
0.0
  0
LINE
  8
0
 62
0
 10
163.1
 20
-155.78821624
 30
0.0
 11
163.1
 21
-193.5
 31
0.0
  0
ARC
  8
0
 62
0
 10
164.6
 20
-155.78821624
 30
0.0
 40
1.5
 50
92.0
 51
-180.0
  0
LINE
  8
0
 62
0
 10
164.547650755
 20
-154.28913
 30
0.0
 11
167.1
 21
-154.2
 31
0.0
  0
LINE
  8
0
 62
0
 10
167.1
 20
-154.2
 30
0.0
 11
167.1
 21
-144.2
 31
0.0
  0
LINE
  8
0
 62
0
 10
167.1
 20
-144.2
 30
0.0
 11
164.547650755
 21
-144.11087
 31
0.0
  0
ARC
  8
0
 62
0
 10
164.6
 20
-142.61178376
 30
0.0
 40
1.5
 50
180.0
 51
-92.0
  0
LINE
  8
0
 62
0
 10
163.1
 20
-125.8
 30
0.0
 11
163.1
 21
-142.61178376
 31
0.0
  0
LINE
  8
0
 62
0
 10
163.1
 20
-125.8
 30
0.0
 11
156.779019946
 21
-125.8
 31
0.0
  0
ARC
  8
0
 62
0
 10
155.3
 20
-125.55
 30
0.0
 40
1.5
 50
-90.0
 51
-9.59406822686
  0
LINE
  8
0
 62
0
 10
155.3
 20
-127.05
 30
0.0
 11
153.9
 21
-127.05
 31
0.0
  0
ARC
  8
0
 62
0
 10
153.9
 20
-125.55
 30
0.0
 40
1.5
 50
-170.405931773
 51
-90.0
  0
LINE
  8
0
 62
0
 10
152.420980054
 20
-125.8
 30
0.0
 11
152.420980054
 21
-125.637509594
 31
0.0
  0
ARC
  8
0
 62
0
 10
153.1
 20
-124.3
 30
0.0
 40
1.5
 50
116.915758095
 51
-116.915758095
  0
LINE
  8
0
 62
0
 10
152.420980054
 20
-122.962490406
 30
0.0
 11
152.420980054
 21
-122.8
 31
0.0
  0
ARC
  8
0
 62
0
 10
153.9
 20
-123.05
 30
0.0
 40
1.5
 50
90.0
 51
170.405931773
  0
LINE
  8
0
 62
0
 10
153.9
 20
-121.55
 30
0.0
 11
155.3
 21
-121.55
 31
0.0
  0
ARC
  8
0
 62
0
 10
155.3
 20
-123.05
 30
0.0
 40
1.5
 50
9.59406822686
 51
90.0
  0
LINE
  8
0
 62
0
 10
156.779019946
 20
-122.8
 30
0.0
 11
163.1
 21
-122.8
 31
0.0
  0
LINE
  8
0
 62
0
 10
163.1
 20
-105.78821624
 30
0.0
 11
163.1
 21
-122.8
 31
0.0
  0
ARC
  8
0
 62
0
 10
164.6
 20
-105.78821624
 30
0.0
 40
1.5
 50
92.0
 51
-180.0
  0
LINE
  8
0
 62
0
 10
164.547650755
 20
-104.28913
 30
0.0
 11
167.1
 21
-104.2
 31
0.0
  0
LINE
  8
0
 62
0
 10
167.1
 20
-104.2
 30
0.0
 11
167.1
 21
-94.2
 31
0.0
  0
LINE
  8
0
 62
0
 10
167.1
 20
-94.2
 30
0.0
 11
164.547650755
 21
-94.1108700004
 31
0.0
  0
ARC
  8
0
 62
0
 10
164.6
 20
-92.6117837598
 30
0.0
 40
1.5
 50
180.0
 51
-92.0
  0
LINE
  8
0
 62
0
 10
163.1
 20
-24.0882162402
 30
0.0
 11
163.1
 21
-92.6117837598
 31
0.0
  0
ARC
  8
0
 62
0
 10
164.6
 20
-24.0882162402
 30
0.0
 40
1.5
 50
92.0
 51
180.0
  0
LINE
  8
0
 62
0
 10
164.547650755
 20
-22.5891299996
 30
0.0
 11
167.1
 21
-22.5
 31
0.0
  0
LINE
  8
0
 62
0
 10
167.1
 20
-22.5
 30
0.0
 11
167.1
 21
-12.5
 31
0.0
  0
LINE
  8
0
 62
0
 10
167.1
 20
-12.5
 30
0.0
 11
164.547650755
 21
-12.4108700004
 31
0.0
  0
ARC
  8
0
 62
0
 10
164.6
 20
-10.9117837598
 30
0.0
 40
1.5
 50
-180.0
 51
-92.0
  0
LINE
  8
0
 62
0
 10
163.1
 20
6.1
 30
0.0
 11
163.1
 21
-10.9117837598
 31
0.0
  0
LINE
  8
0
 62
0
 10
163.1
 20
6.1
 30
0.0
 11
156.779019946
 21
6.1
 31
0.0
  0
ARC
  8
0
 62
0
 10
155.3
 20
6.35
 30
0.0
 40
1.5
 50
-90.0
 51
-9.59406822686
  0
LINE
  8
0
 62
0
 10
155.3
 20
4.85
 30
0.0
 11
153.9
 21
4.85
 31
0.0
  0
ARC
  8
0
 62
0
 10
153.9
 20
6.35
 30
0.0
 40
1.5
 50
-170.405931773
 51
-90.0
  0
LINE
  8
0
 62
0
 10
152.420980054
 20
6.1
 30
0.0
 11
152.420980054
 21
6.2624904063
 31
0.0
  0
ARC
  8
0
 62
0
 10
153.1
 20
7.6
 30
0.0
 40
1.5
 50
116.915758095
 51
-116.915758095
  0
LINE
  8
0
 62
0
 10
152.420980054
 20
8.9375095937
 30
0.0
 11
152.420980054
 21
9.1
 31
0.0
  0
ARC
  8
0
 62
0
 10
153.9
 20
8.85
 30
0.0
 40
1.5
 50
90.0
 51
170.405931773
  0
LINE
  8
0
 62
0
 10
153.9
 20
10.35
 30
0.0
 11
155.3
 21
10.35
 31
0.0
  0
ARC
  8
0
 62
0
 10
155.3
 20
8.85
 30
0.0
 40
1.5
 50
9.59406822686
 51
90.0
  0
LINE
  8
0
 62
0
 10
156.779019946
 20
9.1
 30
0.0
 11
163.1
 21
9.1
 31
0.0
  0
LINE
  8
0
 62
0
 10
163.1
 20
25.9117837598
 30
0.0
 11
163.1
 21
9.1
 31
0.0
  0
ARC
  8
0
 62
0
 10
164.6
 20
25.9117837598
 30
0.0
 40
1.5
 50
92.0
 51
180.0
  0
LINE
  8
0
 62
0
 10
164.547650755
 20
27.4108700004
 30
0.0
 11
167.1
 21
27.5
 31
0.0
  0
LINE
  8
0
 62
0
 10
167.1
 20
27.5
 30
0.0
 11
167.1
 21
37.5
 31
0.0
  0
LINE
  8
0
 62
0
 10
167.1
 20
37.5
 30
0.0
 11
164.547650755
 21
37.5891299996
 31
0.0
  0
ARC
  8
0
 62
0
 10
164.6
 20
39.0882162402
 30
0.0
 40
1.5
 50
-180.0
 51
-92.0
  0
LINE
  8
0
 62
0
 10
163.1
 20
110.11178376
 30
0.0
 11
163.1
 21
39.0882162402
 31
0.0
  0
ARC
  8
0
 62
0
 10
164.6
 20
110.11178376
 30
0.0
 40
1.5
 50
92.0
 51
-180.0
  0
LINE
  8
0
 62
0
 10
164.547650755
 20
111.61087
 30
0.0
 11
167.1
 21
111.7
 31
0.0
  0
LINE
  8
0
 62
0
 10
167.1
 20
111.7
 30
0.0
 11
167.1
 21
121.7
 31
0.0
  0
LINE
  8
0
 62
0
 10
167.1
 20
121.7
 30
0.0
 11
164.547650755
 21
121.78913
 31
0.0
  0
ARC
  8
0
 62
0
 10
164.6
 20
123.28821624
 30
0.0
 40
1.5
 50
180.0
 51
-92.0
  0
LINE
  8
0
 62
0
 10
163.1
 20
140.2
 30
0.0
 11
163.1
 21
123.28821624
 31
0.0
  0
LINE
  8
0
 62
0
 10
163.1
 20
140.2
 30
0.0
 11
156.779019946
 21
140.2
 31
0.0
  0
ARC
  8
0
 62
0
 10
155.3
 20
140.45
 30
0.0
 40
1.5
 50
-90.0
 51
-9.59406822686
  0
LINE
  8
0
 62
0
 10
155.3
 20
138.95
 30
0.0
 11
153.9
 21
138.95
 31
0.0
  0
ARC
  8
0
 62
0
 10
153.9
 20
140.45
 30
0.0
 40
1.5
 50
-170.405931773
 51
-90.0
  0
LINE
  8
0
 62
0
 10
152.420980054
 20
140.2
 30
0.0
 11
152.420980054
 21
140.362490406
 31
0.0
  0
ARC
  8
0
 62
0
 10
153.1
 20
141.7
 30
0.0
 40
1.5
 50
116.915758095
 51
-116.915758095
  0
LINE
  8
0
 62
0
 10
152.420980054
 20
143.037509594
 30
0.0
 11
152.420980054
 21
143.2
 31
0.0
  0
ARC
  8
0
 62
0
 10
153.9
 20
142.95
 30
0.0
 40
1.5
 50
90.0
 51
170.405931773
  0
LINE
  8
0
 62
0
 10
153.9
 20
144.45
 30
0.0
 11
155.3
 21
144.45
 31
0.0
  0
ARC
  8
0
 62
0
 10
155.3
 20
142.95
 30
0.0
 40
1.5
 50
9.59406822686
 51
90.0
  0
LINE
  8
0
 62
0
 10
156.779019946
 20
143.2
 30
0.0
 11
163.1
 21
143.2
 31
0.0
  0
LINE
  8
0
 62
0
 10
163.1
 20
160.11178376
 30
0.0
 11
163.1
 21
143.2
 31
0.0
  0
ARC
  8
0
 62
0
 10
164.6
 20
160.11178376
 30
0.0
 40
1.5
 50
92.0
 51
-180.0
  0
LINE
  8
0
 62
0
 10
164.547650755
 20
161.61087
 30
0.0
 11
167.1
 21
161.7
 31
0.0
  0
LINE
  8
0
 62
0
 10
167.1
 20
161.7
 30
0.0
 11
167.1
 21
171.7
 31
0.0
  0
LINE
  8
0
 62
0
 10
167.1
 20
171.7
 30
0.0
 11
164.547650755
 21
171.78913
 31
0.0
  0
ARC
  8
0
 62
0
 10
164.6
 20
173.28821624
 30
0.0
 40
1.5
 50
180.0
 51
-92.0
  0
LINE
  8
0
 62
0
 10
163.1
 20
183.5
 30
0.0
 11
163.1
 21
173.28821624
 31
0.0
  0
LINE
  8
0
 62
0
 10
163.1
 20
183.5
 30
0.0
 11
139.843147517
 21
183.5
 31
0.0
  0
ARC
  8
0
 62
0
 10
139.843147517
 20
192.5
 30
0.0
 40
9.0
 50
-137.534534413
 51
-90.0
  0
LINE
  8
0
 62
0
 10
133.203987849
 20
186.423688709
 30
0.0
 11
129.106098253
 21
190.901165592
 31
0.0
  0
ARC
  8
0
 62
0
 10
123.204622992
 20
185.5
 30
0.0
 40
8.0
 50
42.4654655869
 51
90.0
  0
LINE
  8
0
 62
0
 10
123.204622992
 20
193.5
 30
0.0
 11
-123.204622992
 21
193.5
 31
0.0
  0
ARC
  8
0
 62
0
 10
-123.204622992
 20
185.5
 30
0.0
 40
8.0
 50
90.0
 51
137.534534413
  0
LINE
  8
0
 62
0
 10
-129.106098253
 20
190.901165592
 30
0.0
 11
-133.203987849
 21
186.423688709
 31
0.0
  0
ARC
  8
0
 62
0
 10
-139.843147517
 20
192.5
 30
0.0
 40
9.0
 50
-90.0
 51
-42.4654655869
  0
LINE
  8
0
 62
0
 10
-139.843147517
 20
183.5
 30
0.0
 11
-162.1
 21
183.5
 31
0.0
  0
ARC
  8
0
 62
0
 10
-162.1
 20
183.0
 30
0.0
 40
0.5
 50
90.0
 51
-180.0
  0
LINE
  8
0
 62
0
 10
-162.6
 20
183.0
 30
0.0
 11
-162.6
 21
173.28821624
 31
0.0
  0
ARC
  8
0
 62
0
 10
-164.6
 20
173.28821624
 30
0.0
 40
2.0
 50
-88.0
 51
0.0
  0
LINE
  8
0
 62
0
 10
-164.530201007
 20
171.289434586
 30
0.0
 11
-167.1
 21
171.199695228
 31
0.0
  0
LINE
  8
0
 62
0
 10
-167.1
 20
161.7
 30
0.0
 11
-167.1
 21
171.199695228
 31
0.0
  0
LINE
  8
0
 62
0
 10
-164.547650755
 20
161.61087
 30
0.0
 11
-167.1
 21
161.7
 31
0.0
  0
ARC
  8
0
 62
0
 10
-164.6
 20
160.11178376
 30
0.0
 40
1.5
 50
-0.0
 51
88.0
  0
LINE
  8
0
 62
0
 10
-163.1
 20
160.11178376
 30
0.0
 11
-163.1
 21
143.2
 31
0.0
  0
LINE
  8
0
 62
0
 10
-156.779019946
 20
143.2
 30
0.0
 11
-163.1
 21
143.2
 31
0.0
  0
ARC
  8
0
 62
0
 10
-155.3
 20
142.95
 30
0.0
 40
1.5
 50
90.0
 51
170.405931773
  0
LINE
  8
0
 62
0
 10
-153.9
 20
144.45
 30
0.0
 11
-155.3
 21
144.45
 31
0.0
  0
ARC
  8
0
 62
0
 10
-153.9
 20
142.95
 30
0.0
 40
1.5
 50
9.59406822686
 51
90.0
  0
LINE
  8
0
 62
0
 10
-152.420980054
 20
143.037509594
 30
0.0
 11
-152.420980054
 21
143.2
 31
0.0
  0
ARC
  8
0
 62
0
 10
-153.1
 20
141.7
 30
0.0
 40
1.5
 50
-63.0842419046
 51
63.0842419046
  0
LINE
  8
0
 62
0
 10
-152.420980054
 20
140.2
 30
0.0
 11
-152.420980054
 21
140.362490406
 31
0.0
  0
ARC
  8
0
 62
0
 10
-153.9
 20
140.45
 30
0.0
 40
1.5
 50
-90.0
 51
-9.59406822686
  0
LINE
  8
0
 62
0
 10
-155.3
 20
138.95
 30
0.0
 11
-153.9
 21
138.95
 31
0.0
  0
ARC
  8
0
 62
0
 10
-155.3
 20
140.45
 30
0.0
 40
1.5
 50
-170.405931773
 51
-90.0
  0
LINE
  8
0
 62
0
 10
-163.1
 20
140.2
 30
0.0
 11
-156.779019946
 21
140.2
 31
0.0
  0
LINE
  8
0
 62
0
 10
-163.1
 20
140.2
 30
0.0
 11
-163.1
 21
123.28821624
 31
0.0
  0
ARC
  8
0
 62
0
 10
-164.6
 20
123.28821624
 30
0.0
 40
1.5
 50
-88.0
 51
0.0
  0
LINE
  8
0
 62
0
 10
-167.1
 20
121.7
 30
0.0
 11
-164.547650755
 21
121.78913
 31
0.0
  0
LINE
  8
0
 62
0
 10
-167.1
 20
111.7
 30
0.0
 11
-167.1
 21
121.7
 31
0.0
  0
LINE
  8
0
 62
0
 10
-164.547650755
 20
111.61087
 30
0.0
 11
-167.1
 21
111.7
 31
0.0
  0
ARC
  8
0
 62
0
 10
-164.6
 20
110.11178376
 30
0.0
 40
1.5
 50
-0.0
 51
88.0
  0
LINE
  8
0
 62
0
 10
-163.1
 20
110.11178376
 30
0.0
 11
-163.1
 21
39.0882162402
 31
0.0
  0
ARC
  8
0
 62
0
 10
-164.6
 20
39.0882162402
 30
0.0
 40
1.5
 50
-88.0
 51
-0.0
  0
LINE
  8
0
 62
0
 10
-167.1
 20
37.5
 30
0.0
 11
-164.547650755
 21
37.5891299996
 31
0.0
  0
LINE
  8
0
 62
0
 10
-167.1
 20
27.5
 30
0.0
 11
-167.1
 21
37.5
 31
0.0
  0
LINE
  8
0
 62
0
 10
-164.547650755
 20
27.4108700004
 30
0.0
 11
-167.1
 21
27.5
 31
0.0
  0
ARC
  8
0
 62
0
 10
-164.6
 20
25.9117837598
 30
0.0
 40
1.5
 50
0.0
 51
88.0
  0
LINE
  8
0
 62
0
 10
-163.1
 20
25.9117837598
 30
0.0
 11
-163.1
 21
9.1
 31
0.0
  0
LINE
  8
0
 62
0
 10
-156.779019946
 20
9.1
 30
0.0
 11
-163.1
 21
9.1
 31
0.0
  0
ARC
  8
0
 62
0
 10
-155.3
 20
8.85
 30
0.0
 40
1.5
 50
90.0
 51
170.405931773
  0
LINE
  8
0
 62
0
 10
-153.9
 20
10.35
 30
0.0
 11
-155.3
 21
10.35
 31
0.0
  0
ARC
  8
0
 62
0
 10
-153.9
 20
8.85
 30
0.0
 40
1.5
 50
9.59406822686
 51
90.0
  0
LINE
  8
0
 62
0
 10
-152.420980054
 20
8.9375095937
 30
0.0
 11
-152.420980054
 21
9.1
 31
0.0
  0
ARC
  8
0
 62
0
 10
-153.1
 20
7.6
 30
0.0
 40
1.5
 50
-63.0842419046
 51
63.0842419046
  0
LINE
  8
0
 62
0
 10
-152.420980054
 20
6.1
 30
0.0
 11
-152.420980054
 21
6.2624904063
 31
0.0
  0
ARC
  8
0
 62
0
 10
-153.9
 20
6.35
 30
0.0
 40
1.5
 50
-90.0
 51
-9.59406822686
  0
LINE
  8
0
 62
0
 10
-155.3
 20
4.85
 30
0.0
 11
-153.9
 21
4.85
 31
0.0
  0
ARC
  8
0
 62
0
 10
-155.3
 20
6.35
 30
0.0
 40
1.5
 50
-170.405931773
 51
-90.0
  0
LINE
  8
0
 62
0
 10
-163.1
 20
6.1
 30
0.0
 11
-156.779019946
 21
6.1
 31
0.0
  0
LINE
  8
0
 62
0
 10
-163.1
 20
6.1
 30
0.0
 11
-163.1
 21
-10.9117837598
 31
0.0
  0
ARC
  8
0
 62
0
 10
-164.6
 20
-10.9117837598
 30
0.0
 40
1.5
 50
-88.0
 51
-0.0
  0
LINE
  8
0
 62
0
 10
-167.1
 20
-12.5
 30
0.0
 11
-164.547650755
 21
-12.4108700004
 31
0.0
  0
LINE
  8
0
 62
0
 10
-167.1
 20
-22.5
 30
0.0
 11
-167.1
 21
-12.5
 31
0.0
  0
LINE
  8
0
 62
0
 10
-164.547650755
 20
-22.5891299996
 30
0.0
 11
-167.1
 21
-22.5
 31
0.0
  0
ARC
  8
0
 62
0
 10
-164.6
 20
-24.0882162402
 30
0.0
 40
1.5
 50
0.0
 51
88.0
  0
LINE
  8
0
 62
0
 10
-163.1
 20
-24.0882162402
 30
0.0
 11
-163.1
 21
-92.6117837598
 31
0.0
  0
ARC
  8
0
 62
0
 10
-164.6
 20
-92.6117837598
 30
0.0
 40
1.5
 50
-88.0
 51
0.0
  0
LINE
  8
0
 62
0
 10
-167.1
 20
-94.2
 30
0.0
 11
-164.547650755
 21
-94.1108700004
 31
0.0
  0
LINE
  8
0
 62
0
 10
-167.1
 20
-104.2
 30
0.0
 11
-167.1
 21
-94.2
 31
0.0
  0
LINE
  8
0
 62
0
 10
-164.547650755
 20
-104.28913
 30
0.0
 11
-167.1
 21
-104.2
 31
0.0
  0
ARC
  8
0
 62
0
 10
-164.6
 20
-105.78821624
 30
0.0
 40
1.5
 50
-0.0
 51
88.0
  0
LINE
  8
0
 62
0
 10
-163.1
 20
-105.78821624
 30
0.0
 11
-163.1
 21
-122.8
 31
0.0
  0
LINE
  8
0
 62
0
 10
-156.779019946
 20
-122.8
 30
0.0
 11
-163.1
 21
-122.8
 31
0.0
  0
ARC
  8
0
 62
0
 10
-155.3
 20
-123.05
 30
0.0
 40
1.5
 50
90.0
 51
170.405931773
  0
LINE
  8
0
 62
0
 10
-153.9
 20
-121.55
 30
0.0
 11
-155.3
 21
-121.55
 31
0.0
  0
ARC
  8
0
 62
0
 10
-153.9
 20
-123.05
 30
0.0
 40
1.5
 50
9.59406822686
 51
90.0
  0
LINE
  8
0
 62
0
 10
-152.420980054
 20
-122.962490406
 30
0.0
 11
-152.420980054
 21
-122.8
 31
0.0
  0
ARC
  8
0
 62
0
 10
-153.1
 20
-124.3
 30
0.0
 40
1.5
 50
-63.0842419046
 51
63.0842419046
  0
LINE
  8
0
 62
0
 10
-152.420980054
 20
-125.8
 30
0.0
 11
-152.420980054
 21
-125.637509594
 31
0.0
  0
ARC
  8
0
 62
0
 10
-153.9
 20
-125.55
 30
0.0
 40
1.5
 50
-90.0
 51
-9.59406822686
  0
LINE
  8
0
 62
0
 10
-155.3
 20
-127.05
 30
0.0
 11
-153.9
 21
-127.05
 31
0.0
  0
ARC
  8
0
 62
0
 10
-155.3
 20
-125.55
 30
0.0
 40
1.5
 50
-170.405931773
 51
-90.0
  0
LINE
  8
0
 62
0
 10
-163.1
 20
-125.8
 30
0.0
 11
-156.779019946
 21
-125.8
 31
0.0
  0
LINE
  8
0
 62
0
 10
-163.1
 20
-125.8
 30
0.0
 11
-163.1
 21
-142.61178376
 31
0.0
  0
ARC
  8
0
 62
0
 10
-164.6
 20
-142.61178376
 30
0.0
 40
1.5
 50
-88.0
 51
0.0
  0
LINE
  8
0
 62
0
 10
-167.1
 20
-144.2
 30
0.0
 11
-164.547650755
 21
-144.11087
 31
0.0
  0
LINE
  8
0
 62
0
 10
-167.1
 20
-154.2
 30
0.0
 11
-167.1
 21
-144.2
 31
0.0
  0
LINE
  8
0
 62
0
 10
-164.547650755
 20
-154.28913
 30
0.0
 11
-167.1
 21
-154.2
 31
0.0
  0
ARC
  8
0
 62
0
 10
-164.6
 20
-155.78821624
 30
0.0
 40
1.5
 50
-0.0
 51
88.0
  0
ARC
  8
0
 62
0
 10
-126.0
 20
-108.282258728
 30
0.0
 40
4.5
 50
180.0
 51
-99.7239156528
  0
LINE
  8
0
 62
0
 10
-130.5
 20
-108.282258728
 30
0.0
 11
-130.5
 21
152.0
 31
0.0
  0
ARC
  8
0
 62
0
 10
-123.5
 20
152.0
 30
0.0
 40
7.0
 50
90.0
 51
-180.0
  0
LINE
  8
0
 62
0
 10
-123.5
 20
159.0
 30
0.0
 11
123.5
 21
159.0
 31
0.0
  0
ARC
  8
0
 62
0
 10
123.5
 20
152.0
 30
0.0
 40
7.0
 50
-0.0
 51
90.0
  0
LINE
  8
0
 62
0
 10
130.5
 20
152.0
 30
0.0
 11
130.5
 21
-108.282258728
 31
0.0
  0
ARC
  8
0
 62
0
 10
126.0
 20
-108.282258728
 30
0.0
 40
4.5
 50
-80.2760843472
 51
0.0
  0
ARC
  8
0
 62
0
 10
7.1054273576e-14
 20
627.0
 30
0.0
 40
750.5
 50
-99.7239156528
 51
-80.2760843472
  0
ARC
  8
0
 62
0
 10
-93.5
 20
-172.0
 30
0.0
 40
2.0
 50
-0.0
 51
-180.0
  0
ARC
  8
0
 62
0
 10
-93.5
 20
-172.0
 30
0.0
 40
2.0
 50
-180.0
 51
-0.0
  0
LINE
  8
0
 62
0
 10
30.45
 20
-154.0
 30
0.0
 11
30.45
 21
-140.5
 31
0.0
  0
LINE
  8
0
 62
0
 10
91.8
 20
-154.0
 30
0.0
 11
30.45
 21
-154.0
 31
0.0
  0
LINE
  8
0
 62
0
 10
91.8
 20
-167.0
 30
0.0
 11
91.8
 21
-154.0
 31
0.0
  0
LINE
  8
0
 62
0
 10
30.45
 20
-167.0
 30
0.0
 11
91.8
 21
-167.0
 31
0.0
  0
LINE
  8
0
 62
0
 10
30.45
 20
-171.9
 30
0.0
 11
30.45
 21
-167.0
 31
0.0
  0
ARC
  8
0
 62
0
 10
30.45
 20
-173.4
 30
0.0
 40
1.5
 50
-90.0
 51
90.0
  0
LINE
  8
0
 62
0
 10
27.5
 20
-174.9
 30
0.0
 11
30.45
 21
-174.9
 31
0.0
  0
LINE
  8
0
 62
0
 10
27.5
 20
-176.9
 30
0.0
 11
27.5
 21
-174.9
 31
0.0
  0
ARC
  8
0
 62
0
 10
26.0
 20
-176.9
 30
0.0
 40
1.5
 50
-90.0
 51
0.0
  0
LINE
  8
0
 62
0
 10
-26.0
 20
-178.4
 30
0.0
 11
26.0
 21
-178.4
 31
0.0
  0
ARC
  8
0
 62
0
 10
-26.0
 20
-176.9
 30
0.0
 40
1.5
 50
180.0
 51
-90.0
  0
LINE
  8
0
 62
0
 10
-27.5
 20
-174.9
 30
0.0
 11
-27.5
 21
-176.9
 31
0.0
  0
LINE
  8
0
 62
0
 10
-30.45
 20
-174.9
 30
0.0
 11
-27.5
 21
-174.9
 31
0.0
  0
ARC
  8
0
 62
0
 10
-30.45
 20
-173.4
 30
0.0
 40
1.5
 50
90.0
 51
-90.0
  0
LINE
  8
0
 62
0
 10
-30.45
 20
-140.5
 30
0.0
 11
-30.45
 21
-171.9
 31
0.0
  0
ARC
  8
0
 62
0
 10
-30.45
 20
-139.0
 30
0.0
 40
1.5
 50
90.0
 51
-90.0
  0
LINE
  8
0
 62
0
 10
30.45
 20
-137.5
 30
0.0
 11
-30.45
 21
-137.5
 31
0.0
  0
ARC
  8
0
 62
0
 10
30.45
 20
-139.0
 30
0.0
 40
1.5
 50
-90.0
 51
90.0
  0
CIRCLE
  8
0
 62
0
 10
-60.0
 20
-153.505
 30
0.0
 40
17.5
  0
ARC
  8
0
 62
0
 10
23.0
 20
187.0
 30
0.0
 40
3.1
 50
-90.0
 51
90.0
  0
ARC
  8
0
 62
0
 10
21.5
 20
183.9
 30
0.0
 40
1.5
 50
-90.0
 51
0.0
  0
LINE
  8
0
 62
0
 10
21.5
 20
182.4
 30
0.0
 11
14.5
 21
182.4
 31
0.0
  0
ARC
  8
0
 62
0
 10
14.5
 20
183.9
 30
0.0
 40
1.5
 50
-180.0
 51
-90.0
  0
ARC
  8
0
 62
0
 10
13.0
 20
187.0
 30
0.0
 40
3.1
 50
90.0
 51
-90.0
  0
LINE
  8
0
 62
0
 10
13.0
 20
190.1
 30
0.0
 11
23.0
 21
190.1
 31
0.0
  0
ARC
  8
0
 62
0
 10
96.75
 20
187.0
 30
0.0
 40
3.1
 50
-90.0
 51
90.0
  0
LINE
  8
0
 62
0
 10
96.75
 20
183.9
 30
0.0
 11
86.75
 21
183.9
 31
0.0
  0
ARC
  8
0
 62
0
 10
86.75
 20
187.0
 30
0.0
 40
3.1
 50
90.0
 51
-90.0
  0
LINE
  8
0
 62
0
 10
86.75
 20
190.1
 30
0.0
 11
96.75
 21
190.1
 31
0.0
  0
ARC
  8
0
 62
0
 10
146.8
 20
-147.0
 30
0.0
 40
3.1
 50
-90.0
 51
90.0
  0
LINE
  8
0
 62
0
 10
146.8
 20
-150.1
 30
0.0
 11
136.8
 21
-150.1
 31
0.0
  0
ARC
  8
0
 62
0
 10
136.8
 20
-147.0
 30
0.0
 40
3.1
 50
90.0
 51
-90.0
  0
LINE
  8
0
 62
0
 10
136.8
 20
-143.9
 30
0.0
 11
146.8
 21
-143.9
 31
0.0
  0
CIRCLE
  8
0
 62
0
 10
141.75
 20
153.0
 30
0.0
 40
8.0
  0
CIRCLE
  8
0
 62
0
 10
116.8
 20
185.45
 30
0.0
 40
1.6
  0
CIRCLE
  8
0
 62
0
 10
116.8
 20
-148.55
 30
0.0
 40
1.6
  0
ARC
  8
0
 62
0
 10
-23.0
 20
187.0
 30
0.0
 40
3.1
 50
90.0
 51
-90.0
  0
LINE
  8
0
 62
0
 10
-13.0
 20
190.1
 30
0.0
 11
-23.0
 21
190.1
 31
0.0
  0
ARC
  8
0
 62
0
 10
-13.0
 20
187.0
 30
0.0
 40
3.1
 50
-90.0
 51
90.0
  0
ARC
  8
0
 62
0
 10
-14.5
 20
183.9
 30
0.0
 40
1.5
 50
-90.0
 51
-0.0
  0
LINE
  8
0
 62
0
 10
-21.5
 20
182.4
 30
0.0
 11
-14.5
 21
182.4
 31
0.0
  0
ARC
  8
0
 62
0
 10
-21.5
 20
183.9
 30
0.0
 40
1.5
 50
180.0
 51
-90.0
  0
ARC
  8
0
 62
0
 10
-96.75
 20
187.0
 30
0.0
 40
3.1
 50
90.0
 51
-90.0
  0
LINE
  8
0
 62
0
 10
-86.75
 20
190.1
 30
0.0
 11
-96.75
 21
190.1
 31
0.0
  0
ARC
  8
0
 62
0
 10
-86.75
 20
187.0
 30
0.0
 40
3.1
 50
-90.0
 51
90.0
  0
LINE
  8
0
 62
0
 10
-96.75
 20
183.9
 30
0.0
 11
-86.75
 21
183.9
 31
0.0
  0
ARC
  8
0
 62
0
 10
-146.8
 20
-147.0
 30
0.0
 40
3.1
 50
90.0
 51
-90.0
  0
LINE
  8
0
 62
0
 10
-136.8
 20
-143.9
 30
0.0
 11
-146.8
 21
-143.9
 31
0.0
  0
ARC
  8
0
 62
0
 10
-136.8
 20
-147.0
 30
0.0
 40
3.1
 50
-90.0
 51
90.0
  0
LINE
  8
0
 62
0
 10
-146.8
 20
-150.1
 30
0.0
 11
-136.8
 21
-150.1
 31
0.0
  0
CIRCLE
  8
0
 62
0
 10
-141.75
 20
153.0
 30
0.0
 40
8.0
  0
CIRCLE
  8
0
 62
0
 10
-116.8
 20
185.45
 30
0.0
 40
1.6
  0
CIRCLE
  8
0
 62
0
 10
-116.8
 20
-148.55
 30
0.0
 40
1.6
  0
ARC
  8
0
 62
0
 10
86.8
 20
-147.0
 30
0.0
 40
3.1
 50
90.0
 51
-90.0
  0
LINE
  8
0
 62
0
 10
96.8
 20
-143.9
 30
0.0
 11
86.8
 21
-143.9
 31
0.0
  0
ARC
  8
0
 62
0
 10
96.8
 20
-147.0
 30
0.0
 40
3.1
 50
-90.0
 51
90.0
  0
ARC
  8
0
 62
0
 10
95.3
 20
-150.1
 30
0.0
 40
1.5
 50
-90.0
 51
-0.0
  0
LINE
  8
0
 62
0
 10
88.3
 20
-151.6
 30
0.0
 11
95.3
 21
-151.6
 31
0.0
  0
ARC
  8
0
 62
0
 10
88.3
 20
-150.1
 30
0.0
 40
1.5
 50
-180.0
 51
-90.0
  0
ARC
  8
0
 62
0
 10
85.1
 20
-172.0
 30
0.0
 40
2.0
 50
-0.0
 51
-180.0
  0
ARC
  8
0
 62
0
 10
85.1
 20
-172.0
 30
0.0
 40
2.0
 50
-180.0
 51
-0.0
  0
ARC
  8
0
 62
0
 10
44.75
 20
-158.6
 30
0.0
 40
2.25
 50
90.0
 51
-90.0
  0
LINE
  8
0
 62
0
 10
44.75
 20
-156.35
 30
0.0
 11
67.75
 21
-156.35
 31
0.0
  0
ARC
  8
0
 62
0
 10
67.75
 20
-158.6
 30
0.0
 40
2.25
 50
-90.0
 51
90.0
  0
LINE
  8
0
 62
0
 10
67.75
 20
-160.85
 30
0.0
 11
44.75
 21
-160.85
 31
0.0
  0
ARC
  8
0
 62
0
 10
86.8
 20
-145.4
 30
0.0
 40
1.5
 50
90.0
 51
-90.0
  0
LINE
  8
0
 62
0
 10
86.8
 20
-146.9
 30
0.0
 11
86.8
 21
-150.1
 31
0.0
  0
LINE
  8
0
 62
0
 10
96.8
 20
-150.1
 30
0.0
 11
96.8
 21
-146.9
 31
0.0
  0
ARC
  8
0
 62
0
 10
96.8
 20
-145.4
 30
0.0
 40
1.5
 50
-90.0
 51
90.0
  0
LINE
  8
0
 62
0
 10
-23.0
 20
187.1
 30
0.0
 11
-23.0
 21
183.9
 31
0.0
  0
LINE
  8
0
 62
0
 10
-13.0
 20
183.9
 30
0.0
 11
-13.0
 21
187.1
 31
0.0
  0
ARC
  8
0
 62
0
 10
-23.0
 20
188.6
 30
0.0
 40
1.5
 50
90.0
 51
-90.0
  0
ARC
  8
0
 62
0
 10
-13.0
 20
188.6
 30
0.0
 40
1.5
 50
-90.0
 51
90.0
  0
LINE
  8
0
 62
0
 10
-163.1
 20
143.2
 30
0.0
 11
-163.1
 21
140.2
 31
0.0
  0
LINE
  8
0
 62
0
 10
-163.1
 20
-122.8
 30
0.0
 11
-163.1
 21
-125.8
 31
0.0
  0
LINE
  8
0
 62
0
 10
-163.1
 20
9.1
 30
0.0
 11
-163.1
 21
6.1
 31
0.0
  0
LINE
  8
0
 62
0
 10
-163.1
 20
-194.0
 30
0.0
 11
-163.1
 21
-193.5
 31
0.0
  0
LINE
  8
0
 62
0
 10
-163.1
 20
173.28821624
 30
0.0
 11
-163.1
 21
183.0
 31
0.0
  0
LINE
  8
0
 62
0
 10
-140.063615094
 20
-194.0
 30
0.0
 11
-163.1
 21
-194.0
 31
0.0
  0
LINE
  8
0
 62
0
 10
-129.495533182
 20
-186.129102942
 30
0.0
 11
-133.552237328
 21
-190.963694682
 31
0.0
  0
LINE
  8
0
 62
0
 10
122.984155415
 20
-183.092797625
 30
0.0
 11
-122.984155415
 21
-183.092797625
 31
0.0
  0
LINE
  8
0
 62
0
 10
-123.204622992
 20
194.0
 30
0.0
 11
123.204622992
 21
194.0
 31
0.0
  0
LINE
  8
0
 62
0
 10
-133.572830053
 20
186.761261559
 30
0.0
 11
-129.474940457
 21
191.238738441
 31
0.0
  0
LINE
  8
0
 62
0
 10
-162.1
 20
184.0
 30
0.0
 11
-139.843147517
 21
184.0
 31
0.0
  0
ARC
  8
0
 62
0
 10
-122.984155415
 20
-191.592797625
 30
0.0
 40
8.5
 50
90.0
 51
140.0
  0
ARC
  8
0
 62
0
 10
-140.063615094
 20
-185.5
 30
0.0
 40
8.5
 50
-90.0
 51
-40.0
  0
ARC
  8
0
 62
0
 10
-123.204622992
 20
185.5
 30
0.0
 40
8.5
 50
90.0
 51
137.534534413
  0
ARC
  8
0
 62
0
 10
-139.843147517
 20
192.5
 30
0.0
 40
8.5
 50
-90.0
 51
-42.4654655869
  0
LINE
  8
0
 62
0
 10
-167.1
 20
171.7
 30
0.0
 11
-164.547650755
 21
171.78913
 31
0.0
  0
LINE
  8
0
 62
0
 10
-167.1
 20
171.199695228
 30
0.0
 11
-167.1
 21
171.7
 31
0.0
  0
ARC
  8
0
 62
0
 10
-155.3
 20
6.35
 30
0.0
 40
1.5
 50
-170.405931773
 51
-90.0
  0
ARC
  8
0
 62
0
 10
-153.9
 20
8.85
 30
0.0
 40
1.5
 50
9.59406822686
 51
90.0
  0
ARC
  8
0
 62
0
 10
-3.5527136788e-13
 20
627.0
 30
0.0
 40
750.0
 50
-99.7239156528
 51
-80.2760843472
  0
LINE
  8
0
 62
0
 10
-130.0
 20
152.0
 30
0.0
 11
-130.0
 21
-108.282258728
 31
0.0
  0
LINE
  8
0
 62
0
 10
123.5
 20
158.5
 30
0.0
 11
-123.5
 21
158.5
 31
0.0
  0
ARC
  8
0
 62
0
 10
-126.0
 20
-108.282258728
 30
0.0
 40
4.0
 50
180.0
 51
-99.7239156528
  0
ARC
  8
0
 62
0
 10
-123.5
 20
152.0
 30
0.0
 40
6.5
 50
90.0
 51
-180.0
  0
ARC
  8
0
 62
0
 10
-164.6
 20
173.28821624
 30
0.0
 40
1.5
 50
-88.0
 51
0.0
  0
LINE
  8
0
 62
0
 10
23.0
 20
187.1
 30
0.0
 11
23.0
 21
183.9
 31
0.0
  0
LINE
  8
0
 62
0
 10
13.0
 20
183.9
 30
0.0
 11
13.0
 21
187.1
 31
0.0
  0
ARC
  8
0
 62
0
 10
23.0
 20
188.6
 30
0.0
 40
1.5
 50
-90.0
 51
90.0
  0
ARC
  8
0
 62
0
 10
13.0
 20
188.6
 30
0.0
 40
1.5
 50
90.0
 51
-90.0
  0
LINE
  8
0
 62
0
 10
163.1
 20
143.2
 30
0.0
 11
163.1
 21
140.2
 31
0.0
  0
LINE
  8
0
 62
0
 10
163.1
 20
-122.8
 30
0.0
 11
163.1
 21
-125.8
 31
0.0
  0
LINE
  8
0
 62
0
 10
163.1
 20
9.1
 30
0.0
 11
163.1
 21
6.1
 31
0.0
  0
LINE
  8
0
 62
0
 10
163.1
 20
-193.5
 30
0.0
 11
163.1
 21
-194.0
 31
0.0
  0
LINE
  8
0
 62
0
 10
163.1
 20
184.0
 30
0.0
 11
163.1
 21
183.5
 31
0.0
  0
LINE
  8
0
 62
0
 10
163.1
 20
-194.0
 30
0.0
 11
140.063615094
 21
-194.0
 31
0.0
  0
LINE
  8
0
 62
0
 10
133.552237328
 20
-190.963694682
 30
0.0
 11
129.495533182
 21
-186.129102942
 31
0.0
  0
LINE
  8
0
 62
0
 10
129.474940457
 20
191.238738441
 30
0.0
 11
133.572830053
 21
186.761261559
 31
0.0
  0
LINE
  8
0
 62
0
 10
139.843147517
 20
184.0
 30
0.0
 11
163.1
 21
184.0
 31
0.0
  0
ARC
  8
0
 62
0
 10
122.984155415
 20
-191.592797625
 30
0.0
 40
8.5
 50
40.0
 51
90.0
  0
ARC
  8
0
 62
0
 10
140.063615094
 20
-185.5
 30
0.0
 40
8.5
 50
-140.0
 51
-90.0
  0
ARC
  8
0
 62
0
 10
123.204622992
 20
185.5
 30
0.0
 40
8.5
 50
42.4654655869
 51
90.0
  0
ARC
  8
0
 62
0
 10
139.843147517
 20
192.5
 30
0.0
 40
8.5
 50
-137.534534413
 51
-90.0
  0
ARC
  8
0
 62
0
 10
155.3
 20
6.35
 30
0.0
 40
1.5
 50
-90.0
 51
-9.59406822686
  0
ARC
  8
0
 62
0
 10
153.9
 20
8.85
 30
0.0
 40
1.5
 50
90.0
 51
170.405931773
  0
LINE
  8
0
 62
0
 10
130.0
 20
-108.282258728
 30
0.0
 11
130.0
 21
152.0
 31
0.0
  0
ARC
  8
0
 62
0
 10
126.0
 20
-108.282258728
 30
0.0
 40
4.0
 50
-80.2760843472
 51
0.0
  0
ARC
  8
0
 62
0
 10
123.5
 20
152.0
 30
0.0
 40
6.5
 50
-0.0
 51
90.0
  0
ARC
  8
0
 62
0
 10
-162.1
 20
183.0
 30
0.0
 40
1.0
 50
90.0
 51
-180.0
  0
ARC
  8
0
 62
0
 10
26.0
 20
-141.355
 30
0.0
 40
1.5
 50
-0.0
 51
90.0
  0
LINE
  8
0
 62
0
 10
27.5
 20
-165.655
 30
0.0
 11
27.5
 21
-141.355
 31
0.0
  0
ARC
  8
0
 62
0
 10
26.0
 20
-165.655
 30
0.0
 40
1.5
 50
-90.0
 51
0.0
  0
LINE
  8
0
 62
0
 10
-26.0
 20
-167.155
 30
0.0
 11
26.0
 21
-167.155
 31
0.0
  0
ARC
  8
0
 62
0
 10
-26.0
 20
-165.655
 30
0.0
 40
1.5
 50
180.0
 51
-90.0
  0
LINE
  8
0
 62
0
 10
-27.5
 20
-141.355
 30
0.0
 11
-27.5
 21
-165.655
 31
0.0
  0
ARC
  8
0
 62
0
 10
-26.0
 20
-141.355
 30
0.0
 40
1.5
 50
90.0
 51
-180.0
  0
LINE
  8
0
 62
0
 10
26.0
 20
-139.855
 30
0.0
 11
-26.0
 21
-139.855
 31
0.0
  0
ARC
  8
0
 62
0
 10
26.0
 20
-176.9
 30
0.0
 40
1.5
 50
-90.0
 51
0.0
  0
ARC
  8
0
 62
0
 10
30.45
 20
-173.4
 30
0.0
 40
1.5
 50
-90.0
 51
90.0
  0
ARC
  8
0
 62
0
 10
-30.45
 20
-139.0
 30
0.0
 40
1.5
 50
90.0
 51
-90.0
  0
LINE
  8
0
 62
0
 10
30.45
 20
-154.0
 30
0.0
 11
30.45
 21
-167.0
 31
0.0
  0
LINE
  8
0
 62
0
 10
140.063615094
 20
-194.0
 30
0.0
 11
140.063615094
 21
-193.5
 31
0.0
  0
LINE
  8
0
 62
0
 10
133.552237328
 20
-190.963694682
 30
0.0
 11
133.935259549
 21
-190.642300877
 31
0.0
  0
LINE
  8
0
 62
0
 10
129.495533182
 20
-186.129102942
 30
0.0
 11
129.878555403
 21
-185.807709137
 31
0.0
  0
LINE
  8
0
 62
0
 10
122.984155415
 20
-183.092797625
 30
0.0
 11
122.984155415
 21
-182.592797625
 31
0.0
  0
LINE
  8
0
 62
0
 10
-122.984155415
 20
-183.092797625
 30
0.0
 11
-122.984155415
 21
-182.592797625
 31
0.0
  0
LINE
  8
0
 62
0
 10
-129.495533182
 20
-186.129102942
 30
0.0
 11
-129.878555403
 21
-185.807709137
 31
0.0
  0
LINE
  8
0
 62
0
 10
-133.552237328
 20
-190.963694682
 30
0.0
 11
-133.935259549
 21
-190.642300877
 31
0.0
  0
LINE
  8
0
 62
0
 10
-140.063615094
 20
-194.0
 30
0.0
 11
-140.063615094
 21
-193.5
 31
0.0
  0
LINE
  8
0
 62
0
 10
130.0
 20
152.0
 30
0.0
 11
130.5
 21
152.0
 31
0.0
  0
LINE
  8
0
 62
0
 10
130.5
 20
-108.282258728
 30
0.0
 11
130.0
 21
-108.282258728
 31
0.0
  0
LINE
  8
0
 62
0
 10
126.760053619
 20
-112.717607474
 30
0.0
 11
126.675603217
 21
-112.224790946
 31
0.0
  0
LINE
  8
0
 62
0
 10
123.5
 20
158.5
 30
0.0
 11
123.5
 21
159.0
 31
0.0
  0
LINE
  8
0
 62
0
 10
-126.760053619
 20
-112.717607474
 30
0.0
 11
-126.675603217
 21
-112.224790946
 31
0.0
  0
LINE
  8
0
 62
0
 10
-123.5
 20
158.5
 30
0.0
 11
-123.5
 21
159.0
 31
0.0
  0
LINE
  8
0
 62
0
 10
-130.5
 20
-108.282258728
 30
0.0
 11
-130.0
 21
-108.282258728
 31
0.0
  0
LINE
  8
0
 62
0
 10
-130.0
 20
152.0
 30
0.0
 11
-130.5
 21
152.0
 31
0.0
  0
LINE
  8
0
 62
0
 10
139.843147517
 20
183.5
 30
0.0
 11
139.843147517
 21
184.0
 31
0.0
  0
LINE
  8
0
 62
0
 10
133.203987849
 20
186.423688709
 30
0.0
 11
133.572830053
 21
186.761261559
 31
0.0
  0
LINE
  8
0
 62
0
 10
129.106098253
 20
190.901165592
 30
0.0
 11
129.474940457
 21
191.238738441
 31
0.0
  0
LINE
  8
0
 62
0
 10
123.204622992
 20
193.5
 30
0.0
 11
123.204622992
 21
194.0
 31
0.0
  0
LINE
  8
0
 62
0
 10
-123.204622992
 20
193.5
 30
0.0
 11
-123.204622992
 21
194.0
 31
0.0
  0
LINE
  8
0
 62
0
 10
-129.106098253
 20
190.901165592
 30
0.0
 11
-129.474940457
 21
191.238738441
 31
0.0
  0
LINE
  8
0
 62
0
 10
-133.203987849
 20
186.423688709
 30
0.0
 11
-133.572830053
 21
186.761261559
 31
0.0
  0
LINE
  8
0
 62
0
 10
-139.843147517
 20
183.5
 30
0.0
 11
-139.843147517
 21
184.0
 31
0.0
  0
LINE
  8
0
 62
0
 10
-162.1
 20
183.5
 30
0.0
 11
-162.1
 21
184.0
 31
0.0
  0
LINE
  8
0
 62
0
 10
-162.6
 20
183.0
 30
0.0
 11
-163.1
 21
183.0
 31
0.0
  0
LINE
  8
0
 62
0
 10
-162.6
 20
173.28821624
 30
0.0
 11
-163.1
 21
173.28821624
 31
0.0
  0
LINE
  8
0
 62
0
 10
-164.530201007
 20
171.289434586
 30
0.0
 11
-164.547650755
 21
171.78913
 31
0.0
  0
ENDBLK
  0
ENDSEC
  0
SECTION
  2
ENTITIES
  0
INSERT
  2
PART__FEATURE
  8
0
 62
0
 10
0.0
 20
0.0
 30
0.0
  0
ENDSEC
  0
EOF
