  0
SECTION
  2
HEADER
  9
$ACADVER
  1
AC1009
  9
$INSBASE
 10
0.0
 20
0.0
 30
0.0
  9
$EXTMIN
 10
0.0
 20
0.0
 30
0.0
  9
$EXTMAX
 10
0.0
 20
0.0
 30
0.0
  0
ENDSEC
  0
SECTION
  2
TABLES
  0
TABLE
  2
VPORT
 70
0
  0
ENDTAB
  0
TABLE
  2
LTYPE
 70
1
  0
LTYPE
  2
CONTINUOUS
 70
0
  3
Solid line
 72
65
 73
0
 40
0.0
  0
ENDTAB
  0
TABLE
  2
LAYER
 70
1
  0
LAYER
  2
0
 70
64
 62
7
  6
continuous
  0
ENDTAB
  0
TABLE
  2
STYLE
 70
1
  0
STYLE
  2
STANDARD
 70
0
 40
0
 41
1.0
 50
0.0
 71
0
 42
1
 3
ARIAL.TTF
 4

  0
ENDTAB
  0
TABLE
  2
VIEW
 70
0
  0
ENDTAB
  0
ENDSEC
  0
SECTION
  2
BLOCKS
  0
BLOCK
  8
0
  2
PART__FEATURE
 70
0
 10
0.0
 20
0.0
 30
0.0
  3
PART__FEATURE
  0
ARC
  8
0
 62
0
 10
148.1
 20
112.3
 30
0.0
 40
1.6
 50
-180.0
 51
-0.0
  0
ARC
  8
0
 62
0
 10
-106.6
 20
153.8
 30
0.0
 40
1.6
 50
-180.0
 51
-0.0
  0
ARC
  8
0
 62
0
 10
141.1
 20
133.8
 30
0.0
 40
1.6
 50
-180.0
 51
-0.0
  0
ARC
  8
0
 62
0
 10
71.1
 20
133.8
 30
0.0
 40
1.6
 50
-180.0
 51
-0.0
  0
ARC
  8
0
 62
0
 10
141.1
 20
83.8
 30
0.0
 40
1.6
 50
-180.0
 51
-0.0
  0
ARC
  8
0
 62
0
 10
71.1
 20
83.8
 30
0.0
 40
1.6
 50
-180.0
 51
-0.0
  0
ARC
  8
0
 62
0
 10
-1.11022302463e-15
 20
148.0
 30
0.0
 40
7.0
 50
-180.0
 51
-0.0
  0
ARC
  8
0
 62
0
 10
85.2
 20
-147.75
 30
0.0
 40
1.6
 50
-180.0
 51
-0.0
  0
ARC
  8
0
 62
0
 10
-74.8
 20
-163.75
 30
0.0
 40
1.6
 50
-180.0
 51
-0.0
  0
ARC
  8
0
 62
0
 10
-74.8
 20
-128.75
 30
0.0
 40
1.6
 50
-180.0
 51
-0.0
  0
ARC
  8
0
 62
0
 10
85.2
 20
-128.75
 30
0.0
 40
1.6
 50
-180.0
 51
-0.0
  0
ARC
  8
0
 62
0
 10
33.1
 20
158.8
 30
0.0
 40
1.6
 50
-180.0
 51
-0.0
  0
ARC
  8
0
 62
0
 10
33.1
 20
-21.2
 30
0.0
 40
1.6
 50
-180.0
 51
-0.0
  0
ARC
  8
0
 62
0
 10
153.1
 20
68.8
 30
0.0
 40
1.6
 50
-180.0
 51
-0.0
  0
ARC
  8
0
 62
0
 10
109.328932188
 20
154.4
 30
0.0
 40
1.6
 50
-180.0
 51
-0.0
  0
ARC
  8
0
 62
0
 10
-148.6
 20
115.6
 30
0.0
 40
1.6
 50
-180.0
 51
-0.0
  0
ARC
  8
0
 62
0
 10
-45.6
 20
-25.7
 30
0.0
 40
1.6
 50
180.0
 51
0.0
  0
ARC
  8
0
 62
0
 10
-145.6
 20
-25.7
 30
0.0
 40
1.6
 50
180.0
 51
0.0
  0
ARC
  8
0
 62
0
 10
84.2
 20
-111.8
 30
0.0
 40
1.6
 50
-180.0
 51
-0.0
  0
ARC
  8
0
 62
0
 10
-75.8
 20
-111.8
 30
0.0
 40
1.6
 50
-180.0
 51
-0.0
  0
ARC
  8
0
 62
0
 10
1.21014309684e-14
 20
73.0
 30
0.0
 40
2.0
 50
-180.0
 51
-0.0
  0
ARC
  8
0
 62
0
 10
95.2627944163
 20
-92.0
 30
0.0
 40
2.0
 50
-180.0
 51
-0.0
  0
ARC
  8
0
 62
0
 10
-95.2627944163
 20
-92.0
 30
0.0
 40
2.0
 50
-180.0
 51
-0.0
  0
ARC
  8
0
 62
0
 10
15.5
 20
132.5
 30
0.0
 40
1.6
 50
-0.0
 51
-180.0
  0
ARC
  8
0
 62
0
 10
15.5
 20
163.5
 30
0.0
 40
1.6
 50
-0.0
 51
-180.0
  0
ARC
  8
0
 62
0
 10
80.0
 20
148.0
 30
0.0
 40
6.0
 50
-0.0
 51
-180.0
  0
ARC
  8
0
 62
0
 10
62.0
 20
148.0
 30
0.0
 40
1.55
 50
-0.0
 51
-180.0
  0
ARC
  8
0
 62
0
 10
98.0
 20
148.0
 30
0.0
 40
1.6
 50
-0.0
 51
-180.0
  0
ARC
  8
0
 62
0
 10
-15.5
 20
132.5
 30
0.0
 40
1.6
 50
180.0
 51
0.0
  0
ARC
  8
0
 62
0
 10
-15.5
 20
163.5
 30
0.0
 40
1.6
 50
180.0
 51
0.0
  0
ARC
  8
0
 62
0
 10
-80.0
 20
148.0
 30
0.0
 40
6.0
 50
-180.0
 51
-0.0
  0
ARC
  8
0
 62
0
 10
-62.0
 20
148.0
 30
0.0
 40
1.55
 50
-180.0
 51
-0.0
  0
ARC
  8
0
 62
0
 10
-98.0
 20
148.0
 30
0.0
 40
1.6
 50
-180.0
 51
-0.0
  0
LINE
  8
0
 62
0
 10
-86.5882162402
 20
168.8
 30
0.0
 11
-101.02
 21
168.8
 31
0.0
  0
LINE
  8
0
 62
0
 10
28.5882162402
 20
168.8
 30
0.0
 11
40.0
 21
168.8
 31
0.0
  0
LINE
  8
0
 62
0
 10
75.25
 20
-168.8
 30
0.0
 11
75.25
 21
-156.7
 31
0.0
  0
LINE
  8
0
 62
0
 10
44.75
 20
-156.7
 30
0.0
 11
44.75
 21
-168.8
 31
0.0
  0
ARC
  8
0
 62
0
 10
73.25
 20
-156.7
 30
0.0
 40
2.0
 50
-0.0
 51
90.0
  0
ARC
  8
0
 62
0
 10
46.75
 20
-156.7
 30
0.0
 40
2.0
 50
90.0
 51
-180.0
  0
LINE
  8
0
 62
0
 10
-86.7108700004
 20
-170.247650755
 30
0.0
 11
-86.8
 21
-172.8
 31
0.0
  0
LINE
  8
0
 62
0
 10
-86.8
 20
-172.8
 30
0.0
 11
-96.8
 21
-172.8
 31
0.0
  0
LINE
  8
0
 62
0
 10
-96.8
 20
-172.8
 30
0.0
 11
-96.8891299996
 21
-170.247650755
 31
0.0
  0
ARC
  8
0
 62
0
 10
148.1
 20
112.3
 30
0.0
 40
1.6
 50
0.0
 51
180.0
  0
ARC
  8
0
 62
0
 10
-106.6
 20
153.8
 30
0.0
 40
1.6
 50
0.0
 51
180.0
  0
ARC
  8
0
 62
0
 10
141.1
 20
133.8
 30
0.0
 40
1.6
 50
-0.0
 51
-180.0
  0
ARC
  8
0
 62
0
 10
71.1
 20
133.8
 30
0.0
 40
1.6
 50
-0.0
 51
-180.0
  0
ARC
  8
0
 62
0
 10
141.1
 20
83.8
 30
0.0
 40
1.6
 50
-0.0
 51
-180.0
  0
ARC
  8
0
 62
0
 10
71.1
 20
83.8
 30
0.0
 40
1.6
 50
-0.0
 51
-180.0
  0
ARC
  8
0
 62
0
 10
85.2
 20
-147.75
 30
0.0
 40
1.6
 50
-0.0
 51
-180.0
  0
ARC
  8
0
 62
0
 10
-74.8
 20
-163.75
 30
0.0
 40
1.6
 50
0.0
 51
180.0
  0
ARC
  8
0
 62
0
 10
-74.8
 20
-128.75
 30
0.0
 40
1.6
 50
-0.0
 51
-180.0
  0
ARC
  8
0
 62
0
 10
85.2
 20
-128.75
 30
0.0
 40
1.6
 50
-0.0
 51
-180.0
  0
ARC
  8
0
 62
0
 10
33.1
 20
158.8
 30
0.0
 40
1.6
 50
0.0
 51
180.0
  0
ARC
  8
0
 62
0
 10
33.1
 20
-21.2
 30
0.0
 40
1.6
 50
-0.0
 51
-180.0
  0
ARC
  8
0
 62
0
 10
153.1
 20
68.8
 30
0.0
 40
1.6
 50
0.0
 51
180.0
  0
ARC
  8
0
 62
0
 10
109.328932188
 20
154.4
 30
0.0
 40
1.6
 50
-0.0
 51
-180.0
  0
ARC
  8
0
 62
0
 10
-148.6
 20
115.6
 30
0.0
 40
1.6
 50
0.0
 51
180.0
  0
ARC
  8
0
 62
0
 10
-45.6
 20
-25.7
 30
0.0
 40
1.6
 50
-0.0
 51
-180.0
  0
ARC
  8
0
 62
0
 10
-145.6
 20
-25.7
 30
0.0
 40
1.6
 50
-0.0
 51
-180.0
  0
ARC
  8
0
 62
0
 10
84.2
 20
-111.8
 30
0.0
 40
1.6
 50
0.0
 51
180.0
  0
ARC
  8
0
 62
0
 10
-75.8
 20
-111.8
 30
0.0
 40
1.6
 50
0.0
 51
180.0
  0
ARC
  8
0
 62
0
 10
1.26010313295e-14
 20
73.0
 30
0.0
 40
2.0
 50
-0.0
 51
-180.0
  0
ARC
  8
0
 62
0
 10
95.2627944163
 20
-92.0
 30
0.0
 40
2.0
 50
-0.0
 51
-180.0
  0
ARC
  8
0
 62
0
 10
-95.2627944163
 20
-92.0
 30
0.0
 40
2.0
 50
-0.0
 51
-180.0
  0
LINE
  8
0
 62
0
 10
-101.02
 20
167.3
 30
0.0
 11
-101.02
 21
168.8
 31
0.0
  0
ARC
  8
0
 62
0
 10
-102.62
 20
167.3
 30
0.0
 40
1.6
 50
-180.0
 51
-0.0
  0
LINE
  8
0
 62
0
 10
-104.22
 20
168.8
 30
0.0
 11
-104.22
 21
167.3
 31
0.0
  0
LINE
  8
0
 62
0
 10
-104.22
 20
168.8
 30
0.0
 11
-135.21178376
 21
168.8
 31
0.0
  0
ARC
  8
0
 62
0
 10
-135.21178376
 20
170.3
 30
0.0
 40
1.5
 50
-178.0
 51
-90.0
  0
LINE
  8
0
 62
0
 10
-136.8
 20
172.8
 30
0.0
 11
-136.71087
 21
170.247650755
 31
0.0
  0
LINE
  8
0
 62
0
 10
-146.8
 20
172.8
 30
0.0
 11
-136.8
 21
172.8
 31
0.0
  0
LINE
  8
0
 62
0
 10
-147.193282661
 20
161.537858121
 30
0.0
 11
-146.8
 21
172.8
 31
0.0
  0
ARC
  8
0
 62
0
 10
-156.687495517
 20
161.86940334
 30
0.0
 40
9.5
 50
-88.0
 51
-2.0
  0
LINE
  8
0
 62
0
 10
-167.1
 20
152.0
 30
0.0
 11
-156.355950299
 21
152.375190483
 31
0.0
  0
LINE
  8
0
 62
0
 10
-167.1
 20
142.0
 30
0.0
 11
-167.1
 21
152.0
 31
0.0
  0
LINE
  8
0
 62
0
 10
-164.547650755
 20
141.91087
 30
0.0
 11
-167.1
 21
142.0
 31
0.0
  0
ARC
  8
0
 62
0
 10
-164.6
 20
140.41178376
 30
0.0
 40
1.5
 50
-0.0
 51
88.0
  0
LINE
  8
0
 62
0
 10
-163.1
 20
140.41178376
 30
0.0
 11
-163.1
 21
107.58821624
 31
0.0
  0
ARC
  8
0
 62
0
 10
-164.6
 20
107.58821624
 30
0.0
 40
1.5
 50
-88.0
 51
0.0
  0
LINE
  8
0
 62
0
 10
-167.1
 20
106.0
 30
0.0
 11
-164.547650755
 21
106.08913
 31
0.0
  0
LINE
  8
0
 62
0
 10
-167.1
 20
96.0
 30
0.0
 11
-167.1
 21
106.0
 31
0.0
  0
LINE
  8
0
 62
0
 10
-164.547650755
 20
95.9108700004
 30
0.0
 11
-167.1
 21
96.0
 31
0.0
  0
ARC
  8
0
 62
0
 10
-164.6
 20
94.4117837598
 30
0.0
 40
1.5
 50
-0.0
 51
88.0
  0
LINE
  8
0
 62
0
 10
-163.1
 20
94.4117837598
 30
0.0
 11
-163.1
 21
31.5882162402
 31
0.0
  0
ARC
  8
0
 62
0
 10
-164.6
 20
31.5882162402
 30
0.0
 40
1.5
 50
-88.0
 51
0.0
  0
LINE
  8
0
 62
0
 10
-167.1
 20
30.0
 30
0.0
 11
-164.547650755
 21
30.0891299996
 31
0.0
  0
LINE
  8
0
 62
0
 10
-167.1
 20
20.0
 30
0.0
 11
-167.1
 21
30.0
 31
0.0
  0
LINE
  8
0
 62
0
 10
-164.547650755
 20
19.9108700004
 30
0.0
 11
-167.1
 21
20.0
 31
0.0
  0
ARC
  8
0
 62
0
 10
-164.6
 20
18.4117837598
 30
0.0
 40
1.5
 50
-0.0
 51
88.0
  0
LINE
  8
0
 62
0
 10
-163.1
 20
18.4117837598
 30
0.0
 11
-163.1
 21
-18.4117837598
 31
0.0
  0
ARC
  8
0
 62
0
 10
-164.6
 20
-18.4117837598
 30
0.0
 40
1.5
 50
-88.0
 51
-0.0
  0
LINE
  8
0
 62
0
 10
-167.1
 20
-20.0
 30
0.0
 11
-164.547650755
 21
-19.9108700004
 31
0.0
  0
LINE
  8
0
 62
0
 10
-167.1
 20
-30.0
 30
0.0
 11
-167.1
 21
-20.0
 31
0.0
  0
LINE
  8
0
 62
0
 10
-164.547650755
 20
-30.0891299996
 30
0.0
 11
-167.1
 21
-30.0
 31
0.0
  0
ARC
  8
0
 62
0
 10
-164.6
 20
-31.5882162402
 30
0.0
 40
1.5
 50
0.0
 51
88.0
  0
LINE
  8
0
 62
0
 10
-163.1
 20
-31.5882162402
 30
0.0
 11
-163.1
 21
-94.4117837598
 31
0.0
  0
ARC
  8
0
 62
0
 10
-164.6
 20
-94.4117837598
 30
0.0
 40
1.5
 50
-88.0
 51
-0.0
  0
LINE
  8
0
 62
0
 10
-167.1
 20
-96.0
 30
0.0
 11
-164.547650755
 21
-95.9108700004
 31
0.0
  0
LINE
  8
0
 62
0
 10
-167.1
 20
-106.0
 30
0.0
 11
-167.1
 21
-96.0
 31
0.0
  0
LINE
  8
0
 62
0
 10
-164.547650755
 20
-106.08913
 30
0.0
 11
-167.1
 21
-106.0
 31
0.0
  0
ARC
  8
0
 62
0
 10
-164.6
 20
-107.58821624
 30
0.0
 40
1.5
 50
-0.0
 51
88.0
  0
LINE
  8
0
 62
0
 10
-163.1
 20
-107.58821624
 30
0.0
 11
-163.1
 21
-140.41178376
 31
0.0
  0
ARC
  8
0
 62
0
 10
-164.6
 20
-140.41178376
 30
0.0
 40
1.5
 50
-88.0
 51
-0.0
  0
LINE
  8
0
 62
0
 10
-167.1
 20
-142.0
 30
0.0
 11
-164.547650755
 21
-141.91087
 31
0.0
  0
LINE
  8
0
 62
0
 10
-167.1
 20
-152.0
 30
0.0
 11
-167.1
 21
-142.0
 31
0.0
  0
LINE
  8
0
 62
0
 10
-163.1
 20
-152.139683078
 30
0.0
 11
-167.1
 21
-152.0
 31
0.0
  0
LINE
  8
0
 62
0
 10
-151.962214014
 20
-152.420340287
 30
0.0
 11
-163.1
 21
-152.139683078
 31
0.0
  0
ARC
  8
0
 62
0
 10
-152.0
 20
-153.919864285
 30
0.0
 40
1.5
 50
-0.0
 51
88.5565289781
  0
LINE
  8
0
 62
0
 10
-150.5
 20
-168.8
 30
0.0
 11
-150.5
 21
-153.919864285
 31
0.0
  0
LINE
  8
0
 62
0
 10
-150.5
 20
-168.8
 30
0.0
 11
-148.38821624
 21
-168.8
 31
0.0
  0
ARC
  8
0
 62
0
 10
-148.38821624
 20
-170.3
 30
0.0
 40
1.5
 50
2.0
 51
90.0
  0
LINE
  8
0
 62
0
 10
-146.8
 20
-172.8
 30
0.0
 11
-146.88913
 21
-170.247650755
 31
0.0
  0
LINE
  8
0
 62
0
 10
-136.8
 20
-172.8
 30
0.0
 11
-146.8
 21
-172.8
 31
0.0
  0
LINE
  8
0
 62
0
 10
-136.71087
 20
-170.247650755
 30
0.0
 11
-136.8
 21
-172.8
 31
0.0
  0
ARC
  8
0
 62
0
 10
-135.21178376
 20
-170.3
 30
0.0
 40
1.5
 50
90.0
 51
178.0
  0
LINE
  8
0
 62
0
 10
-135.21178376
 20
-168.8
 30
0.0
 11
-98.3882162402
 21
-168.8
 31
0.0
  0
ARC
  8
0
 62
0
 10
-98.3882162402
 20
-170.3
 30
0.0
 40
1.5
 50
2.0
 51
90.0
  0
ARC
  8
0
 62
0
 10
-85.2117837598
 20
-170.3
 30
0.0
 40
1.5
 50
90.0
 51
178.0
  0
LINE
  8
0
 62
0
 10
-85.2117837598
 20
-168.8
 30
0.0
 11
44.75
 21
-168.8
 31
0.0
  0
LINE
  8
0
 62
0
 10
73.25
 20
-154.7
 30
0.0
 11
46.75
 21
-154.7
 31
0.0
  0
LINE
  8
0
 62
0
 10
75.25
 20
-168.8
 30
0.0
 11
135.21178376
 21
-168.8
 31
0.0
  0
ARC
  8
0
 62
0
 10
135.21178376
 20
-170.3
 30
0.0
 40
1.5
 50
2.0
 51
90.0
  0
LINE
  8
0
 62
0
 10
136.71087
 20
-170.247650755
 30
0.0
 11
136.8
 21
-172.8
 31
0.0
  0
LINE
  8
0
 62
0
 10
136.8
 20
-172.8
 30
0.0
 11
146.8
 21
-172.8
 31
0.0
  0
LINE
  8
0
 62
0
 10
146.8
 20
-172.8
 30
0.0
 11
146.88913
 21
-170.247650755
 31
0.0
  0
ARC
  8
0
 62
0
 10
148.38821624
 20
-170.3
 30
0.0
 40
1.5
 50
90.0
 51
178.0
  0
LINE
  8
0
 62
0
 10
150.5
 20
-168.8
 30
0.0
 11
148.38821624
 21
-168.8
 31
0.0
  0
LINE
  8
0
 62
0
 10
150.5
 20
-168.8
 30
0.0
 11
150.5
 21
-153.919864285
 31
0.0
  0
ARC
  8
0
 62
0
 10
152.0
 20
-153.919864285
 30
0.0
 40
1.5
 50
91.4434710219
 51
-180.0
  0
LINE
  8
0
 62
0
 10
151.962214014
 20
-152.420340287
 30
0.0
 11
163.1
 21
-152.139683078
 31
0.0
  0
LINE
  8
0
 62
0
 10
163.1
 20
-152.139683078
 30
0.0
 11
167.1
 21
-152.0
 31
0.0
  0
LINE
  8
0
 62
0
 10
167.1
 20
-152.0
 30
0.0
 11
167.1
 21
-142.0
 31
0.0
  0
LINE
  8
0
 62
0
 10
167.1
 20
-142.0
 30
0.0
 11
164.547650755
 21
-141.91087
 31
0.0
  0
ARC
  8
0
 62
0
 10
164.6
 20
-140.41178376
 30
0.0
 40
1.5
 50
-180.0
 51
-92.0
  0
LINE
  8
0
 62
0
 10
163.1
 20
-107.58821624
 30
0.0
 11
163.1
 21
-140.41178376
 31
0.0
  0
ARC
  8
0
 62
0
 10
164.6
 20
-107.58821624
 30
0.0
 40
1.5
 50
92.0
 51
-180.0
  0
LINE
  8
0
 62
0
 10
164.547650755
 20
-106.08913
 30
0.0
 11
167.1
 21
-106.0
 31
0.0
  0
LINE
  8
0
 62
0
 10
167.1
 20
-106.0
 30
0.0
 11
167.1
 21
-96.0
 31
0.0
  0
LINE
  8
0
 62
0
 10
167.1
 20
-96.0
 30
0.0
 11
164.547650755
 21
-95.9108700004
 31
0.0
  0
ARC
  8
0
 62
0
 10
164.6
 20
-94.4117837598
 30
0.0
 40
1.5
 50
-180.0
 51
-92.0
  0
LINE
  8
0
 62
0
 10
163.1
 20
-31.5882162402
 30
0.0
 11
163.1
 21
-94.4117837598
 31
0.0
  0
ARC
  8
0
 62
0
 10
164.6
 20
-31.5882162402
 30
0.0
 40
1.5
 50
92.0
 51
180.0
  0
LINE
  8
0
 62
0
 10
164.547650755
 20
-30.0891299996
 30
0.0
 11
167.1
 21
-30.0
 31
0.0
  0
LINE
  8
0
 62
0
 10
167.1
 20
-30.0
 30
0.0
 11
167.1
 21
-20.0
 31
0.0
  0
LINE
  8
0
 62
0
 10
167.1
 20
-20.0
 30
0.0
 11
164.547650755
 21
-19.9108700004
 31
0.0
  0
ARC
  8
0
 62
0
 10
164.6
 20
-18.4117837598
 30
0.0
 40
1.5
 50
-180.0
 51
-92.0
  0
LINE
  8
0
 62
0
 10
163.1
 20
18.4117837598
 30
0.0
 11
163.1
 21
-18.4117837598
 31
0.0
  0
ARC
  8
0
 62
0
 10
164.6
 20
18.4117837598
 30
0.0
 40
1.5
 50
92.0
 51
-180.0
  0
LINE
  8
0
 62
0
 10
164.547650755
 20
19.9108700004
 30
0.0
 11
167.1
 21
20.0
 31
0.0
  0
LINE
  8
0
 62
0
 10
167.1
 20
20.0
 30
0.0
 11
167.1
 21
30.0
 31
0.0
  0
LINE
  8
0
 62
0
 10
167.1
 20
30.0
 30
0.0
 11
164.547650755
 21
30.0891299996
 31
0.0
  0
ARC
  8
0
 62
0
 10
164.6
 20
31.5882162402
 30
0.0
 40
1.5
 50
180.0
 51
-92.0
  0
LINE
  8
0
 62
0
 10
163.1
 20
94.4117837598
 30
0.0
 11
163.1
 21
31.5882162402
 31
0.0
  0
ARC
  8
0
 62
0
 10
164.6
 20
94.4117837598
 30
0.0
 40
1.5
 50
92.0
 51
-180.0
  0
LINE
  8
0
 62
0
 10
164.547650755
 20
95.9108700004
 30
0.0
 11
167.1
 21
96.0
 31
0.0
  0
LINE
  8
0
 62
0
 10
167.1
 20
96.0
 30
0.0
 11
167.1
 21
106.0
 31
0.0
  0
LINE
  8
0
 62
0
 10
167.1
 20
106.0
 30
0.0
 11
164.547650755
 21
106.08913
 31
0.0
  0
ARC
  8
0
 62
0
 10
164.6
 20
107.58821624
 30
0.0
 40
1.5
 50
-149.193242997
 51
-92.0
  0
LINE
  8
0
 62
0
 10
161.6
 20
106.82
 30
0.0
 11
163.311650743
 21
106.82
 31
0.0
  0
ARC
  8
0
 62
0
 10
161.6
 20
108.42
 30
0.0
 40
1.6
 50
90.0
 51
-90.0
  0
LINE
  8
0
 62
0
 10
163.1
 20
110.02
 30
0.0
 11
161.6
 21
110.02
 31
0.0
  0
LINE
  8
0
 62
0
 10
163.1
 20
140.41178376
 30
0.0
 11
163.1
 21
110.02
 31
0.0
  0
ARC
  8
0
 62
0
 10
164.6
 20
140.41178376
 30
0.0
 40
1.5
 50
92.0
 51
-180.0
  0
LINE
  8
0
 62
0
 10
164.547650755
 20
141.91087
 30
0.0
 11
167.1
 21
142.0
 31
0.0
  0
LINE
  8
0
 62
0
 10
167.1
 20
142.0
 30
0.0
 11
167.1
 21
152.0
 31
0.0
  0
LINE
  8
0
 62
0
 10
167.1
 20
152.0
 30
0.0
 11
156.355950299
 21
152.375190483
 31
0.0
  0
ARC
  8
0
 62
0
 10
156.687495517
 20
161.86940334
 30
0.0
 40
9.5
 50
-178.0
 51
-92.0
  0
LINE
  8
0
 62
0
 10
147.193282661
 20
161.537858121
 30
0.0
 11
146.8
 21
172.8
 31
0.0
  0
LINE
  8
0
 62
0
 10
146.8
 20
172.8
 30
0.0
 11
136.8
 21
172.8
 31
0.0
  0
LINE
  8
0
 62
0
 10
136.8
 20
172.8
 30
0.0
 11
136.71087
 21
170.247650755
 31
0.0
  0
ARC
  8
0
 62
0
 10
135.21178376
 20
170.3
 30
0.0
 40
1.5
 50
-90.0
 51
-2.0
  0
LINE
  8
0
 62
0
 10
86.5882162402
 20
168.8
 30
0.0
 11
135.21178376
 21
168.8
 31
0.0
  0
ARC
  8
0
 62
0
 10
86.5882162402
 20
170.3
 30
0.0
 40
1.5
 50
-178.0
 51
-90.0
  0
LINE
  8
0
 62
0
 10
85.0891299996
 20
170.247650755
 30
0.0
 11
85.0
 21
172.8
 31
0.0
  0
LINE
  8
0
 62
0
 10
85.0
 20
172.8
 30
0.0
 11
75.0
 21
172.8
 31
0.0
  0
LINE
  8
0
 62
0
 10
75.0
 20
172.8
 30
0.0
 11
74.9108700004
 21
170.247650755
 31
0.0
  0
ARC
  8
0
 62
0
 10
73.4117837598
 20
170.3
 30
0.0
 40
1.5
 50
-90.0
 51
-2.0
  0
LINE
  8
0
 62
0
 10
52.0
 20
168.8
 30
0.0
 11
73.4117837598
 21
168.8
 31
0.0
  0
LINE
  8
0
 62
0
 10
52.0
 20
161.5
 30
0.0
 11
52.0
 21
168.8
 31
0.0
  0
ARC
  8
0
 62
0
 10
50.5
 20
161.5
 30
0.0
 40
1.5
 50
-90.0
 51
0.0
  0
LINE
  8
0
 62
0
 10
41.5
 20
160.0
 30
0.0
 11
50.5
 21
160.0
 31
0.0
  0
ARC
  8
0
 62
0
 10
41.5
 20
161.5
 30
0.0
 40
1.5
 50
180.0
 51
-90.0
  0
LINE
  8
0
 62
0
 10
40.0
 20
168.8
 30
0.0
 11
40.0
 21
161.5
 31
0.0
  0
ARC
  8
0
 62
0
 10
28.5882162402
 20
170.3
 30
0.0
 40
1.5
 50
-178.0
 51
-90.0
  0
LINE
  8
0
 62
0
 10
27.0891299996
 20
170.247650755
 30
0.0
 11
27.0
 21
172.8
 31
0.0
  0
LINE
  8
0
 62
0
 10
27.0
 20
172.8
 30
0.0
 11
17.0
 21
172.8
 31
0.0
  0
LINE
  8
0
 62
0
 10
17.0
 20
172.8
 30
0.0
 11
16.9108700004
 21
170.247650755
 31
0.0
  0
ARC
  8
0
 62
0
 10
15.4117837598
 20
170.3
 30
0.0
 40
1.5
 50
-90.0
 51
-2.0
  0
LINE
  8
0
 62
0
 10
15.4117837598
 20
168.8
 30
0.0
 11
-15.4117837598
 21
168.8
 31
0.0
  0
ARC
  8
0
 62
0
 10
-15.4117837598
 20
170.3
 30
0.0
 40
1.5
 50
-178.0
 51
-90.0
  0
LINE
  8
0
 62
0
 10
-17.0
 20
172.8
 30
0.0
 11
-16.9108700004
 21
170.247650755
 31
0.0
  0
LINE
  8
0
 62
0
 10
-27.0
 20
172.8
 30
0.0
 11
-17.0
 21
172.8
 31
0.0
  0
LINE
  8
0
 62
0
 10
-27.0891299996
 20
170.247650755
 30
0.0
 11
-27.0
 21
172.8
 31
0.0
  0
ARC
  8
0
 62
0
 10
-28.5882162402
 20
170.3
 30
0.0
 40
1.5
 50
-90.0
 51
-2.0
  0
LINE
  8
0
 62
0
 10
-28.5882162402
 20
168.8
 30
0.0
 11
-73.4117837598
 21
168.8
 31
0.0
  0
ARC
  8
0
 62
0
 10
-73.4117837598
 20
170.3
 30
0.0
 40
1.5
 50
-178.0
 51
-90.0
  0
LINE
  8
0
 62
0
 10
-75.0
 20
172.8
 30
0.0
 11
-74.9108700004
 21
170.247650755
 31
0.0
  0
LINE
  8
0
 62
0
 10
-85.0
 20
172.8
 30
0.0
 11
-75.0
 21
172.8
 31
0.0
  0
LINE
  8
0
 62
0
 10
-85.0891299996
 20
170.247650755
 30
0.0
 11
-85.0
 21
172.8
 31
0.0
  0
ARC
  8
0
 62
0
 10
-86.5882162402
 20
170.3
 30
0.0
 40
1.5
 50
-90.0
 51
-2.0
  0
LINE
  8
0
 62
0
 10
-53.1
 20
164.25
 30
0.0
 11
-53.1
 21
161.75
 31
0.0
  0
ARC
  8
0
 62
0
 10
-51.5
 20
164.25
 30
0.0
 40
1.6
 50
-0.0
 51
-180.0
  0
LINE
  8
0
 62
0
 10
-49.9
 20
161.75
 30
0.0
 11
-49.9
 21
164.25
 31
0.0
  0
ARC
  8
0
 62
0
 10
-51.5
 20
161.75
 30
0.0
 40
1.6
 50
-180.0
 51
-0.0
  0
LINE
  8
0
 62
0
 10
-122.1
 20
164.25
 30
0.0
 11
-122.1
 21
161.75
 31
0.0
  0
ARC
  8
0
 62
0
 10
-120.5
 20
164.25
 30
0.0
 40
1.6
 50
-0.0
 51
-180.0
  0
LINE
  8
0
 62
0
 10
-118.9
 20
161.75
 30
0.0
 11
-118.9
 21
164.25
 31
0.0
  0
ARC
  8
0
 62
0
 10
-120.5
 20
161.75
 30
0.0
 40
1.6
 50
-180.0
 51
-0.0
  0
LINE
  8
0
 62
0
 10
-118.9
 20
-3.25
 30
0.0
 11
-118.9
 21
-0.75
 31
0.0
  0
ARC
  8
0
 62
0
 10
-120.5
 20
-3.25
 30
0.0
 40
1.6
 50
180.0
 51
0.0
  0
LINE
  8
0
 62
0
 10
-122.1
 20
-0.75
 30
0.0
 11
-122.1
 21
-3.25
 31
0.0
  0
ARC
  8
0
 62
0
 10
-120.5
 20
-0.75
 30
0.0
 40
1.6
 50
-0.0
 51
-180.0
  0
LINE
  8
0
 62
0
 10
-49.9
 20
-3.25
 30
0.0
 11
-49.9
 21
-0.75
 31
0.0
  0
ARC
  8
0
 62
0
 10
-51.5
 20
-3.25
 30
0.0
 40
1.6
 50
180.0
 51
0.0
  0
LINE
  8
0
 62
0
 10
-53.1
 20
-0.75
 30
0.0
 11
-53.1
 21
-3.25
 31
0.0
  0
ARC
  8
0
 62
0
 10
-51.5
 20
-0.75
 30
0.0
 40
1.6
 50
-0.0
 51
-180.0
  0
ARC
  8
0
 62
0
 10
80.0
 20
148.0
 30
0.0
 40
6.0
 50
-180.0
 51
-0.0
  0
ARC
  8
0
 62
0
 10
62.0
 20
148.0
 30
0.0
 40
1.55
 50
-180.0
 51
-0.0
  0
ARC
  8
0
 62
0
 10
98.0
 20
148.0
 30
0.0
 40
1.6
 50
-180.0
 51
-0.0
  0
ARC
  8
0
 62
0
 10
15.5
 20
163.5
 30
0.0
 40
1.6
 50
180.0
 51
0.0
  0
ARC
  8
0
 62
0
 10
15.5
 20
132.5
 30
0.0
 40
1.6
 50
180.0
 51
0.0
  0
ARC
  8
0
 62
0
 10
-80.0
 20
148.0
 30
0.0
 40
6.0
 50
-0.0
 51
-180.0
  0
ARC
  8
0
 62
0
 10
-62.0
 20
148.0
 30
0.0
 40
1.55
 50
-0.0
 51
-180.0
  0
ARC
  8
0
 62
0
 10
-98.0
 20
148.0
 30
0.0
 40
1.6
 50
-0.0
 51
-180.0
  0
ARC
  8
0
 62
0
 10
-15.5
 20
163.5
 30
0.0
 40
1.6
 50
-0.0
 51
-180.0
  0
ARC
  8
0
 62
0
 10
-15.5
 20
132.5
 30
0.0
 40
1.6
 50
-0.0
 51
-180.0
  0
ARC
  8
0
 62
0
 10
1.11022302463e-15
 20
148.0
 30
0.0
 40
7.0
 50
-0.0
 51
-180.0
  0
ENDBLK
  0
ENDSEC
  0
SECTION
  2
ENTITIES
  0
INSERT
  2
PART__FEATURE
  8
0
 62
0
 10
0.0
 20
0.0
 30
0.0
  0
ENDSEC
  0
EOF
