  0
SECTION
  2
HEADER
  9
$ACADVER
  1
AC1009
  9
$INSBASE
 10
0.0
 20
0.0
 30
0.0
  9
$EXTMIN
 10
0.0
 20
0.0
 30
0.0
  9
$EXTMAX
 10
0.0
 20
0.0
 30
0.0
  0
ENDSEC
  0
SECTION
  2
TABLES
  0
TABLE
  2
VPORT
 70
0
  0
ENDTAB
  0
TABLE
  2
LTYPE
 70
1
  0
LTYPE
  2
CONTINUOUS
 70
0
  3
Solid line
 72
65
 73
0
 40
0.0
  0
ENDTAB
  0
TABLE
  2
LAYER
 70
1
  0
LAYER
  2
0
 70
64
 62
7
  6
continuous
  0
ENDTAB
  0
TABLE
  2
STYLE
 70
1
  0
STYLE
  2
STANDARD
 70
0
 40
0
 41
1.0
 50
0.0
 71
0
 42
1
 3
ARIAL.TTF
 4

  0
ENDTAB
  0
TABLE
  2
VIEW
 70
0
  0
ENDTAB
  0
ENDSEC
  0
SECTION
  2
BLOCKS
  0
BLOCK
  8
0
  2
PART__FEATURE
 70
0
 10
0.0
 20
0.0
 30
0.0
  3
PART__FEATURE
  0
ARC
  8
0
 62
0
 10
-98.2682835024
 20
-33.6000027239
 30
0.0
 40
1.25
 50
90.0
 51
-90.0
  0
ARC
  8
0
 62
0
 10
-113.768332983
 20
-51.4999598547
 30
0.0
 40
1.25
 50
90.0
 51
-90.0
  0
ARC
  8
0
 62
0
 10
-80.0
 20
1.55431223448e-15
 30
0.0
 40
7.0
 50
90.0
 51
-90.0
  0
ARC
  8
0
 62
0
 10
-91.313708499
 20
11.313708499
 30
0.0
 40
1.75
 50
90.0
 51
-90.0
  0
ARC
  8
0
 62
0
 10
-68.686291501
 20
11.313708499
 30
0.0
 40
1.75
 50
90.0
 51
-90.0
  0
ARC
  8
0
 62
0
 10
-68.686291501
 20
-11.313708499
 30
0.0
 40
1.75
 50
90.0
 51
-90.0
  0
ARC
  8
0
 62
0
 10
-91.313708499
 20
-11.313708499
 30
0.0
 40
1.75
 50
90.0
 51
-90.0
  0
ARC
  8
0
 62
0
 10
80.0
 20
2.22044604925e-16
 30
0.0
 40
7.0
 50
90.0
 51
-90.0
  0
ARC
  8
0
 62
0
 10
91.313708499
 20
11.313708499
 30
0.0
 40
1.75
 50
90.0
 51
-90.0
  0
ARC
  8
0
 62
0
 10
68.686291501
 20
11.313708499
 30
0.0
 40
1.75
 50
90.0
 51
-90.0
  0
ARC
  8
0
 62
0
 10
68.686291501
 20
-11.313708499
 30
0.0
 40
1.75
 50
90.0
 51
-90.0
  0
ARC
  8
0
 62
0
 10
91.313708499
 20
-11.313708499
 30
0.0
 40
1.75
 50
90.0
 51
-90.0
  0
ARC
  8
0
 62
0
 10
2.22044604925e-16
 20
0.1
 30
0.0
 40
5.0
 50
90.0
 51
-90.0
  0
ARC
  8
0
 62
0
 10
-123.5
 20
-282.5
 30
0.0
 40
3.025
 50
90.0
 51
-90.0
  0
ARC
  8
0
 62
0
 10
123.5
 20
-282.5
 30
0.0
 40
3.025
 50
90.0
 51
-90.0
  0
ARC
  8
0
 62
0
 10
3.5527136788e-15
 20
-63.5
 30
0.0
 40
3.025
 50
90.0
 51
-90.0
  0
ARC
  8
0
 62
0
 10
-5.75
 20
5.85
 30
0.0
 40
1.65
 50
90.0
 51
-90.0
  0
ARC
  8
0
 62
0
 10
-5.75
 20
-5.65
 30
0.0
 40
1.65
 50
90.0
 51
-90.0
  0
ARC
  8
0
 62
0
 10
5.75
 20
5.85
 30
0.0
 40
1.65
 50
90.0
 51
-90.0
  0
ARC
  8
0
 62
0
 10
5.75
 20
-5.65
 30
0.0
 40
1.65
 50
90.0
 51
-90.0
  0
ARC
  8
0
 62
0
 10
-70.0
 20
-19.0
 30
0.0
 40
1.55
 50
90.0
 51
-90.0
  0
ARC
  8
0
 62
0
 10
70.0
 20
-19.0
 30
0.0
 40
1.55
 50
90.0
 51
-90.0
  0
ARC
  8
0
 62
0
 10
3.08642000846e-14
 20
-75.0
 30
0.0
 40
2.0
 50
90.0
 51
-90.0
  0
ARC
  8
0
 62
0
 10
-95.2627944163
 20
-240.0
 30
0.0
 40
2.0
 50
90.0
 51
-90.0
  0
ARC
  8
0
 62
0
 10
95.2627944163
 20
-240.0
 30
0.0
 40
2.0
 50
90.0
 51
-90.0
  0
ARC
  8
0
 62
0
 10
45.0
 20
17.5
 30
0.0
 40
1.3
 50
90.0
 51
-90.0
  0
ARC
  8
0
 62
0
 10
-95.0
 20
11.0
 30
0.0
 40
5.0
 50
90.0
 51
-180.0
  0
ARC
  8
0
 62
0
 10
-121.5
 20
-64.2505655752
 30
0.0
 40
7.0
 50
138.859502279
 51
-180.0
  0
ARC
  8
0
 62
0
 10
-123.5
 20
-282.5
 30
0.0
 40
5.0
 50
180.0
 51
-90.0
  0
ARC
  8
0
 62
0
 10
-113.768332983
 20
-51.4999598547
 30
0.0
 40
1.25
 50
-90.0
 51
90.0
  0
LINE
  8
0
 62
0
 10
100.0
 20
-22.7
 30
0.0
 11
100.0
 21
-27.1235860621
 31
0.0
  0
LINE
  8
0
 62
0
 10
95.5
 20
-22.7
 30
0.0
 11
100.0
 21
-22.7
 31
0.0
  0
ARC
  8
0
 62
0
 10
95.5
 20
-21.2
 30
0.0
 40
1.5
 50
-180.0
 51
-90.0
  0
LINE
  8
0
 62
0
 10
94.0
 20
-17.7
 30
0.0
 11
94.0
 21
-21.2
 31
0.0
  0
ARC
  8
0
 62
0
 10
95.5
 20
-17.7
 30
0.0
 40
1.5
 50
90.0
 51
180.0
  0
LINE
  8
0
 62
0
 10
100.0
 20
-16.2
 30
0.0
 11
95.5
 21
-16.2
 31
0.0
  0
LINE
  8
0
 62
0
 10
100.0
 20
11.0
 30
0.0
 11
100.0
 21
-16.2
 31
0.0
  0
ARC
  8
0
 62
0
 10
95.0
 20
11.0
 30
0.0
 40
5.0
 50
-0.0
 51
90.0
  0
LINE
  8
0
 62
0
 10
95.0
 20
16.0
 30
0.0
 11
54.0
 21
16.0
 31
0.0
  0
ARC
  8
0
 62
0
 10
54.0
 20
17.5
 30
0.0
 40
1.5
 50
180.0
 51
-90.0
  0
LINE
  8
0
 62
0
 10
52.5
 20
17.5
 30
0.0
 11
52.5
 21
18.2
 31
0.0
  0
ARC
  8
0
 62
0
 10
51.0
 20
18.2
 30
0.0
 40
1.5
 50
-0.0
 51
90.0
  0
LINE
  8
0
 62
0
 10
51.0
 20
19.7
 30
0.0
 11
39.0
 21
19.7
 31
0.0
  0
ARC
  8
0
 62
0
 10
39.0
 20
18.2
 30
0.0
 40
1.5
 50
90.0
 51
-180.0
  0
LINE
  8
0
 62
0
 10
37.5
 20
18.2
 30
0.0
 11
37.5
 21
17.5
 31
0.0
  0
ARC
  8
0
 62
0
 10
36.0
 20
17.5
 30
0.0
 40
1.5
 50
-90.0
 51
0.0
  0
LINE
  8
0
 62
0
 10
36.0
 20
16.0
 30
0.0
 11
-95.0
 21
16.0
 31
0.0
  0
LINE
  8
0
 62
0
 10
-100.0
 20
11.0
 30
0.0
 11
-100.0
 21
-16.2
 31
0.0
  0
LINE
  8
0
 62
0
 10
-95.5
 20
-16.2
 30
0.0
 11
-100.0
 21
-16.2
 31
0.0
  0
ARC
  8
0
 62
0
 10
-95.5
 20
-17.7
 30
0.0
 40
1.5
 50
0.0
 51
90.0
  0
LINE
  8
0
 62
0
 10
-94.0
 20
-21.2
 30
0.0
 11
-94.0
 21
-17.7
 31
0.0
  0
ARC
  8
0
 62
0
 10
-95.5
 20
-21.2
 30
0.0
 40
1.5
 50
-90.0
 51
-0.0
  0
LINE
  8
0
 62
0
 10
-100.0
 20
-22.7
 30
0.0
 11
-95.5
 21
-22.7
 31
0.0
  0
LINE
  8
0
 62
0
 10
-100.0
 20
-22.7
 30
0.0
 11
-100.0
 21
-27.1235860621
 31
0.0
  0
ARC
  8
0
 62
0
 10
-105.0
 20
-27.1235860621
 30
0.0
 40
5.0
 50
-41.1404977215
 51
0.0
  0
LINE
  8
0
 62
0
 10
-101.234507205
 20
-30.4131246328
 30
0.0
 11
-126.771689913
 21
-59.6452115761
 31
0.0
  0
LINE
  8
0
 62
0
 10
-128.5
 20
-64.2505655752
 30
0.0
 11
-128.5
 21
-282.5
 31
0.0
  0
LINE
  8
0
 62
0
 10
-123.5
 20
-287.5
 30
0.0
 11
123.5
 21
-287.5
 31
0.0
  0
ARC
  8
0
 62
0
 10
123.5
 20
-282.5
 30
0.0
 40
5.0
 50
-90.0
 51
0.0
  0
LINE
  8
0
 62
0
 10
128.5
 20
-64.2505655752
 30
0.0
 11
128.5
 21
-282.5
 31
0.0
  0
ARC
  8
0
 62
0
 10
121.5
 20
-64.2505655752
 30
0.0
 40
7.0
 50
-0.0
 51
41.1404977215
  0
LINE
  8
0
 62
0
 10
101.234507205
 20
-30.4131246328
 30
0.0
 11
126.771689913
 21
-59.6452115761
 31
0.0
  0
ARC
  8
0
 62
0
 10
105.0
 20
-27.1235860621
 30
0.0
 40
5.0
 50
180.0
 51
-138.859502279
  0
ARC
  8
0
 62
0
 10
45.0
 20
17.5
 30
0.0
 40
1.3
 50
-90.0
 51
90.0
  0
ARC
  8
0
 62
0
 10
-95.2627944163
 20
-240.0
 30
0.0
 40
2.0
 50
-90.0
 51
90.0
  0
ARC
  8
0
 62
0
 10
70.0
 20
-19.0
 30
0.0
 40
1.55
 50
-90.0
 51
90.0
  0
ARC
  8
0
 62
0
 10
5.75
 20
-5.65
 30
0.0
 40
1.65
 50
-90.0
 51
90.0
  0
ARC
  8
0
 62
0
 10
-5.75
 20
-5.65
 30
0.0
 40
1.65
 50
-90.0
 51
90.0
  0
ARC
  8
0
 62
0
 10
-4.66293670343e-15
 20
-63.5
 30
0.0
 40
3.025
 50
-90.0
 51
90.0
  0
ARC
  8
0
 62
0
 10
-123.5
 20
-282.5
 30
0.0
 40
3.025
 50
-90.0
 51
90.0
  0
ARC
  8
0
 62
0
 10
91.313708499
 20
-11.313708499
 30
0.0
 40
1.75
 50
-90.0
 51
90.0
  0
ARC
  8
0
 62
0
 10
68.686291501
 20
11.313708499
 30
0.0
 40
1.75
 50
-90.0
 51
90.0
  0
ARC
  8
0
 62
0
 10
80.0
 20
1.55431223448e-15
 30
0.0
 40
7.0
 50
-90.0
 51
90.0
  0
ARC
  8
0
 62
0
 10
91.313708499
 20
11.313708499
 30
0.0
 40
1.75
 50
-90.0
 51
90.0
  0
ARC
  8
0
 62
0
 10
68.686291501
 20
-11.313708499
 30
0.0
 40
1.75
 50
-90.0
 51
90.0
  0
ARC
  8
0
 62
0
 10
-91.313708499
 20
-11.313708499
 30
0.0
 40
1.75
 50
-90.0
 51
90.0
  0
ARC
  8
0
 62
0
 10
-68.686291501
 20
11.313708499
 30
0.0
 40
1.75
 50
-90.0
 51
90.0
  0
ARC
  8
0
 62
0
 10
-80.0
 20
2.22044604925e-16
 30
0.0
 40
7.0
 50
-90.0
 51
90.0
  0
ARC
  8
0
 62
0
 10
-91.313708499
 20
11.313708499
 30
0.0
 40
1.75
 50
-90.0
 51
90.0
  0
ARC
  8
0
 62
0
 10
-68.686291501
 20
-11.313708499
 30
0.0
 40
1.75
 50
-90.0
 51
90.0
  0
ARC
  8
0
 62
0
 10
-2.22044604925e-16
 20
0.1
 30
0.0
 40
5.0
 50
-90.0
 51
90.0
  0
ARC
  8
0
 62
0
 10
123.5
 20
-282.5
 30
0.0
 40
3.025
 50
-90.0
 51
90.0
  0
ARC
  8
0
 62
0
 10
-5.75
 20
5.85
 30
0.0
 40
1.65
 50
-90.0
 51
90.0
  0
ARC
  8
0
 62
0
 10
5.75
 20
5.85
 30
0.0
 40
1.65
 50
-90.0
 51
90.0
  0
ARC
  8
0
 62
0
 10
-70.0
 20
-19.0
 30
0.0
 40
1.55
 50
-90.0
 51
90.0
  0
ARC
  8
0
 62
0
 10
3.00870439673e-14
 20
-75.0
 30
0.0
 40
2.0
 50
-90.0
 51
90.0
  0
ARC
  8
0
 62
0
 10
95.2627944163
 20
-240.0
 30
0.0
 40
2.0
 50
-90.0
 51
90.0
  0
ARC
  8
0
 62
0
 10
-98.2682835024
 20
-33.6000027239
 30
0.0
 40
1.25
 50
-90.0
 51
90.0
  0
ENDBLK
  0
ENDSEC
  0
SECTION
  2
ENTITIES
  0
INSERT
  2
PART__FEATURE
  8
0
 62
0
 10
0.0
 20
0.0
 30
0.0
  0
ENDSEC
  0
EOF
