  0
SECTION
  2
HEADER
  9
$ACADVER
  1
AC1009
  9
$INSBASE
 10
0.0
 20
0.0
 30
0.0
  9
$EXTMIN
 10
0.0
 20
0.0
 30
0.0
  9
$EXTMAX
 10
0.0
 20
0.0
 30
0.0
  0
ENDSEC
  0
SECTION
  2
TABLES
  0
TABLE
  2
VPORT
 70
0
  0
ENDTAB
  0
TABLE
  2
LTYPE
 70
1
  0
LTYPE
  2
CONTINUOUS
 70
0
  3
Solid line
 72
65
 73
0
 40
0.0
  0
ENDTAB
  0
TABLE
  2
LAYER
 70
1
  0
LAYER
  2
0
 70
64
 62
7
  6
continuous
  0
ENDTAB
  0
TABLE
  2
STYLE
 70
1
  0
STYLE
  2
STANDARD
 70
0
 40
0
 41
1.0
 50
0.0
 71
0
 42
1
 3
ARIAL.TTF
 4

  0
ENDTAB
  0
TABLE
  2
VIEW
 70
0
  0
ENDTAB
  0
ENDSEC
  0
SECTION
  2
BLOCKS
  0
BLOCK
  8
0
  2
PART__FEATURE
 70
0
 10
0.0
 20
0.0
 30
0.0
  3
PART__FEATURE
  0
LINE
  8
0
 62
0
 10
-163.1
 20
1.5
 30
0.0
 11
-163.1
 21
18.4117837598
 31
0.0
  0
LINE
  8
0
 62
0
 10
-163.1
 20
-18.4117837598
 30
0.0
 11
-163.1
 21
-1.5
 31
0.0
  0
LINE
  8
0
 62
0
 10
-163.1
 20
1.5
 30
0.0
 11
-163.1
 21
-1.5
 31
0.0
  0
LINE
  8
0
 62
0
 10
-163.1
 20
31.5882162402
 30
0.0
 11
-163.1
 21
94.4117837598
 31
0.0
  0
LINE
  8
0
 62
0
 10
-163.1
 20
107.58821624
 30
0.0
 11
-163.1
 21
124.5
 31
0.0
  0
LINE
  8
0
 62
0
 10
-163.1
 20
127.5
 30
0.0
 11
-163.1
 21
124.5
 31
0.0
  0
LINE
  8
0
 62
0
 10
-163.1
 20
127.5
 30
0.0
 11
-163.1
 21
162.8
 31
0.0
  0
LINE
  8
0
 62
0
 10
-163.1
 20
-124.5
 30
0.0
 11
-163.1
 21
-107.58821624
 31
0.0
  0
LINE
  8
0
 62
0
 10
-163.1
 20
-162.8
 30
0.0
 11
-163.1
 21
-127.5
 31
0.0
  0
LINE
  8
0
 62
0
 10
-163.1
 20
-124.5
 30
0.0
 11
-163.1
 21
-127.5
 31
0.0
  0
LINE
  8
0
 62
0
 10
-163.1
 20
-94.4117837598
 30
0.0
 11
-163.1
 21
-31.5882162402
 31
0.0
  0
LINE
  8
0
 62
0
 10
-56.9
 20
168.8
 30
0.0
 11
-31.5882162402
 21
168.8
 31
0.0
  0
LINE
  8
0
 62
0
 10
-85.1617837598
 20
168.8
 30
0.0
 11
-59.9
 21
168.8
 31
0.0
  0
LINE
  8
0
 62
0
 10
-56.9
 20
168.8
 30
0.0
 11
-59.9
 21
168.8
 31
0.0
  0
LINE
  8
0
 62
0
 10
-115.3
 20
168.8
 30
0.0
 11
-98.3382162402
 21
168.8
 31
0.0
  0
LINE
  8
0
 62
0
 10
-157.1
 20
168.8
 30
0.0
 11
-118.3
 21
168.8
 31
0.0
  0
LINE
  8
0
 62
0
 10
-115.3
 20
168.8
 30
0.0
 11
-118.3
 21
168.8
 31
0.0
  0
LINE
  8
0
 62
0
 10
-18.4117837598
 20
168.8
 30
0.0
 11
18.4117837598
 21
168.8
 31
0.0
  0
LINE
  8
0
 62
0
 10
-1.5
 20
-168.8
 30
0.0
 11
-11.4117837598
 21
-168.8
 31
0.0
  0
LINE
  8
0
 62
0
 10
1.5
 20
-168.8
 30
0.0
 11
11.4117837598
 21
-168.8
 31
0.0
  0
LINE
  8
0
 62
0
 10
-1.5
 20
-168.8
 30
0.0
 11
1.5
 21
-168.8
 31
0.0
  0
LINE
  8
0
 62
0
 10
-24.5882162402
 20
-168.8
 30
0.0
 11
-85.1617837598
 21
-168.8
 31
0.0
  0
LINE
  8
0
 62
0
 10
-98.3382162402
 20
-168.8
 30
0.0
 11
-115.3
 21
-168.8
 31
0.0
  0
LINE
  8
0
 62
0
 10
-118.3
 20
-168.8
 30
0.0
 11
-115.3
 21
-168.8
 31
0.0
  0
LINE
  8
0
 62
0
 10
-118.3
 20
-168.8
 30
0.0
 11
-157.1
 21
-168.8
 31
0.0
  0
ARC
  8
0
 62
0
 10
-157.1
 20
162.8
 30
0.0
 40
6.0
 50
90.0
 51
-180.0
  0
ARC
  8
0
 62
0
 10
-157.1
 20
-162.8
 30
0.0
 40
6.0
 50
180.0
 51
-90.0
  0
ARC
  8
0
 62
0
 10
129.15
 20
-139.06
 30
0.0
 40
6.5
 50
-90.0
 51
-0.0
  0
LINE
  8
0
 62
0
 10
129.15
 20
-145.56
 30
0.0
 11
-129.15
 21
-145.56
 31
0.0
  0
ARC
  8
0
 62
0
 10
-129.15
 20
-139.06
 30
0.0
 40
6.5
 50
-180.0
 51
-90.0
  0
LINE
  8
0
 62
0
 10
-135.65
 20
-139.06
 30
0.0
 11
-135.65
 21
119.191727153
 31
0.0
  0
ARC
  8
0
 62
0
 10
-129.15
 20
119.191727153
 30
0.0
 40
6.5
 50
90.0
 51
-180.0
  0
LINE
  8
0
 62
0
 10
-129.15
 20
125.691727153
 30
0.0
 11
129.15
 21
125.691727153
 31
0.0
  0
ARC
  8
0
 62
0
 10
129.15
 20
119.191727153
 30
0.0
 40
6.5
 50
0.0
 51
90.0
  0
LINE
  8
0
 62
0
 10
135.65
 20
119.191727153
 30
0.0
 11
135.65
 21
-139.06
 31
0.0
  0
ARC
  8
0
 62
0
 10
139.6
 20
155.8
 30
0.0
 40
1.55
 50
-0.0
 51
-180.0
  0
ARC
  8
0
 62
0
 10
139.6
 20
155.8
 30
0.0
 40
1.55
 50
180.0
 51
0.0
  0
ARC
  8
0
 62
0
 10
139.6
 20
146.1
 30
0.0
 40
1.55
 50
-0.0
 51
-180.0
  0
ARC
  8
0
 62
0
 10
139.6
 20
146.1
 30
0.0
 40
1.55
 50
180.0
 51
0.0
  0
LINE
  8
0
 62
0
 10
-59.9
 20
162.479019946
 30
0.0
 11
-59.9
 21
168.8
 31
0.0
  0
ARC
  8
0
 62
0
 10
-85.1617837598
 20
170.3
 30
0.0
 40
1.5
 50
-178.0
 51
-90.0
  0
LINE
  8
0
 62
0
 10
-86.75
 20
172.8
 30
0.0
 11
-86.6608700004
 21
170.247650755
 31
0.0
  0
LINE
  8
0
 62
0
 10
-96.75
 20
172.8
 30
0.0
 11
-86.75
 21
172.8
 31
0.0
  0
LINE
  8
0
 62
0
 10
-96.8391299996
 20
170.247650755
 30
0.0
 11
-96.75
 21
172.8
 31
0.0
  0
ARC
  8
0
 62
0
 10
-98.3382162402
 20
170.3
 30
0.0
 40
1.5
 50
-90.0
 51
-2.0
  0
LINE
  8
0
 62
0
 10
-115.3
 20
168.8
 30
0.0
 11
-115.3
 21
162.479019946
 31
0.0
  0
ARC
  8
0
 62
0
 10
-115.55
 20
161.0
 30
0.0
 40
1.5
 50
-0.0
 51
80.4059317731
  0
LINE
  8
0
 62
0
 10
-114.05
 20
161.0
 30
0.0
 11
-114.05
 21
159.6
 31
0.0
  0
ARC
  8
0
 62
0
 10
-115.55
 20
159.6
 30
0.0
 40
1.5
 50
-80.4059317731
 51
-0.0
  0
LINE
  8
0
 62
0
 10
-115.3
 20
158.120980054
 30
0.0
 11
-115.462490406
 21
158.120980054
 31
0.0
  0
ARC
  8
0
 62
0
 10
-116.8
 20
158.8
 30
0.0
 40
1.5
 50
-153.084241905
 51
-26.9157580954
  0
LINE
  8
0
 62
0
 10
-118.137509594
 20
158.120980054
 30
0.0
 11
-118.3
 21
158.120980054
 31
0.0
  0
ARC
  8
0
 62
0
 10
-118.05
 20
159.6
 30
0.0
 40
1.5
 50
-180.0
 51
-99.5940682269
  0
LINE
  8
0
 62
0
 10
-119.55
 20
159.6
 30
0.0
 11
-119.55
 21
161.0
 31
0.0
  0
ARC
  8
0
 62
0
 10
-118.05
 20
161.0
 30
0.0
 40
1.5
 50
99.5940682269
 51
-180.0
  0
LINE
  8
0
 62
0
 10
-118.3
 20
162.479019946
 30
0.0
 11
-118.3
 21
168.8
 31
0.0
  0
LINE
  8
0
 62
0
 10
-163.1
 20
127.5
 30
0.0
 11
-156.779019946
 21
127.5
 31
0.0
  0
ARC
  8
0
 62
0
 10
-155.3
 20
127.25
 30
0.0
 40
1.5
 50
90.0
 51
170.405931773
  0
LINE
  8
0
 62
0
 10
-155.3
 20
128.75
 30
0.0
 11
-153.9
 21
128.75
 31
0.0
  0
ARC
  8
0
 62
0
 10
-153.9
 20
127.25
 30
0.0
 40
1.5
 50
9.59406822686
 51
90.0
  0
LINE
  8
0
 62
0
 10
-152.420980054
 20
127.5
 30
0.0
 11
-152.420980054
 21
127.337509594
 31
0.0
  0
ARC
  8
0
 62
0
 10
-153.1
 20
126.0
 30
0.0
 40
1.5
 50
-63.0842419046
 51
63.0842419046
  0
LINE
  8
0
 62
0
 10
-152.420980054
 20
124.662490406
 30
0.0
 11
-152.420980054
 21
124.5
 31
0.0
  0
ARC
  8
0
 62
0
 10
-153.9
 20
124.75
 30
0.0
 40
1.5
 50
-90.0
 51
-9.59406822686
  0
LINE
  8
0
 62
0
 10
-153.9
 20
123.25
 30
0.0
 11
-155.3
 21
123.25
 31
0.0
  0
ARC
  8
0
 62
0
 10
-155.3
 20
124.75
 30
0.0
 40
1.5
 50
-170.405931773
 51
-90.0
  0
LINE
  8
0
 62
0
 10
-156.779019946
 20
124.5
 30
0.0
 11
-163.1
 21
124.5
 31
0.0
  0
ARC
  8
0
 62
0
 10
-164.6
 20
107.58821624
 30
0.0
 40
1.5
 50
-88.0
 51
-0.0
  0
LINE
  8
0
 62
0
 10
-167.1
 20
106.0
 30
0.0
 11
-164.547650755
 21
106.08913
 31
0.0
  0
LINE
  8
0
 62
0
 10
-167.1
 20
96.0
 30
0.0
 11
-167.1
 21
106.0
 31
0.0
  0
LINE
  8
0
 62
0
 10
-164.547650755
 20
95.9108700004
 30
0.0
 11
-167.1
 21
96.0
 31
0.0
  0
ARC
  8
0
 62
0
 10
-164.6
 20
94.4117837598
 30
0.0
 40
1.5
 50
0.0
 51
88.0
  0
ARC
  8
0
 62
0
 10
-164.6
 20
31.5882162402
 30
0.0
 40
1.5
 50
-88.0
 51
-0.0
  0
LINE
  8
0
 62
0
 10
-167.1
 20
30.0
 30
0.0
 11
-164.547650755
 21
30.0891299996
 31
0.0
  0
LINE
  8
0
 62
0
 10
-167.1
 20
20.0
 30
0.0
 11
-167.1
 21
30.0
 31
0.0
  0
LINE
  8
0
 62
0
 10
-164.547650755
 20
19.9108700004
 30
0.0
 11
-167.1
 21
20.0
 31
0.0
  0
ARC
  8
0
 62
0
 10
-164.6
 20
18.4117837598
 30
0.0
 40
1.5
 50
0.0
 51
88.0
  0
LINE
  8
0
 62
0
 10
-163.1
 20
1.5
 30
0.0
 11
-156.779019946
 21
1.5
 31
0.0
  0
ARC
  8
0
 62
0
 10
-155.3
 20
1.25
 30
0.0
 40
1.5
 50
90.0
 51
170.405931773
  0
LINE
  8
0
 62
0
 10
-155.3
 20
2.75
 30
0.0
 11
-153.9
 21
2.75
 31
0.0
  0
ARC
  8
0
 62
0
 10
-153.9
 20
1.25
 30
0.0
 40
1.5
 50
9.59406822686
 51
90.0
  0
LINE
  8
0
 62
0
 10
-152.420980054
 20
1.5
 30
0.0
 11
-152.420980054
 21
1.3375095937
 31
0.0
  0
ARC
  8
0
 62
0
 10
-153.1
 20
1.27675647832e-15
 30
0.0
 40
1.5
 50
-63.0842419046
 51
63.0842419046
  0
LINE
  8
0
 62
0
 10
-152.420980054
 20
-1.3375095937
 30
0.0
 11
-152.420980054
 21
-1.5
 31
0.0
  0
ARC
  8
0
 62
0
 10
-153.9
 20
-1.25
 30
0.0
 40
1.5
 50
-90.0
 51
-9.59406822686
  0
LINE
  8
0
 62
0
 10
-153.9
 20
-2.75
 30
0.0
 11
-155.3
 21
-2.75
 31
0.0
  0
ARC
  8
0
 62
0
 10
-155.3
 20
-1.25
 30
0.0
 40
1.5
 50
-170.405931773
 51
-90.0
  0
LINE
  8
0
 62
0
 10
-156.779019946
 20
-1.5
 30
0.0
 11
-163.1
 21
-1.5
 31
0.0
  0
ARC
  8
0
 62
0
 10
-164.6
 20
-18.4117837598
 30
0.0
 40
1.5
 50
-88.0
 51
-0.0
  0
LINE
  8
0
 62
0
 10
-167.1
 20
-20.0
 30
0.0
 11
-164.547650755
 21
-19.9108700004
 31
0.0
  0
LINE
  8
0
 62
0
 10
-167.1
 20
-30.0
 30
0.0
 11
-167.1
 21
-20.0
 31
0.0
  0
LINE
  8
0
 62
0
 10
-164.547650755
 20
-30.0891299996
 30
0.0
 11
-167.1
 21
-30.0
 31
0.0
  0
ARC
  8
0
 62
0
 10
-164.6
 20
-31.5882162402
 30
0.0
 40
1.5
 50
0.0
 51
88.0
  0
ARC
  8
0
 62
0
 10
-164.6
 20
-94.4117837598
 30
0.0
 40
1.5
 50
-88.0
 51
-0.0
  0
LINE
  8
0
 62
0
 10
-167.1
 20
-96.0
 30
0.0
 11
-164.547650755
 21
-95.9108700004
 31
0.0
  0
LINE
  8
0
 62
0
 10
-167.1
 20
-106.0
 30
0.0
 11
-167.1
 21
-96.0
 31
0.0
  0
LINE
  8
0
 62
0
 10
-164.547650755
 20
-106.08913
 30
0.0
 11
-167.1
 21
-106.0
 31
0.0
  0
ARC
  8
0
 62
0
 10
-164.6
 20
-107.58821624
 30
0.0
 40
1.5
 50
0.0
 51
88.0
  0
LINE
  8
0
 62
0
 10
-163.1
 20
-124.5
 30
0.0
 11
-156.779019946
 21
-124.5
 31
0.0
  0
ARC
  8
0
 62
0
 10
-155.3
 20
-124.75
 30
0.0
 40
1.5
 50
90.0
 51
170.405931773
  0
LINE
  8
0
 62
0
 10
-155.3
 20
-123.25
 30
0.0
 11
-153.9
 21
-123.25
 31
0.0
  0
ARC
  8
0
 62
0
 10
-153.9
 20
-124.75
 30
0.0
 40
1.5
 50
9.59406822686
 51
90.0
  0
LINE
  8
0
 62
0
 10
-152.420980054
 20
-124.5
 30
0.0
 11
-152.420980054
 21
-124.662490406
 31
0.0
  0
ARC
  8
0
 62
0
 10
-153.1
 20
-126.0
 30
0.0
 40
1.5
 50
-63.0842419046
 51
63.0842419046
  0
LINE
  8
0
 62
0
 10
-152.420980054
 20
-127.337509594
 30
0.0
 11
-152.420980054
 21
-127.5
 31
0.0
  0
ARC
  8
0
 62
0
 10
-153.9
 20
-127.25
 30
0.0
 40
1.5
 50
-90.0
 51
-9.59406822686
  0
LINE
  8
0
 62
0
 10
-153.9
 20
-128.75
 30
0.0
 11
-155.3
 21
-128.75
 31
0.0
  0
ARC
  8
0
 62
0
 10
-155.3
 20
-127.25
 30
0.0
 40
1.5
 50
-170.405931773
 51
-90.0
  0
LINE
  8
0
 62
0
 10
-156.779019946
 20
-127.5
 30
0.0
 11
-163.1
 21
-127.5
 31
0.0
  0
LINE
  8
0
 62
0
 10
-118.3
 20
-168.8
 30
0.0
 11
-118.3
 21
-162.479019946
 31
0.0
  0
ARC
  8
0
 62
0
 10
-118.05
 20
-161.0
 30
0.0
 40
1.5
 50
180.0
 51
-99.5940682269
  0
LINE
  8
0
 62
0
 10
-119.55
 20
-161.0
 30
0.0
 11
-119.55
 21
-159.6
 31
0.0
  0
ARC
  8
0
 62
0
 10
-118.05
 20
-159.6
 30
0.0
 40
1.5
 50
99.5940682269
 51
-180.0
  0
LINE
  8
0
 62
0
 10
-118.3
 20
-158.120980054
 30
0.0
 11
-118.137509594
 21
-158.120980054
 31
0.0
  0
ARC
  8
0
 62
0
 10
-116.8
 20
-158.8
 30
0.0
 40
1.5
 50
26.9157580954
 51
153.084241905
  0
LINE
  8
0
 62
0
 10
-115.462490406
 20
-158.120980054
 30
0.0
 11
-115.3
 21
-158.120980054
 31
0.0
  0
ARC
  8
0
 62
0
 10
-115.55
 20
-159.6
 30
0.0
 40
1.5
 50
0.0
 51
80.4059317731
  0
LINE
  8
0
 62
0
 10
-114.05
 20
-159.6
 30
0.0
 11
-114.05
 21
-161.0
 31
0.0
  0
ARC
  8
0
 62
0
 10
-115.55
 20
-161.0
 30
0.0
 40
1.5
 50
-80.4059317731
 51
-0.0
  0
LINE
  8
0
 62
0
 10
-115.3
 20
-162.479019946
 30
0.0
 11
-115.3
 21
-168.8
 31
0.0
  0
ARC
  8
0
 62
0
 10
-98.3382162402
 20
-170.3
 30
0.0
 40
1.5
 50
2.0
 51
90.0
  0
LINE
  8
0
 62
0
 10
-96.75
 20
-172.8
 30
0.0
 11
-96.8391299996
 21
-170.247650755
 31
0.0
  0
LINE
  8
0
 62
0
 10
-86.75
 20
-172.8
 30
0.0
 11
-96.75
 21
-172.8
 31
0.0
  0
LINE
  8
0
 62
0
 10
-86.6608700004
 20
-170.247650755
 30
0.0
 11
-86.75
 21
-172.8
 31
0.0
  0
ARC
  8
0
 62
0
 10
-85.1617837598
 20
-170.3
 30
0.0
 40
1.5
 50
90.0
 51
178.0
  0
ARC
  8
0
 62
0
 10
-24.5882162402
 20
-170.3
 30
0.0
 40
1.5
 50
2.0
 51
90.0
  0
LINE
  8
0
 62
0
 10
-23.0
 20
-172.8
 30
0.0
 11
-23.0891299996
 21
-170.247650755
 31
0.0
  0
LINE
  8
0
 62
0
 10
-13.0
 20
-172.8
 30
0.0
 11
-23.0
 21
-172.8
 31
0.0
  0
LINE
  8
0
 62
0
 10
-12.9108700004
 20
-170.247650755
 30
0.0
 11
-13.0
 21
-172.8
 31
0.0
  0
ARC
  8
0
 62
0
 10
-11.4117837598
 20
-170.3
 30
0.0
 40
1.5
 50
90.0
 51
178.0
  0
LINE
  8
0
 62
0
 10
-1.5
 20
-168.8
 30
0.0
 11
-1.5
 21
-162.479019946
 31
0.0
  0
ARC
  8
0
 62
0
 10
-1.25
 20
-161.0
 30
0.0
 40
1.5
 50
-180.0
 51
-99.5940682269
  0
LINE
  8
0
 62
0
 10
-2.75
 20
-161.0
 30
0.0
 11
-2.75
 21
-159.6
 31
0.0
  0
ARC
  8
0
 62
0
 10
-1.25
 20
-159.6
 30
0.0
 40
1.5
 50
99.5940682269
 51
-180.0
  0
LINE
  8
0
 62
0
 10
-1.5
 20
-158.120980054
 30
0.0
 11
-1.3375095937
 21
-158.120980054
 31
0.0
  0
ARC
  8
0
 62
0
 10
-3.64985819346e-13
 20
-158.8
 30
0.0
 40
1.5
 50
26.9157580954
 51
153.084241905
  0
LINE
  8
0
 62
0
 10
1.5
 20
-158.120980054
 30
0.0
 11
1.3375095937
 21
-158.120980054
 31
0.0
  0
ARC
  8
0
 62
0
 10
1.25
 20
-159.6
 30
0.0
 40
1.5
 50
-0.0
 51
80.4059317731
  0
LINE
  8
0
 62
0
 10
2.75
 20
-161.0
 30
0.0
 11
2.75
 21
-159.6
 31
0.0
  0
ARC
  8
0
 62
0
 10
1.25
 20
-161.0
 30
0.0
 40
1.5
 50
-80.4059317731
 51
-0.0
  0
LINE
  8
0
 62
0
 10
1.5
 20
-168.8
 30
0.0
 11
1.5
 21
-162.479019946
 31
0.0
  0
ARC
  8
0
 62
0
 10
11.4117837598
 20
-170.3
 30
0.0
 40
1.5
 50
2.0
 51
90.0
  0
LINE
  8
0
 62
0
 10
12.9108700004
 20
-170.247650755
 30
0.0
 11
13.0
 21
-172.8
 31
0.0
  0
LINE
  8
0
 62
0
 10
13.0
 20
-172.8
 30
0.0
 11
23.0
 21
-172.8
 31
0.0
  0
LINE
  8
0
 62
0
 10
23.0
 20
-172.8
 30
0.0
 11
23.0891299996
 21
-170.247650755
 31
0.0
  0
ARC
  8
0
 62
0
 10
24.5882162402
 20
-170.3
 30
0.0
 40
1.5
 50
90.0
 51
178.0
  0
LINE
  8
0
 62
0
 10
24.5882162402
 20
-168.8
 30
0.0
 11
85.1617837598
 21
-168.8
 31
0.0
  0
ARC
  8
0
 62
0
 10
85.1617837598
 20
-170.3
 30
0.0
 40
1.5
 50
2.0
 51
90.0
  0
LINE
  8
0
 62
0
 10
86.6608700004
 20
-170.247650755
 30
0.0
 11
86.75
 21
-172.8
 31
0.0
  0
LINE
  8
0
 62
0
 10
86.75
 20
-172.8
 30
0.0
 11
96.75
 21
-172.8
 31
0.0
  0
LINE
  8
0
 62
0
 10
96.75
 20
-172.8
 30
0.0
 11
96.8391299996
 21
-170.247650755
 31
0.0
  0
ARC
  8
0
 62
0
 10
98.3382162402
 20
-170.3
 30
0.0
 40
1.5
 50
90.0
 51
178.0
  0
LINE
  8
0
 62
0
 10
98.3382162402
 20
-168.8
 30
0.0
 11
115.3
 21
-168.8
 31
0.0
  0
LINE
  8
0
 62
0
 10
115.3
 20
-162.479019946
 30
0.0
 11
115.3
 21
-168.8
 31
0.0
  0
ARC
  8
0
 62
0
 10
115.55
 20
-161.0
 30
0.0
 40
1.5
 50
-180.0
 51
-99.5940682269
  0
LINE
  8
0
 62
0
 10
114.05
 20
-159.6
 30
0.0
 11
114.05
 21
-161.0
 31
0.0
  0
ARC
  8
0
 62
0
 10
115.55
 20
-159.6
 30
0.0
 40
1.5
 50
99.5940682269
 51
180.0
  0
LINE
  8
0
 62
0
 10
115.462490406
 20
-158.120980054
 30
0.0
 11
115.3
 21
-158.120980054
 31
0.0
  0
ARC
  8
0
 62
0
 10
116.8
 20
-158.8
 30
0.0
 40
1.5
 50
26.9157580954
 51
153.084241905
  0
LINE
  8
0
 62
0
 10
118.3
 20
-158.120980054
 30
0.0
 11
118.137509594
 21
-158.120980054
 31
0.0
  0
ARC
  8
0
 62
0
 10
118.05
 20
-159.6
 30
0.0
 40
1.5
 50
-0.0
 51
80.4059317731
  0
LINE
  8
0
 62
0
 10
119.55
 20
-161.0
 30
0.0
 11
119.55
 21
-159.6
 31
0.0
  0
ARC
  8
0
 62
0
 10
118.05
 20
-161.0
 30
0.0
 40
1.5
 50
-80.4059317731
 51
0.0
  0
LINE
  8
0
 62
0
 10
118.3
 20
-168.8
 30
0.0
 11
118.3
 21
-162.479019946
 31
0.0
  0
LINE
  8
0
 62
0
 10
118.3
 20
-168.8
 30
0.0
 11
157.1
 21
-168.8
 31
0.0
  0
ARC
  8
0
 62
0
 10
157.1
 20
-162.8
 30
0.0
 40
6.0
 50
-90.0
 51
0.0
  0
LINE
  8
0
 62
0
 10
163.1
 20
-162.8
 30
0.0
 11
163.1
 21
-127.5
 31
0.0
  0
LINE
  8
0
 62
0
 10
156.779019946
 20
-127.5
 30
0.0
 11
163.1
 21
-127.5
 31
0.0
  0
ARC
  8
0
 62
0
 10
155.3
 20
-127.25
 30
0.0
 40
1.5
 50
-90.0
 51
-9.59406822686
  0
LINE
  8
0
 62
0
 10
153.9
 20
-128.75
 30
0.0
 11
155.3
 21
-128.75
 31
0.0
  0
ARC
  8
0
 62
0
 10
153.9
 20
-127.25
 30
0.0
 40
1.5
 50
-170.405931773
 51
-90.0
  0
LINE
  8
0
 62
0
 10
152.420980054
 20
-127.337509594
 30
0.0
 11
152.420980054
 21
-127.5
 31
0.0
  0
ARC
  8
0
 62
0
 10
153.1
 20
-126.0
 30
0.0
 40
1.5
 50
116.915758095
 51
-116.915758095
  0
LINE
  8
0
 62
0
 10
152.420980054
 20
-124.5
 30
0.0
 11
152.420980054
 21
-124.662490406
 31
0.0
  0
ARC
  8
0
 62
0
 10
153.9
 20
-124.75
 30
0.0
 40
1.5
 50
90.0
 51
170.405931773
  0
LINE
  8
0
 62
0
 10
155.3
 20
-123.25
 30
0.0
 11
153.9
 21
-123.25
 31
0.0
  0
ARC
  8
0
 62
0
 10
155.3
 20
-124.75
 30
0.0
 40
1.5
 50
9.59406822686
 51
90.0
  0
LINE
  8
0
 62
0
 10
163.1
 20
-124.5
 30
0.0
 11
156.779019946
 21
-124.5
 31
0.0
  0
LINE
  8
0
 62
0
 10
163.1
 20
-124.5
 30
0.0
 11
163.1
 21
-107.58821624
 31
0.0
  0
ARC
  8
0
 62
0
 10
164.6
 20
-107.58821624
 30
0.0
 40
1.5
 50
92.0
 51
180.0
  0
LINE
  8
0
 62
0
 10
164.547650755
 20
-106.08913
 30
0.0
 11
167.1
 21
-106.0
 31
0.0
  0
LINE
  8
0
 62
0
 10
167.1
 20
-106.0
 30
0.0
 11
167.1
 21
-96.0
 31
0.0
  0
LINE
  8
0
 62
0
 10
167.1
 20
-96.0
 30
0.0
 11
164.547650755
 21
-95.9108700004
 31
0.0
  0
ARC
  8
0
 62
0
 10
164.6
 20
-94.4117837598
 30
0.0
 40
1.5
 50
-180.0
 51
-92.0
  0
LINE
  8
0
 62
0
 10
163.1
 20
-94.4117837598
 30
0.0
 11
163.1
 21
-31.5882162402
 31
0.0
  0
ARC
  8
0
 62
0
 10
164.6
 20
-31.5882162402
 30
0.0
 40
1.5
 50
92.0
 51
180.0
  0
LINE
  8
0
 62
0
 10
164.547650755
 20
-30.0891299996
 30
0.0
 11
167.1
 21
-30.0
 31
0.0
  0
LINE
  8
0
 62
0
 10
167.1
 20
-30.0
 30
0.0
 11
167.1
 21
-20.0
 31
0.0
  0
LINE
  8
0
 62
0
 10
167.1
 20
-20.0
 30
0.0
 11
164.547650755
 21
-19.9108700004
 31
0.0
  0
ARC
  8
0
 62
0
 10
164.6
 20
-18.4117837598
 30
0.0
 40
1.5
 50
-180.0
 51
-92.0
  0
LINE
  8
0
 62
0
 10
163.1
 20
-18.4117837598
 30
0.0
 11
163.1
 21
-1.5
 31
0.0
  0
LINE
  8
0
 62
0
 10
156.779019946
 20
-1.5
 30
0.0
 11
163.1
 21
-1.5
 31
0.0
  0
ARC
  8
0
 62
0
 10
155.3
 20
-1.25
 30
0.0
 40
1.5
 50
-90.0
 51
-9.59406822686
  0
LINE
  8
0
 62
0
 10
153.9
 20
-2.75
 30
0.0
 11
155.3
 21
-2.75
 31
0.0
  0
ARC
  8
0
 62
0
 10
153.9
 20
-1.25
 30
0.0
 40
1.5
 50
-170.405931773
 51
-90.0
  0
LINE
  8
0
 62
0
 10
152.420980054
 20
-1.3375095937
 30
0.0
 11
152.420980054
 21
-1.5
 31
0.0
  0
ARC
  8
0
 62
0
 10
153.1
 20
1.27675647832e-15
 30
0.0
 40
1.5
 50
116.915758095
 51
-116.915758095
  0
LINE
  8
0
 62
0
 10
152.420980054
 20
1.5
 30
0.0
 11
152.420980054
 21
1.3375095937
 31
0.0
  0
ARC
  8
0
 62
0
 10
153.9
 20
1.25
 30
0.0
 40
1.5
 50
90.0
 51
170.405931773
  0
LINE
  8
0
 62
0
 10
155.3
 20
2.75
 30
0.0
 11
153.9
 21
2.75
 31
0.0
  0
ARC
  8
0
 62
0
 10
155.3
 20
1.25
 30
0.0
 40
1.5
 50
9.59406822686
 51
90.0
  0
LINE
  8
0
 62
0
 10
163.1
 20
1.5
 30
0.0
 11
156.779019946
 21
1.5
 31
0.0
  0
LINE
  8
0
 62
0
 10
163.1
 20
1.5
 30
0.0
 11
163.1
 21
18.4117837598
 31
0.0
  0
ARC
  8
0
 62
0
 10
164.6
 20
18.4117837598
 30
0.0
 40
1.5
 50
92.0
 51
180.0
  0
LINE
  8
0
 62
0
 10
164.547650755
 20
19.9108700004
 30
0.0
 11
167.1
 21
20.0
 31
0.0
  0
LINE
  8
0
 62
0
 10
167.1
 20
20.0
 30
0.0
 11
167.1
 21
30.0
 31
0.0
  0
LINE
  8
0
 62
0
 10
167.1
 20
30.0
 30
0.0
 11
164.547650755
 21
30.0891299996
 31
0.0
  0
ARC
  8
0
 62
0
 10
164.6
 20
31.5882162402
 30
0.0
 40
1.5
 50
-180.0
 51
-92.0
  0
LINE
  8
0
 62
0
 10
163.1
 20
31.5882162402
 30
0.0
 11
163.1
 21
94.4117837598
 31
0.0
  0
ARC
  8
0
 62
0
 10
164.6
 20
94.4117837598
 30
0.0
 40
1.5
 50
92.0
 51
180.0
  0
LINE
  8
0
 62
0
 10
164.547650755
 20
95.9108700004
 30
0.0
 11
167.1
 21
96.0
 31
0.0
  0
LINE
  8
0
 62
0
 10
167.1
 20
96.0
 30
0.0
 11
167.1
 21
106.0
 31
0.0
  0
LINE
  8
0
 62
0
 10
167.1
 20
106.0
 30
0.0
 11
164.547650755
 21
106.08913
 31
0.0
  0
ARC
  8
0
 62
0
 10
164.6
 20
107.58821624
 30
0.0
 40
1.5
 50
-180.0
 51
-92.0
  0
LINE
  8
0
 62
0
 10
163.1
 20
107.58821624
 30
0.0
 11
163.1
 21
124.5
 31
0.0
  0
LINE
  8
0
 62
0
 10
156.779019946
 20
124.5
 30
0.0
 11
163.1
 21
124.5
 31
0.0
  0
ARC
  8
0
 62
0
 10
155.3
 20
124.75
 30
0.0
 40
1.5
 50
-90.0
 51
-9.59406822686
  0
LINE
  8
0
 62
0
 10
153.9
 20
123.25
 30
0.0
 11
155.3
 21
123.25
 31
0.0
  0
ARC
  8
0
 62
0
 10
153.9
 20
124.75
 30
0.0
 40
1.5
 50
-170.405931773
 51
-90.0
  0
LINE
  8
0
 62
0
 10
152.420980054
 20
124.662490406
 30
0.0
 11
152.420980054
 21
124.5
 31
0.0
  0
ARC
  8
0
 62
0
 10
153.1
 20
126.0
 30
0.0
 40
1.5
 50
116.915758095
 51
-116.915758095
  0
LINE
  8
0
 62
0
 10
152.420980054
 20
127.5
 30
0.0
 11
152.420980054
 21
127.337509594
 31
0.0
  0
ARC
  8
0
 62
0
 10
153.9
 20
127.25
 30
0.0
 40
1.5
 50
90.0
 51
170.405931773
  0
LINE
  8
0
 62
0
 10
155.3
 20
128.75
 30
0.0
 11
153.9
 21
128.75
 31
0.0
  0
ARC
  8
0
 62
0
 10
155.3
 20
127.25
 30
0.0
 40
1.5
 50
9.59406822686
 51
90.0
  0
LINE
  8
0
 62
0
 10
163.1
 20
127.5
 30
0.0
 11
156.779019946
 21
127.5
 31
0.0
  0
LINE
  8
0
 62
0
 10
163.1
 20
127.5
 30
0.0
 11
163.1
 21
162.8
 31
0.0
  0
ARC
  8
0
 62
0
 10
157.1
 20
162.8
 30
0.0
 40
6.0
 50
-0.0
 51
90.0
  0
LINE
  8
0
 62
0
 10
157.1
 20
168.8
 30
0.0
 11
118.3
 21
168.8
 31
0.0
  0
LINE
  8
0
 62
0
 10
118.3
 20
162.479019946
 30
0.0
 11
118.3
 21
168.8
 31
0.0
  0
ARC
  8
0
 62
0
 10
118.05
 20
161.0
 30
0.0
 40
1.5
 50
-0.0
 51
80.4059317731
  0
LINE
  8
0
 62
0
 10
119.55
 20
159.6
 30
0.0
 11
119.55
 21
161.0
 31
0.0
  0
ARC
  8
0
 62
0
 10
118.05
 20
159.6
 30
0.0
 40
1.5
 50
-80.4059317731
 51
-0.0
  0
LINE
  8
0
 62
0
 10
118.137509594
 20
158.120980054
 30
0.0
 11
118.3
 21
158.120980054
 31
0.0
  0
ARC
  8
0
 62
0
 10
116.8
 20
158.8
 30
0.0
 40
1.5
 50
-153.084241905
 51
-26.9157580954
  0
LINE
  8
0
 62
0
 10
115.3
 20
158.120980054
 30
0.0
 11
115.462490406
 21
158.120980054
 31
0.0
  0
ARC
  8
0
 62
0
 10
115.55
 20
159.6
 30
0.0
 40
1.5
 50
-180.0
 51
-99.5940682269
  0
LINE
  8
0
 62
0
 10
114.05
 20
161.0
 30
0.0
 11
114.05
 21
159.6
 31
0.0
  0
ARC
  8
0
 62
0
 10
115.55
 20
161.0
 30
0.0
 40
1.5
 50
99.5940682269
 51
-180.0
  0
LINE
  8
0
 62
0
 10
115.3
 20
168.8
 30
0.0
 11
115.3
 21
162.479019946
 31
0.0
  0
LINE
  8
0
 62
0
 10
115.3
 20
168.8
 30
0.0
 11
98.3382162402
 21
168.8
 31
0.0
  0
ARC
  8
0
 62
0
 10
98.3382162402
 20
170.3
 30
0.0
 40
1.5
 50
-178.0
 51
-90.0
  0
LINE
  8
0
 62
0
 10
96.8391299996
 20
170.247650755
 30
0.0
 11
96.75
 21
172.8
 31
0.0
  0
LINE
  8
0
 62
0
 10
96.75
 20
172.8
 30
0.0
 11
86.75
 21
172.8
 31
0.0
  0
LINE
  8
0
 62
0
 10
86.75
 20
172.8
 30
0.0
 11
86.6608700004
 21
170.247650755
 31
0.0
  0
ARC
  8
0
 62
0
 10
85.1617837598
 20
170.3
 30
0.0
 40
1.5
 50
-90.0
 51
-2.0
  0
LINE
  8
0
 62
0
 10
85.1617837598
 20
168.8
 30
0.0
 11
59.9
 21
168.8
 31
0.0
  0
LINE
  8
0
 62
0
 10
59.9
 20
162.479019946
 30
0.0
 11
59.9
 21
168.8
 31
0.0
  0
ARC
  8
0
 62
0
 10
59.65
 20
161.0
 30
0.0
 40
1.5
 50
0.0
 51
80.4059317731
  0
LINE
  8
0
 62
0
 10
61.15
 20
159.6
 30
0.0
 11
61.15
 21
161.0
 31
0.0
  0
ARC
  8
0
 62
0
 10
59.65
 20
159.6
 30
0.0
 40
1.5
 50
-80.4059317731
 51
0.0
  0
LINE
  8
0
 62
0
 10
59.7375095937
 20
158.120980054
 30
0.0
 11
59.9
 21
158.120980054
 31
0.0
  0
ARC
  8
0
 62
0
 10
58.4
 20
158.8
 30
0.0
 40
1.5
 50
-153.084241905
 51
-26.9157580954
  0
LINE
  8
0
 62
0
 10
56.9
 20
158.120980054
 30
0.0
 11
57.0624904063
 21
158.120980054
 31
0.0
  0
ARC
  8
0
 62
0
 10
57.15
 20
159.6
 30
0.0
 40
1.5
 50
-180.0
 51
-99.5940682269
  0
LINE
  8
0
 62
0
 10
55.65
 20
161.0
 30
0.0
 11
55.65
 21
159.6
 31
0.0
  0
ARC
  8
0
 62
0
 10
57.15
 20
161.0
 30
0.0
 40
1.5
 50
99.5940682269
 51
-180.0
  0
LINE
  8
0
 62
0
 10
56.9
 20
168.8
 30
0.0
 11
56.9
 21
162.479019946
 31
0.0
  0
LINE
  8
0
 62
0
 10
56.9
 20
168.8
 30
0.0
 11
31.5882162402
 21
168.8
 31
0.0
  0
ARC
  8
0
 62
0
 10
31.5882162402
 20
170.3
 30
0.0
 40
1.5
 50
-178.0
 51
-90.0
  0
LINE
  8
0
 62
0
 10
30.0891299996
 20
170.247650755
 30
0.0
 11
30.0
 21
172.8
 31
0.0
  0
LINE
  8
0
 62
0
 10
30.0
 20
172.8
 30
0.0
 11
20.0
 21
172.8
 31
0.0
  0
LINE
  8
0
 62
0
 10
20.0
 20
172.8
 30
0.0
 11
19.9108700004
 21
170.247650755
 31
0.0
  0
ARC
  8
0
 62
0
 10
18.4117837598
 20
170.3
 30
0.0
 40
1.5
 50
-90.0
 51
-2.0
  0
ARC
  8
0
 62
0
 10
-18.4117837598
 20
170.3
 30
0.0
 40
1.5
 50
-178.0
 51
-90.0
  0
LINE
  8
0
 62
0
 10
-20.0
 20
172.8
 30
0.0
 11
-19.9108700004
 21
170.247650755
 31
0.0
  0
LINE
  8
0
 62
0
 10
-30.0
 20
172.8
 30
0.0
 11
-20.0
 21
172.8
 31
0.0
  0
LINE
  8
0
 62
0
 10
-30.0891299996
 20
170.247650755
 30
0.0
 11
-30.0
 21
172.8
 31
0.0
  0
ARC
  8
0
 62
0
 10
-31.5882162402
 20
170.3
 30
0.0
 40
1.5
 50
-90.0
 51
-2.0
  0
LINE
  8
0
 62
0
 10
-56.9
 20
168.8
 30
0.0
 11
-56.9
 21
162.479019946
 31
0.0
  0
ARC
  8
0
 62
0
 10
-57.15
 20
161.0
 30
0.0
 40
1.5
 50
-0.0
 51
80.4059317731
  0
LINE
  8
0
 62
0
 10
-55.65
 20
161.0
 30
0.0
 11
-55.65
 21
159.6
 31
0.0
  0
ARC
  8
0
 62
0
 10
-57.15
 20
159.6
 30
0.0
 40
1.5
 50
-80.4059317731
 51
-0.0
  0
LINE
  8
0
 62
0
 10
-56.9
 20
158.120980054
 30
0.0
 11
-57.0624904063
 21
158.120980054
 31
0.0
  0
ARC
  8
0
 62
0
 10
-58.4
 20
158.8
 30
0.0
 40
1.5
 50
-153.084241905
 51
-26.9157580954
  0
LINE
  8
0
 62
0
 10
-59.7375095937
 20
158.120980054
 30
0.0
 11
-59.9
 21
158.120980054
 31
0.0
  0
ARC
  8
0
 62
0
 10
-59.65
 20
159.6
 30
0.0
 40
1.5
 50
180.0
 51
-99.5940682269
  0
LINE
  8
0
 62
0
 10
-61.15
 20
159.6
 30
0.0
 11
-61.15
 21
161.0
 31
0.0
  0
ARC
  8
0
 62
0
 10
-59.65
 20
161.0
 30
0.0
 40
1.5
 50
99.5940682269
 51
180.0
  0
CIRCLE
  8
0
 62
0
 10
-80.0
 20
148.0
 30
0.0
 40
6.0
  0
CIRCLE
  8
0
 62
0
 10
80.0
 20
148.0
 30
0.0
 40
6.0
  0
LINE
  8
0
 62
0
 10
129.15
 20
125.191727153
 30
0.0
 11
-129.15
 21
125.191727153
 31
0.0
  0
ARC
  8
0
 62
0
 10
-129.15
 20
119.191727153
 30
0.0
 40
6.0
 50
90.0
 51
-180.0
  0
LINE
  8
0
 62
0
 10
-135.15
 20
119.191727153
 30
0.0
 11
-135.15
 21
-139.06
 31
0.0
  0
ARC
  8
0
 62
0
 10
-129.15
 20
-139.06
 30
0.0
 40
6.0
 50
-180.0
 51
-90.0
  0
LINE
  8
0
 62
0
 10
-129.15
 20
-145.06
 30
0.0
 11
129.15
 21
-145.06
 31
0.0
  0
ARC
  8
0
 62
0
 10
-115.55
 20
-161.0
 30
0.0
 40
1.5
 50
-80.4059317731
 51
-0.0
  0
ARC
  8
0
 62
0
 10
-118.05
 20
-161.0
 30
0.0
 40
1.5
 50
180.0
 51
-99.5940682269
  0
ARC
  8
0
 62
0
 10
1.25
 20
-159.6
 30
0.0
 40
1.5
 50
-0.0
 51
80.4059317731
  0
ARC
  8
0
 62
0
 10
-1.25
 20
-159.6
 30
0.0
 40
1.5
 50
99.5940682269
 51
-180.0
  0
ARC
  8
0
 62
0
 10
-155.3
 20
-124.75
 30
0.0
 40
1.5
 50
90.0
 51
170.405931773
  0
ARC
  8
0
 62
0
 10
-153.9
 20
-1.25
 30
0.0
 40
1.5
 50
-90.0
 51
-9.59406822686
  0
ARC
  8
0
 62
0
 10
-153.9
 20
124.75
 30
0.0
 40
1.5
 50
-90.0
 51
-9.59406822686
  0
ARC
  8
0
 62
0
 10
-153.9
 20
127.25
 30
0.0
 40
1.5
 50
9.59406822686
 51
90.0
  0
ARC
  8
0
 62
0
 10
-155.3
 20
127.25
 30
0.0
 40
1.5
 50
90.0
 51
170.405931773
  0
ARC
  8
0
 62
0
 10
-118.05
 20
161.0
 30
0.0
 40
1.5
 50
99.5940682269
 51
-180.0
  0
ARC
  8
0
 62
0
 10
-116.8
 20
158.8
 30
0.0
 40
1.5
 50
-153.084241905
 51
-26.9157580954
  0
ARC
  8
0
 62
0
 10
-58.4
 20
158.8
 30
0.0
 40
1.5
 50
-153.084241905
 51
-26.9157580954
  0
ARC
  8
0
 62
0
 10
-57.15
 20
161.0
 30
0.0
 40
1.5
 50
-0.0
 51
80.4059317731
  0
LINE
  8
0
 62
0
 10
163.1
 20
1.5
 30
0.0
 11
163.1
 21
-1.5
 31
0.0
  0
LINE
  8
0
 62
0
 10
163.1
 20
127.5
 30
0.0
 11
163.1
 21
124.5
 31
0.0
  0
LINE
  8
0
 62
0
 10
163.1
 20
-124.5
 30
0.0
 11
163.1
 21
-127.5
 31
0.0
  0
LINE
  8
0
 62
0
 10
56.9
 20
168.8
 30
0.0
 11
59.9
 21
168.8
 31
0.0
  0
LINE
  8
0
 62
0
 10
115.3
 20
168.8
 30
0.0
 11
118.3
 21
168.8
 31
0.0
  0
LINE
  8
0
 62
0
 10
118.3
 20
-168.8
 30
0.0
 11
115.3
 21
-168.8
 31
0.0
  0
ARC
  8
0
 62
0
 10
129.15
 20
119.191727153
 30
0.0
 40
6.0
 50
0.0
 51
90.0
  0
LINE
  8
0
 62
0
 10
135.15
 20
-139.06
 30
0.0
 11
135.15
 21
119.191727153
 31
0.0
  0
ARC
  8
0
 62
0
 10
129.15
 20
-139.06
 30
0.0
 40
6.0
 50
-90.0
 51
-0.0
  0
ARC
  8
0
 62
0
 10
155.3
 20
-124.75
 30
0.0
 40
1.5
 50
9.59406822686
 51
90.0
  0
ARC
  8
0
 62
0
 10
118.05
 20
161.0
 30
0.0
 40
1.5
 50
-0.0
 51
80.4059317731
  0
ARC
  8
0
 62
0
 10
116.8
 20
158.8
 30
0.0
 40
1.5
 50
-153.084241905
 51
-26.9157580954
  0
ARC
  8
0
 62
0
 10
58.4
 20
158.8
 30
0.0
 40
1.5
 50
-153.084241905
 51
-26.9157580954
  0
ARC
  8
0
 62
0
 10
57.15
 20
161.0
 30
0.0
 40
1.5
 50
99.5940682269
 51
-180.0
  0
LINE
  8
0
 62
0
 10
129.15
 20
125.691727153
 30
0.0
 11
129.15
 21
125.191727153
 31
0.0
  0
LINE
  8
0
 62
0
 10
-129.15
 20
125.191727153
 30
0.0
 11
-129.15
 21
125.691727153
 31
0.0
  0
LINE
  8
0
 62
0
 10
-135.15
 20
119.191727153
 30
0.0
 11
-135.65
 21
119.191727153
 31
0.0
  0
LINE
  8
0
 62
0
 10
135.65
 20
119.191727153
 30
0.0
 11
135.15
 21
119.191727153
 31
0.0
  0
LINE
  8
0
 62
0
 10
-135.15
 20
-139.06
 30
0.0
 11
-135.65
 21
-139.06
 31
0.0
  0
LINE
  8
0
 62
0
 10
135.65
 20
-139.06
 30
0.0
 11
135.15
 21
-139.06
 31
0.0
  0
LINE
  8
0
 62
0
 10
-129.15
 20
-145.06
 30
0.0
 11
-129.15
 21
-145.56
 31
0.0
  0
LINE
  8
0
 62
0
 10
129.15
 20
-145.56
 30
0.0
 11
129.15
 21
-145.06
 31
0.0
  0
ENDBLK
  0
ENDSEC
  0
SECTION
  2
ENTITIES
  0
INSERT
  2
PART__FEATURE
  8
0
 62
0
 10
0.0
 20
0.0
 30
0.0
  0
ENDSEC
  0
EOF
