  0
SECTION
  2
HEADER
  9
$ACADVER
  1
AC1009
  9
$INSBASE
 10
0.0
 20
0.0
 30
0.0
  9
$EXTMIN
 10
0.0
 20
0.0
 30
0.0
  9
$EXTMAX
 10
0.0
 20
0.0
 30
0.0
  0
ENDSEC
  0
SECTION
  2
TABLES
  0
TABLE
  2
VPORT
 70
0
  0
ENDTAB
  0
TABLE
  2
LTYPE
 70
1
  0
LTYPE
  2
CONTINUOUS
 70
0
  3
Solid line
 72
65
 73
0
 40
0.0
  0
ENDTAB
  0
TABLE
  2
LAYER
 70
1
  0
LAYER
  2
0
 70
64
 62
7
  6
continuous
  0
ENDTAB
  0
TABLE
  2
STYLE
 70
1
  0
STYLE
  2
STANDARD
 70
0
 40
0
 41
1.0
 50
0.0
 71
0
 42
1
 3
ARIAL.TTF
 4

  0
ENDTAB
  0
TABLE
  2
VIEW
 70
0
  0
ENDTAB
  0
ENDSEC
  0
SECTION
  2
BLOCKS
  0
BLOCK
  8
0
  2
PART__FEATURE
 70
0
 10
0.0
 20
0.0
 30
0.0
  3
PART__FEATURE
  0
CIRCLE
  8
0
 62
0
 10
152.3
 20
171.0
 30
0.0
 40
4.25
  0
CIRCLE
  8
0
 62
0
 10
-131.2
 20
171.0
 30
0.0
 40
4.25
  0
ARC
  8
0
 62
0
 10
-130.145033508
 20
-192.499576825
 30
0.0
 40
9.0
 50
90.0
 51
140.0
  0
LINE
  8
0
 62
0
 10
-130.145033508
 20
-183.499576825
 30
0.0
 11
130.145033508
 21
-183.499576825
 31
0.0
  0
ARC
  8
0
 62
0
 10
130.145033508
 20
-192.499576825
 30
0.0
 40
9.0
 50
40.0
 51
90.0
  0
LINE
  8
0
 62
0
 10
137.039433496
 20
-186.714488338
 30
0.0
 11
140.335259549
 21
-190.642300877
 31
0.0
  0
ARC
  8
0
 62
0
 10
146.463615094
 20
-185.5
 30
0.0
 40
8.0
 50
-140.0
 51
-90.0
  0
LINE
  8
0
 62
0
 10
146.463615094
 20
-193.5
 30
0.0
 11
172.5
 21
-193.5
 31
0.0
  0
ARC
  8
0
 62
0
 10
172.5
 20
-188.0
 30
0.0
 40
5.5
 50
-90.0
 51
-0.0
  0
LINE
  8
0
 62
0
 10
178.0
 20
-188.0
 30
0.0
 11
178.0
 21
177.999576825
 31
0.0
  0
ARC
  8
0
 62
0
 10
172.5
 20
177.999576825
 30
0.0
 40
5.5
 50
0.0
 51
90.0
  0
LINE
  8
0
 62
0
 10
172.5
 20
183.499576825
 30
0.0
 11
146.463615094
 21
183.499576825
 31
0.0
  0
ARC
  8
0
 62
0
 10
146.463615094
 20
192.499576825
 30
0.0
 40
9.0
 50
-140.0
 51
-90.0
  0
LINE
  8
0
 62
0
 10
139.569215106
 20
186.714488338
 30
0.0
 11
136.273389053
 21
190.642300877
 31
0.0
  0
ARC
  8
0
 62
0
 10
130.145033508
 20
185.5
 30
0.0
 40
8.0
 50
40.0
 51
90.0
  0
LINE
  8
0
 62
0
 10
130.145033508
 20
193.5
 30
0.0
 11
-130.145033508
 21
193.5
 31
0.0
  0
ARC
  8
0
 62
0
 10
-130.145033508
 20
185.5
 30
0.0
 40
8.0
 50
90.0
 51
140.0
  0
LINE
  8
0
 62
0
 10
-136.273389053
 20
190.642300877
 30
0.0
 11
-139.569215106
 21
186.714488338
 31
0.0
  0
ARC
  8
0
 62
0
 10
-146.463615094
 20
192.499576825
 30
0.0
 40
9.0
 50
-90.0
 51
-40.0
  0
LINE
  8
0
 62
0
 10
-146.463615094
 20
183.499576825
 30
0.0
 11
-172.5
 21
183.499576825
 31
0.0
  0
ARC
  8
0
 62
0
 10
-172.5
 20
177.999576825
 30
0.0
 40
5.5
 50
90.0
 51
180.0
  0
LINE
  8
0
 62
0
 10
-178.0
 20
177.999576825
 30
0.0
 11
-178.0
 21
-188.0
 31
0.0
  0
ARC
  8
0
 62
0
 10
-172.5
 20
-188.0
 30
0.0
 40
5.5
 50
-180.0
 51
-90.0
  0
LINE
  8
0
 62
0
 10
-172.5
 20
-193.5
 30
0.0
 11
-146.463615094
 21
-193.5
 31
0.0
  0
ARC
  8
0
 62
0
 10
-146.463615094
 20
-185.5
 30
0.0
 40
8.0
 50
-90.0
 51
-40.0
  0
LINE
  8
0
 62
0
 10
-140.335259549
 20
-190.642300877
 30
0.0
 11
-137.039433496
 21
-186.714488338
 31
0.0
  0
LINE
  8
0
 62
0
 10
-120.5
 20
-102.25
 30
0.0
 11
-117.5
 21
-102.25
 31
0.0
  0
ARC
  8
0
 62
0
 10
-117.5
 20
-104.0
 30
0.0
 40
1.75
 50
-90.0
 51
90.0
  0
LINE
  8
0
 62
0
 10
-117.5
 20
-105.75
 30
0.0
 11
-120.5
 21
-105.75
 31
0.0
  0
ARC
  8
0
 62
0
 10
-120.5
 20
-104.0
 30
0.0
 40
1.75
 50
90.0
 51
-90.0
  0
ARC
  8
0
 62
0
 10
-131.2
 20
171.0
 30
0.0
 40
8.0
 50
-0.0
 51
-180.0
  0
ARC
  8
0
 62
0
 10
-131.2
 20
171.0
 30
0.0
 40
8.0
 50
-180.0
 51
-0.0
  0
CIRCLE
  8
0
 62
0
 10
0.0
 20
185.45
 30
0.0
 40
1.6
  0
CIRCLE
  8
0
 62
0
 10
0.0
 20
-148.55
 30
0.0
 40
1.6
  0
CIRCLE
  8
0
 62
0
 10
-170.25
 20
-124.3
 30
0.0
 40
1.6
  0
CIRCLE
  8
0
 62
0
 10
-170.25
 20
7.6
 30
0.0
 40
1.6
  0
CIRCLE
  8
0
 62
0
 10
-170.25
 20
141.7
 30
0.0
 40
1.6
  0
CIRCLE
  8
0
 62
0
 10
-126.0
 20
185.45
 30
0.0
 40
1.6
  0
CIRCLE
  8
0
 62
0
 10
-126.0
 20
-148.55
 30
0.0
 40
1.6
  0
ARC
  8
0
 62
0
 10
-106.0
 20
187.0
 30
0.0
 40
3.1
 50
90.0
 51
-90.0
  0
LINE
  8
0
 62
0
 10
-96.0
 20
190.1
 30
0.0
 11
-106.0
 21
190.1
 31
0.0
  0
ARC
  8
0
 62
0
 10
-96.0
 20
187.0
 30
0.0
 40
3.1
 50
-90.0
 51
90.0
  0
LINE
  8
0
 62
0
 10
-106.0
 20
183.9
 30
0.0
 11
-96.0
 21
183.9
 31
0.0
  0
ARC
  8
0
 62
0
 10
-171.8
 20
111.7
 30
0.0
 40
3.1
 50
-180.0
 51
-0.0
  0
LINE
  8
0
 62
0
 10
-174.9
 20
121.7
 30
0.0
 11
-174.9
 21
111.7
 31
0.0
  0
ARC
  8
0
 62
0
 10
-171.8
 20
121.7
 30
0.0
 40
3.1
 50
0.0
 51
180.0
  0
LINE
  8
0
 62
0
 10
-168.7
 20
111.7
 30
0.0
 11
-168.7
 21
121.7
 31
0.0
  0
ARC
  8
0
 62
0
 10
-171.8
 20
27.5
 30
0.0
 40
3.1
 50
-180.0
 51
-0.0
  0
LINE
  8
0
 62
0
 10
-174.9
 20
37.5
 30
0.0
 11
-174.9
 21
27.5
 31
0.0
  0
ARC
  8
0
 62
0
 10
-171.8
 20
37.5
 30
0.0
 40
3.1
 50
-0.0
 51
-180.0
  0
LINE
  8
0
 62
0
 10
-168.7
 20
27.5
 30
0.0
 11
-168.7
 21
37.5
 31
0.0
  0
ARC
  8
0
 62
0
 10
-171.8
 20
-22.5
 30
0.0
 40
3.1
 50
-180.0
 51
-0.0
  0
LINE
  8
0
 62
0
 10
-174.9
 20
-12.5
 30
0.0
 11
-174.9
 21
-22.5
 31
0.0
  0
ARC
  8
0
 62
0
 10
-171.8
 20
-12.5
 30
0.0
 40
3.1
 50
0.0
 51
180.0
  0
LINE
  8
0
 62
0
 10
-168.7
 20
-22.5
 30
0.0
 11
-168.7
 21
-12.5
 31
0.0
  0
ARC
  8
0
 62
0
 10
-171.8
 20
-104.2
 30
0.0
 40
3.1
 50
-180.0
 51
-0.0
  0
LINE
  8
0
 62
0
 10
-174.9
 20
-94.2
 30
0.0
 11
-174.9
 21
-104.2
 31
0.0
  0
ARC
  8
0
 62
0
 10
-171.8
 20
-94.2
 30
0.0
 40
3.1
 50
-0.0
 51
-180.0
  0
LINE
  8
0
 62
0
 10
-168.7
 20
-104.2
 30
0.0
 11
-168.7
 21
-94.2
 31
0.0
  0
ARC
  8
0
 62
0
 10
-96.0
 20
-147.0
 30
0.0
 40
3.1
 50
-90.0
 51
90.0
  0
LINE
  8
0
 62
0
 10
-106.0
 20
-150.1
 30
0.0
 11
-96.0
 21
-150.1
 31
0.0
  0
ARC
  8
0
 62
0
 10
-106.0
 20
-147.0
 30
0.0
 40
3.1
 50
90.0
 51
-90.0
  0
LINE
  8
0
 62
0
 10
-96.0
 20
-143.9
 30
0.0
 11
-106.0
 21
-143.9
 31
0.0
  0
ARC
  8
0
 62
0
 10
-142.0
 20
-147.0
 30
0.0
 40
3.1
 50
-90.0
 51
90.0
  0
LINE
  8
0
 62
0
 10
-152.0
 20
-150.1
 30
0.0
 11
-142.0
 21
-150.1
 31
0.0
  0
ARC
  8
0
 62
0
 10
-152.0
 20
-147.0
 30
0.0
 40
3.1
 50
90.0
 51
-90.0
  0
LINE
  8
0
 62
0
 10
-142.0
 20
-143.9
 30
0.0
 11
-152.0
 21
-143.9
 31
0.0
  0
ARC
  8
0
 62
0
 10
-30.0
 20
187.0
 30
0.0
 40
3.1
 50
90.0
 51
-90.0
  0
LINE
  8
0
 62
0
 10
-20.0
 20
190.1
 30
0.0
 11
-30.0
 21
190.1
 31
0.0
  0
ARC
  8
0
 62
0
 10
-20.0
 20
187.0
 30
0.0
 40
3.1
 50
-90.0
 51
90.0
  0
ARC
  8
0
 62
0
 10
-21.5
 20
183.9
 30
0.0
 40
1.5
 50
-90.0
 51
0.0
  0
LINE
  8
0
 62
0
 10
-28.5
 20
182.4
 30
0.0
 11
-21.5
 21
182.4
 31
0.0
  0
ARC
  8
0
 62
0
 10
-28.5
 20
183.9
 30
0.0
 40
1.5
 50
180.0
 51
-90.0
  0
ARC
  8
0
 62
0
 10
-171.8
 20
161.7
 30
0.0
 40
3.1
 50
-180.0
 51
-0.0
  0
LINE
  8
0
 62
0
 10
-174.9
 20
171.7
 30
0.0
 11
-174.9
 21
161.7
 31
0.0
  0
ARC
  8
0
 62
0
 10
-171.8
 20
171.7
 30
0.0
 40
3.1
 50
-0.0
 51
-180.0
  0
ARC
  8
0
 62
0
 10
-168.7
 20
170.2
 30
0.0
 40
1.5
 50
-0.0
 51
90.0
  0
LINE
  8
0
 62
0
 10
-167.2
 20
163.2
 30
0.0
 11
-167.2
 21
170.2
 31
0.0
  0
ARC
  8
0
 62
0
 10
-168.7
 20
163.2
 30
0.0
 40
1.5
 50
-90.0
 51
0.0
  0
ARC
  8
0
 62
0
 10
-171.8
 20
-154.2
 30
0.0
 40
3.1
 50
-180.0
 51
-0.0
  0
LINE
  8
0
 62
0
 10
-174.9
 20
-144.2
 30
0.0
 11
-174.9
 21
-154.2
 31
0.0
  0
ARC
  8
0
 62
0
 10
-171.8
 20
-144.2
 30
0.0
 40
3.1
 50
0.0
 51
180.0
  0
ARC
  8
0
 62
0
 10
-168.7
 20
-145.7
 30
0.0
 40
1.5
 50
-0.0
 51
90.0
  0
LINE
  8
0
 62
0
 10
-167.2
 20
-152.7
 30
0.0
 11
-167.2
 21
-145.7
 31
0.0
  0
ARC
  8
0
 62
0
 10
-168.7
 20
-152.7
 30
0.0
 40
1.5
 50
-90.0
 51
0.0
  0
ARC
  8
0
 62
0
 10
-30.0
 20
-147.0
 30
0.0
 40
3.1
 50
90.0
 51
-90.0
  0
LINE
  8
0
 62
0
 10
-20.0
 20
-143.9
 30
0.0
 11
-30.0
 21
-143.9
 31
0.0
  0
ARC
  8
0
 62
0
 10
-20.0
 20
-147.0
 30
0.0
 40
3.1
 50
-90.0
 51
90.0
  0
ARC
  8
0
 62
0
 10
-21.5
 20
-150.1
 30
0.0
 40
1.5
 50
-90.0
 51
0.0
  0
LINE
  8
0
 62
0
 10
-28.5
 20
-151.6
 30
0.0
 11
-21.5
 21
-151.6
 31
0.0
  0
ARC
  8
0
 62
0
 10
-28.5
 20
-150.1
 30
0.0
 40
1.5
 50
180.0
 51
-90.0
  0
CIRCLE
  8
0
 62
0
 10
170.25
 20
-124.3
 30
0.0
 40
1.6
  0
CIRCLE
  8
0
 62
0
 10
170.25
 20
7.6
 30
0.0
 40
1.6
  0
CIRCLE
  8
0
 62
0
 10
170.25
 20
141.7
 30
0.0
 40
1.6
  0
CIRCLE
  8
0
 62
0
 10
126.0
 20
185.45
 30
0.0
 40
1.6
  0
CIRCLE
  8
0
 62
0
 10
126.0
 20
-148.55
 30
0.0
 40
1.6
  0
ARC
  8
0
 62
0
 10
106.0
 20
187.0
 30
0.0
 40
3.1
 50
-90.0
 51
90.0
  0
LINE
  8
0
 62
0
 10
106.0
 20
183.9
 30
0.0
 11
96.0
 21
183.9
 31
0.0
  0
ARC
  8
0
 62
0
 10
96.0
 20
187.0
 30
0.0
 40
3.1
 50
90.0
 51
-90.0
  0
LINE
  8
0
 62
0
 10
96.0
 20
190.1
 30
0.0
 11
106.0
 21
190.1
 31
0.0
  0
ARC
  8
0
 62
0
 10
171.8
 20
111.7
 30
0.0
 40
3.1
 50
-180.0
 51
-0.0
  0
LINE
  8
0
 62
0
 10
168.7
 20
111.7
 30
0.0
 11
168.7
 21
121.7
 31
0.0
  0
ARC
  8
0
 62
0
 10
171.8
 20
121.7
 30
0.0
 40
3.1
 50
0.0
 51
180.0
  0
LINE
  8
0
 62
0
 10
174.9
 20
121.7
 30
0.0
 11
174.9
 21
111.7
 31
0.0
  0
ARC
  8
0
 62
0
 10
171.8
 20
27.5
 30
0.0
 40
3.1
 50
-180.0
 51
-0.0
  0
LINE
  8
0
 62
0
 10
168.7
 20
27.5
 30
0.0
 11
168.7
 21
37.5
 31
0.0
  0
ARC
  8
0
 62
0
 10
171.8
 20
37.5
 30
0.0
 40
3.1
 50
-0.0
 51
-180.0
  0
LINE
  8
0
 62
0
 10
174.9
 20
37.5
 30
0.0
 11
174.9
 21
27.5
 31
0.0
  0
ARC
  8
0
 62
0
 10
171.8
 20
-22.5
 30
0.0
 40
3.1
 50
-180.0
 51
-0.0
  0
LINE
  8
0
 62
0
 10
168.7
 20
-22.5
 30
0.0
 11
168.7
 21
-12.5
 31
0.0
  0
ARC
  8
0
 62
0
 10
171.8
 20
-12.5
 30
0.0
 40
3.1
 50
0.0
 51
180.0
  0
LINE
  8
0
 62
0
 10
174.9
 20
-12.5
 30
0.0
 11
174.9
 21
-22.5
 31
0.0
  0
ARC
  8
0
 62
0
 10
171.8
 20
-104.2
 30
0.0
 40
3.1
 50
-180.0
 51
-0.0
  0
LINE
  8
0
 62
0
 10
168.7
 20
-104.2
 30
0.0
 11
168.7
 21
-94.2
 31
0.0
  0
ARC
  8
0
 62
0
 10
171.8
 20
-94.2
 30
0.0
 40
3.1
 50
-0.0
 51
-180.0
  0
LINE
  8
0
 62
0
 10
174.9
 20
-94.2
 30
0.0
 11
174.9
 21
-104.2
 31
0.0
  0
ARC
  8
0
 62
0
 10
96.0
 20
-147.0
 30
0.0
 40
3.1
 50
90.0
 51
-90.0
  0
LINE
  8
0
 62
0
 10
96.0
 20
-143.9
 30
0.0
 11
106.0
 21
-143.9
 31
0.0
  0
ARC
  8
0
 62
0
 10
106.0
 20
-147.0
 30
0.0
 40
3.1
 50
-90.0
 51
90.0
  0
LINE
  8
0
 62
0
 10
106.0
 20
-150.1
 30
0.0
 11
96.0
 21
-150.1
 31
0.0
  0
ARC
  8
0
 62
0
 10
142.0
 20
-147.0
 30
0.0
 40
3.1
 50
90.0
 51
-90.0
  0
LINE
  8
0
 62
0
 10
142.0
 20
-143.9
 30
0.0
 11
152.0
 21
-143.9
 31
0.0
  0
ARC
  8
0
 62
0
 10
152.0
 20
-147.0
 30
0.0
 40
3.1
 50
-90.0
 51
90.0
  0
LINE
  8
0
 62
0
 10
152.0
 20
-150.1
 30
0.0
 11
142.0
 21
-150.1
 31
0.0
  0
ARC
  8
0
 62
0
 10
30.0
 20
187.0
 30
0.0
 40
3.1
 50
-90.0
 51
90.0
  0
ARC
  8
0
 62
0
 10
28.5
 20
183.9
 30
0.0
 40
1.5
 50
-90.0
 51
0.0
  0
LINE
  8
0
 62
0
 10
28.5
 20
182.4
 30
0.0
 11
21.5
 21
182.4
 31
0.0
  0
ARC
  8
0
 62
0
 10
21.5
 20
183.9
 30
0.0
 40
1.5
 50
180.0
 51
-90.0
  0
ARC
  8
0
 62
0
 10
20.0
 20
187.0
 30
0.0
 40
3.1
 50
90.0
 51
-90.0
  0
LINE
  8
0
 62
0
 10
20.0
 20
190.1
 30
0.0
 11
30.0
 21
190.1
 31
0.0
  0
ARC
  8
0
 62
0
 10
171.8
 20
161.7
 30
0.0
 40
3.1
 50
-180.0
 51
-0.0
  0
ARC
  8
0
 62
0
 10
168.7
 20
163.2
 30
0.0
 40
1.5
 50
180.0
 51
-90.0
  0
LINE
  8
0
 62
0
 10
167.2
 20
163.2
 30
0.0
 11
167.2
 21
170.2
 31
0.0
  0
ARC
  8
0
 62
0
 10
168.7
 20
170.2
 30
0.0
 40
1.5
 50
90.0
 51
-180.0
  0
ARC
  8
0
 62
0
 10
171.8
 20
171.7
 30
0.0
 40
3.1
 50
-0.0
 51
-180.0
  0
LINE
  8
0
 62
0
 10
174.9
 20
171.7
 30
0.0
 11
174.9
 21
161.7
 31
0.0
  0
ARC
  8
0
 62
0
 10
171.8
 20
-154.2
 30
0.0
 40
3.1
 50
-180.0
 51
-0.0
  0
ARC
  8
0
 62
0
 10
168.7
 20
-152.7
 30
0.0
 40
1.5
 50
180.0
 51
-90.0
  0
LINE
  8
0
 62
0
 10
167.2
 20
-152.7
 30
0.0
 11
167.2
 21
-145.7
 31
0.0
  0
ARC
  8
0
 62
0
 10
168.7
 20
-145.7
 30
0.0
 40
1.5
 50
90.0
 51
-180.0
  0
ARC
  8
0
 62
0
 10
171.8
 20
-144.2
 30
0.0
 40
3.1
 50
0.0
 51
180.0
  0
LINE
  8
0
 62
0
 10
174.9
 20
-144.2
 30
0.0
 11
174.9
 21
-154.2
 31
0.0
  0
ARC
  8
0
 62
0
 10
30.0
 20
-147.0
 30
0.0
 40
3.1
 50
-90.0
 51
90.0
  0
ARC
  8
0
 62
0
 10
28.5
 20
-150.1
 30
0.0
 40
1.5
 50
-90.0
 51
0.0
  0
LINE
  8
0
 62
0
 10
28.5
 20
-151.6
 30
0.0
 11
21.5
 21
-151.6
 31
0.0
  0
ARC
  8
0
 62
0
 10
21.5
 20
-150.1
 30
0.0
 40
1.5
 50
180.0
 51
-90.0
  0
ARC
  8
0
 62
0
 10
20.0
 20
-147.0
 30
0.0
 40
3.1
 50
90.0
 51
-90.0
  0
LINE
  8
0
 62
0
 10
20.0
 20
-143.9
 30
0.0
 11
30.0
 21
-143.9
 31
0.0
  0
ARC
  8
0
 62
0
 10
152.3
 20
171.0
 30
0.0
 40
8.0
 50
-0.0
 51
-180.0
  0
ARC
  8
0
 62
0
 10
152.3
 20
171.0
 30
0.0
 40
8.0
 50
-180.0
 51
-0.0
  0
LINE
  8
0
 62
0
 10
-30.0
 20
-146.9
 30
0.0
 11
-30.0
 21
-150.1
 31
0.0
  0
LINE
  8
0
 62
0
 10
-20.0
 20
-150.1
 30
0.0
 11
-20.0
 21
-146.9
 31
0.0
  0
ARC
  8
0
 62
0
 10
-20.0
 20
-145.4
 30
0.0
 40
1.5
 50
-90.0
 51
90.0
  0
ARC
  8
0
 62
0
 10
-30.0
 20
-145.4
 30
0.0
 40
1.5
 50
90.0
 51
-90.0
  0
LINE
  8
0
 62
0
 10
-168.7
 20
-144.2
 30
0.0
 11
-171.9
 21
-144.2
 31
0.0
  0
LINE
  8
0
 62
0
 10
-171.9
 20
-154.2
 30
0.0
 11
-168.7
 21
-154.2
 31
0.0
  0
ARC
  8
0
 62
0
 10
-173.4
 20
-154.2
 30
0.0
 40
1.5
 50
-180.0
 51
-0.0
  0
ARC
  8
0
 62
0
 10
-173.4
 20
-144.2
 30
0.0
 40
1.5
 50
-0.0
 51
-180.0
  0
LINE
  8
0
 62
0
 10
-168.7
 20
171.7
 30
0.0
 11
-171.9
 21
171.7
 31
0.0
  0
LINE
  8
0
 62
0
 10
-171.9
 20
161.7
 30
0.0
 11
-168.7
 21
161.7
 31
0.0
  0
ARC
  8
0
 62
0
 10
-173.4
 20
161.7
 30
0.0
 40
1.5
 50
-180.0
 51
-0.0
  0
ARC
  8
0
 62
0
 10
-173.4
 20
171.7
 30
0.0
 40
1.5
 50
-0.0
 51
-180.0
  0
LINE
  8
0
 62
0
 10
-20.0
 20
183.9
 30
0.0
 11
-20.0
 21
187.1
 31
0.0
  0
LINE
  8
0
 62
0
 10
-30.0
 20
187.1
 30
0.0
 11
-30.0
 21
183.9
 31
0.0
  0
ARC
  8
0
 62
0
 10
-30.0
 20
188.6
 30
0.0
 40
1.5
 50
90.0
 51
-90.0
  0
ARC
  8
0
 62
0
 10
-20.0
 20
188.6
 30
0.0
 40
1.5
 50
-90.0
 51
90.0
  0
LINE
  8
0
 62
0
 10
-139.952237328
 20
187.035882143
 30
0.0
 11
-136.656411275
 21
190.963694682
 31
0.0
  0
LINE
  8
0
 62
0
 10
-172.5
 20
183.999576825
 30
0.0
 11
-146.463615094
 21
183.999576825
 31
0.0
  0
LINE
  8
0
 62
0
 10
-178.5
 20
-188.0
 30
0.0
 11
-178.5
 21
177.999576825
 31
0.0
  0
LINE
  8
0
 62
0
 10
-146.463615094
 20
-194.0
 30
0.0
 11
-172.5
 21
-194.0
 31
0.0
  0
LINE
  8
0
 62
0
 10
-136.656411275
 20
-187.035882143
 30
0.0
 11
-139.952237328
 21
-190.963694682
 31
0.0
  0
LINE
  8
0
 62
0
 10
130.145033508
 20
-183.999576825
 30
0.0
 11
-130.145033508
 21
-183.999576825
 31
0.0
  0
LINE
  8
0
 62
0
 10
-130.145033508
 20
194.0
 30
0.0
 11
130.145033508
 21
194.0
 31
0.0
  0
ARC
  8
0
 62
0
 10
-146.463615094
 20
-185.5
 30
0.0
 40
8.5
 50
-90.0
 51
-40.0
  0
ARC
  8
0
 62
0
 10
-130.145033508
 20
-192.499576825
 30
0.0
 40
8.5
 50
90.0
 51
140.0
  0
ARC
  8
0
 62
0
 10
-146.463615094
 20
192.499576825
 30
0.0
 40
8.5
 50
-90.0
 51
-40.0
  0
ARC
  8
0
 62
0
 10
-130.145033508
 20
185.5
 30
0.0
 40
8.5
 50
90.0
 51
140.0
  0
ARC
  8
0
 62
0
 10
-172.5
 20
-188.0
 30
0.0
 40
6.0
 50
180.0
 51
-90.0
  0
ARC
  8
0
 62
0
 10
-172.5
 20
177.999576825
 30
0.0
 40
6.0
 50
90.0
 51
-180.0
  0
ARC
  8
0
 62
0
 10
-106.0
 20
-147.0
 30
0.0
 40
3.1
 50
90.0
 51
-90.0
  0
ARC
  8
0
 62
0
 10
-171.8
 20
-22.5
 30
0.0
 40
3.1
 50
-180.0
 51
-0.0
  0
LINE
  8
0
 62
0
 10
30.0
 20
-146.9
 30
0.0
 11
30.0
 21
-150.1
 31
0.0
  0
LINE
  8
0
 62
0
 10
20.0
 20
-150.1
 30
0.0
 11
20.0
 21
-146.9
 31
0.0
  0
ARC
  8
0
 62
0
 10
20.0
 20
-145.4
 30
0.0
 40
1.5
 50
90.0
 51
-90.0
  0
ARC
  8
0
 62
0
 10
30.0
 20
-145.4
 30
0.0
 40
1.5
 50
-90.0
 51
90.0
  0
LINE
  8
0
 62
0
 10
168.7
 20
-144.2
 30
0.0
 11
171.9
 21
-144.2
 31
0.0
  0
LINE
  8
0
 62
0
 10
171.9
 20
-154.2
 30
0.0
 11
168.7
 21
-154.2
 31
0.0
  0
ARC
  8
0
 62
0
 10
173.4
 20
-154.2
 30
0.0
 40
1.5
 50
-180.0
 51
-0.0
  0
ARC
  8
0
 62
0
 10
173.4
 20
-144.2
 30
0.0
 40
1.5
 50
-0.0
 51
-180.0
  0
LINE
  8
0
 62
0
 10
168.7
 20
171.7
 30
0.0
 11
171.9
 21
171.7
 31
0.0
  0
LINE
  8
0
 62
0
 10
171.9
 20
161.7
 30
0.0
 11
168.7
 21
161.7
 31
0.0
  0
ARC
  8
0
 62
0
 10
173.4
 20
161.7
 30
0.0
 40
1.5
 50
-180.0
 51
-0.0
  0
ARC
  8
0
 62
0
 10
173.4
 20
171.7
 30
0.0
 40
1.5
 50
-0.0
 51
-180.0
  0
LINE
  8
0
 62
0
 10
20.0
 20
183.9
 30
0.0
 11
20.0
 21
187.1
 31
0.0
  0
LINE
  8
0
 62
0
 10
30.0
 20
187.1
 30
0.0
 11
30.0
 21
183.9
 31
0.0
  0
ARC
  8
0
 62
0
 10
30.0
 20
188.6
 30
0.0
 40
1.5
 50
-90.0
 51
90.0
  0
ARC
  8
0
 62
0
 10
20.0
 20
188.6
 30
0.0
 40
1.5
 50
90.0
 51
-90.0
  0
LINE
  8
0
 62
0
 10
136.656411275
 20
190.963694682
 30
0.0
 11
139.952237328
 21
187.035882143
 31
0.0
  0
LINE
  8
0
 62
0
 10
146.463615094
 20
183.999576825
 30
0.0
 11
172.5
 21
183.999576825
 31
0.0
  0
LINE
  8
0
 62
0
 10
178.5
 20
177.999576825
 30
0.0
 11
178.5
 21
-188.0
 31
0.0
  0
LINE
  8
0
 62
0
 10
172.5
 20
-194.0
 30
0.0
 11
146.463615094
 21
-194.0
 31
0.0
  0
LINE
  8
0
 62
0
 10
139.952237328
 20
-190.963694682
 30
0.0
 11
136.656411275
 21
-187.035882143
 31
0.0
  0
ARC
  8
0
 62
0
 10
146.463615094
 20
-185.5
 30
0.0
 40
8.5
 50
-140.0
 51
-90.0
  0
ARC
  8
0
 62
0
 10
130.145033508
 20
-192.499576825
 30
0.0
 40
8.5
 50
40.0
 51
90.0
  0
ARC
  8
0
 62
0
 10
146.463615094
 20
192.499576825
 30
0.0
 40
8.5
 50
-140.0
 51
-90.0
  0
ARC
  8
0
 62
0
 10
130.145033508
 20
185.5
 30
0.0
 40
8.5
 50
40.0
 51
90.0
  0
ARC
  8
0
 62
0
 10
172.5
 20
-188.0
 30
0.0
 40
6.0
 50
-90.0
 51
0.0
  0
ARC
  8
0
 62
0
 10
172.5
 20
177.999576825
 30
0.0
 40
6.0
 50
-0.0
 51
90.0
  0
ARC
  8
0
 62
0
 10
106.0
 20
-147.0
 30
0.0
 40
3.1
 50
-90.0
 51
90.0
  0
CIRCLE
  8
0
 62
0
 10
-131.2
 20
171.0
 30
0.0
 40
5.75
  0
CIRCLE
  8
0
 62
0
 10
152.3
 20
171.0
 30
0.0
 40
5.75
  0
LINE
  8
0
 62
0
 10
130.145033508
 20
194.0
 30
0.0
 11
130.145033508
 21
193.5
 31
0.0
  0
LINE
  8
0
 62
0
 10
-130.145033508
 20
193.5
 30
0.0
 11
-130.145033508
 21
194.0
 31
0.0
  0
LINE
  8
0
 62
0
 10
-136.273389053
 20
190.642300877
 30
0.0
 11
-136.656411275
 21
190.963694682
 31
0.0
  0
LINE
  8
0
 62
0
 10
136.656411275
 20
190.963694682
 30
0.0
 11
136.273389053
 21
190.642300877
 31
0.0
  0
LINE
  8
0
 62
0
 10
-139.569215106
 20
186.714488338
 30
0.0
 11
-139.952237328
 21
187.035882143
 31
0.0
  0
LINE
  8
0
 62
0
 10
139.952237328
 20
187.035882143
 30
0.0
 11
139.569215106
 21
186.714488338
 31
0.0
  0
LINE
  8
0
 62
0
 10
-146.463615094
 20
183.499576825
 30
0.0
 11
-146.463615094
 21
183.999576825
 31
0.0
  0
LINE
  8
0
 62
0
 10
146.463615094
 20
183.999576825
 30
0.0
 11
146.463615094
 21
183.499576825
 31
0.0
  0
LINE
  8
0
 62
0
 10
-172.5
 20
183.499576825
 30
0.0
 11
-172.5
 21
183.999576825
 31
0.0
  0
LINE
  8
0
 62
0
 10
172.5
 20
183.999576825
 30
0.0
 11
172.5
 21
183.499576825
 31
0.0
  0
LINE
  8
0
 62
0
 10
-178.0
 20
177.999576825
 30
0.0
 11
-178.5
 21
177.999576825
 31
0.0
  0
LINE
  8
0
 62
0
 10
178.5
 20
177.999576825
 30
0.0
 11
178.0
 21
177.999576825
 31
0.0
  0
LINE
  8
0
 62
0
 10
-178.0
 20
-188.0
 30
0.0
 11
-178.5
 21
-188.0
 31
0.0
  0
LINE
  8
0
 62
0
 10
178.5
 20
-188.0
 30
0.0
 11
178.0
 21
-188.0
 31
0.0
  0
LINE
  8
0
 62
0
 10
-172.5
 20
-193.5
 30
0.0
 11
-172.5
 21
-194.0
 31
0.0
  0
LINE
  8
0
 62
0
 10
172.5
 20
-194.0
 30
0.0
 11
172.5
 21
-193.5
 31
0.0
  0
LINE
  8
0
 62
0
 10
-146.463615094
 20
-193.5
 30
0.0
 11
-146.463615094
 21
-194.0
 31
0.0
  0
LINE
  8
0
 62
0
 10
146.463615094
 20
-194.0
 30
0.0
 11
146.463615094
 21
-193.5
 31
0.0
  0
LINE
  8
0
 62
0
 10
-140.335259549
 20
-190.642300877
 30
0.0
 11
-139.952237328
 21
-190.963694682
 31
0.0
  0
LINE
  8
0
 62
0
 10
139.952237328
 20
-190.963694682
 30
0.0
 11
140.335259549
 21
-190.642300877
 31
0.0
  0
LINE
  8
0
 62
0
 10
-137.039433496
 20
-186.714488338
 30
0.0
 11
-136.656411275
 21
-187.035882143
 31
0.0
  0
LINE
  8
0
 62
0
 10
136.656411275
 20
-187.035882143
 30
0.0
 11
137.039433496
 21
-186.714488338
 31
0.0
  0
LINE
  8
0
 62
0
 10
-130.145033508
 20
-183.499576825
 30
0.0
 11
-130.145033508
 21
-183.999576825
 31
0.0
  0
LINE
  8
0
 62
0
 10
130.145033508
 20
-183.999576825
 30
0.0
 11
130.145033508
 21
-183.499576825
 31
0.0
  0
ENDBLK
  0
ENDSEC
  0
SECTION
  2
ENTITIES
  0
INSERT
  2
PART__FEATURE
  8
0
 62
0
 10
0.0
 20
0.0
 30
0.0
  0
ENDSEC
  0
EOF
