  0
SECTION
  2
HEADER
  9
$ACADVER
  1
AC1009
  9
$INSBASE
 10
0.0
 20
0.0
 30
0.0
  9
$EXTMIN
 10
0.0
 20
0.0
 30
0.0
  9
$EXTMAX
 10
0.0
 20
0.0
 30
0.0
  0
ENDSEC
  0
SECTION
  2
TABLES
  0
TABLE
  2
VPORT
 70
0
  0
ENDTAB
  0
TABLE
  2
LTYPE
 70
1
  0
LTYPE
  2
CONTINUOUS
 70
0
  3
Solid line
 72
65
 73
0
 40
0.0
  0
ENDTAB
  0
TABLE
  2
LAYER
 70
1
  0
LAYER
  2
0
 70
64
 62
7
  6
continuous
  0
ENDTAB
  0
TABLE
  2
STYLE
 70
1
  0
STYLE
  2
STANDARD
 70
0
 40
0
 41
1.0
 50
0.0
 71
0
 42
1
 3
ARIAL.TTF
 4

  0
ENDTAB
  0
TABLE
  2
VIEW
 70
0
  0
ENDTAB
  0
ENDSEC
  0
SECTION
  2
BLOCKS
  0
BLOCK
  8
0
  2
PART__FEATURE001
 70
0
 10
0.0
 20
0.0
 30
0.0
  3
PART__FEATURE001
  0
ARC
  8
0
 62
0
 10
-123.5
 20
-109.5
 30
0.0
 40
3.2
 50
90.0
 51
-90.0
  0
ARC
  8
0
 62
0
 10
-123.5
 20
-109.5
 30
0.0
 40
1.7
 50
90.0
 51
-90.0
  0
ARC
  8
0
 62
0
 10
98.5
 20
109.5
 30
0.0
 40
3.2
 50
90.0
 51
-90.0
  0
ARC
  8
0
 62
0
 10
98.5
 20
109.5
 30
0.0
 40
1.7
 50
90.0
 51
-90.0
  0
ARC
  8
0
 62
0
 10
123.5
 20
-109.5
 30
0.0
 40
3.2
 50
90.0
 51
-90.0
  0
ARC
  8
0
 62
0
 10
123.5
 20
-109.5
 30
0.0
 40
1.7
 50
90.0
 51
-90.0
  0
ARC
  8
0
 62
0
 10
7.21644966006e-15
 20
109.5
 30
0.0
 40
3.2
 50
90.0
 51
-90.0
  0
ARC
  8
0
 62
0
 10
-4.05231403988e-15
 20
109.5
 30
0.0
 40
1.7
 50
90.0
 51
-90.0
  0
ARC
  8
0
 62
0
 10
-123.5
 20
109.5
 30
0.0
 40
3.2
 50
90.0
 51
-90.0
  0
ARC
  8
0
 62
0
 10
-123.5
 20
109.5
 30
0.0
 40
1.7
 50
90.0
 51
-90.0
  0
ARC
  8
0
 62
0
 10
-98.5
 20
109.5
 30
0.0
 40
3.2
 50
90.0
 51
-90.0
  0
ARC
  8
0
 62
0
 10
-98.5
 20
109.5
 30
0.0
 40
1.7
 50
90.0
 51
-90.0
  0
ARC
  8
0
 62
0
 10
123.5
 20
109.5
 30
0.0
 40
3.2
 50
90.0
 51
-90.0
  0
ARC
  8
0
 62
0
 10
123.5
 20
109.5
 30
0.0
 40
1.7
 50
90.0
 51
-90.0
  0
ARC
  8
0
 62
0
 10
123.5
 20
109.5
 30
0.0
 40
1.7
 50
-90.0
 51
90.0
  0
ARC
  8
0
 62
0
 10
123.5
 20
109.5
 30
0.0
 40
3.2
 50
-90.0
 51
90.0
  0
ARC
  8
0
 62
0
 10
-98.5
 20
109.5
 30
0.0
 40
1.7
 50
-90.0
 51
90.0
  0
ARC
  8
0
 62
0
 10
-98.5
 20
109.5
 30
0.0
 40
3.2
 50
-90.0
 51
90.0
  0
ARC
  8
0
 62
0
 10
-123.5
 20
109.5
 30
0.0
 40
1.7
 50
-90.0
 51
90.0
  0
ARC
  8
0
 62
0
 10
-123.5
 20
109.5
 30
0.0
 40
3.2
 50
-90.0
 51
90.0
  0
ARC
  8
0
 62
0
 10
4.05231403988e-15
 20
109.5
 30
0.0
 40
1.7
 50
-90.0
 51
90.0
  0
ARC
  8
0
 62
0
 10
-7.43849426499e-15
 20
109.5
 30
0.0
 40
3.2
 50
-90.0
 51
90.0
  0
LINE
  8
0
 62
0
 10
123.5
 20
114.5
 30
0.0
 11
-51.3320431857
 21
114.5
 31
0.0
  0
ARC
  8
0
 62
0
 10
123.5
 20
-109.5
 30
0.0
 40
3.2
 50
-90.0
 51
90.0
  0
ARC
  8
0
 62
0
 10
98.5
 20
109.5
 30
0.0
 40
3.2
 50
-90.0
 51
90.0
  0
ARC
  8
0
 62
0
 10
-123.5
 20
-109.5
 30
0.0
 40
3.2
 50
-90.0
 51
90.0
  0
LINE
  8
0
 62
0
 10
-113.5
 20
109.75
 30
0.0
 11
-113.5
 21
109.25
 31
0.0
  0
ARC
  8
0
 62
0
 10
-112.5
 20
109.75
 30
0.0
 40
1.0
 50
90.0
 51
-180.0
  0
LINE
  8
0
 62
0
 10
-109.5
 20
110.75
 30
0.0
 11
-112.5
 21
110.75
 31
0.0
  0
ARC
  8
0
 62
0
 10
-109.5
 20
109.75
 30
0.0
 40
1.0
 50
-0.0
 51
90.0
  0
LINE
  8
0
 62
0
 10
-108.5
 20
109.25
 30
0.0
 11
-108.5
 21
109.75
 31
0.0
  0
ARC
  8
0
 62
0
 10
-109.5
 20
109.25
 30
0.0
 40
1.0
 50
-90.0
 51
0.0
  0
LINE
  8
0
 62
0
 10
-112.5
 20
108.25
 30
0.0
 11
-109.5
 21
108.25
 31
0.0
  0
ARC
  8
0
 62
0
 10
-112.5
 20
109.25
 30
0.0
 40
1.0
 50
180.0
 51
-90.0
  0
LINE
  8
0
 62
0
 10
108.5
 20
109.75
 30
0.0
 11
108.5
 21
109.25
 31
0.0
  0
ARC
  8
0
 62
0
 10
109.5
 20
109.75
 30
0.0
 40
1.0
 50
90.0
 51
-180.0
  0
LINE
  8
0
 62
0
 10
112.5
 20
110.75
 30
0.0
 11
109.5
 21
110.75
 31
0.0
  0
ARC
  8
0
 62
0
 10
112.5
 20
109.75
 30
0.0
 40
1.0
 50
-0.0
 51
90.0
  0
LINE
  8
0
 62
0
 10
113.5
 20
109.25
 30
0.0
 11
113.5
 21
109.75
 31
0.0
  0
ARC
  8
0
 62
0
 10
112.5
 20
109.25
 30
0.0
 40
1.0
 50
-90.0
 51
0.0
  0
LINE
  8
0
 62
0
 10
109.5
 20
108.25
 30
0.0
 11
112.5
 21
108.25
 31
0.0
  0
ARC
  8
0
 62
0
 10
109.5
 20
109.25
 30
0.0
 40
1.0
 50
180.0
 51
-90.0
  0
LINE
  8
0
 62
0
 10
108.5
 20
-109.25
 30
0.0
 11
108.5
 21
-109.75
 31
0.0
  0
ARC
  8
0
 62
0
 10
109.5
 20
-109.25
 30
0.0
 40
1.0
 50
90.0
 51
-180.0
  0
LINE
  8
0
 62
0
 10
112.5
 20
-108.25
 30
0.0
 11
109.5
 21
-108.25
 31
0.0
  0
ARC
  8
0
 62
0
 10
112.5
 20
-109.25
 30
0.0
 40
1.0
 50
-0.0
 51
90.0
  0
LINE
  8
0
 62
0
 10
113.5
 20
-109.75
 30
0.0
 11
113.5
 21
-109.25
 31
0.0
  0
ARC
  8
0
 62
0
 10
112.5
 20
-109.75
 30
0.0
 40
1.0
 50
-90.0
 51
0.0
  0
LINE
  8
0
 62
0
 10
109.5
 20
-110.75
 30
0.0
 11
112.5
 21
-110.75
 31
0.0
  0
ARC
  8
0
 62
0
 10
109.5
 20
-109.75
 30
0.0
 40
1.0
 50
180.0
 51
-90.0
  0
LINE
  8
0
 62
0
 10
-113.5
 20
-109.25
 30
0.0
 11
-113.5
 21
-109.75
 31
0.0
  0
ARC
  8
0
 62
0
 10
-112.5
 20
-109.25
 30
0.0
 40
1.0
 50
90.0
 51
-180.0
  0
LINE
  8
0
 62
0
 10
-109.5
 20
-108.25
 30
0.0
 11
-112.5
 21
-108.25
 31
0.0
  0
ARC
  8
0
 62
0
 10
-109.5
 20
-109.25
 30
0.0
 40
1.0
 50
-0.0
 51
90.0
  0
LINE
  8
0
 62
0
 10
-108.5
 20
-109.75
 30
0.0
 11
-108.5
 21
-109.25
 31
0.0
  0
ARC
  8
0
 62
0
 10
-109.5
 20
-109.75
 30
0.0
 40
1.0
 50
-90.0
 51
0.0
  0
LINE
  8
0
 62
0
 10
-112.5
 20
-110.75
 30
0.0
 11
-109.5
 21
-110.75
 31
0.0
  0
ARC
  8
0
 62
0
 10
-112.5
 20
-109.75
 30
0.0
 40
1.0
 50
180.0
 51
-90.0
  0
LINE
  8
0
 62
0
 10
-88.0981112543
 20
125.0
 30
0.0
 11
-61.3320431857
 21
125.0
 31
0.0
  0
ARC
  8
0
 62
0
 10
-88.0981112543
 20
120.0
 30
0.0
 40
5.0
 50
90.0
 51
-180.0
  0
LINE
  8
0
 62
0
 10
-93.0981112543
 20
119.5
 30
0.0
 11
-93.0981112543
 21
120.0
 31
0.0
  0
ARC
  8
0
 62
0
 10
-98.0981112543
 20
119.5
 30
0.0
 40
5.0
 50
-90.0
 51
-0.0
  0
LINE
  8
0
 62
0
 10
-98.0981112543
 20
114.5
 30
0.0
 11
-123.5
 21
114.5
 31
0.0
  0
ARC
  8
0
 62
0
 10
-123.5
 20
109.5
 30
0.0
 40
5.0
 50
90.0
 51
-180.0
  0
LINE
  8
0
 62
0
 10
-128.5
 20
109.5
 30
0.0
 11
-128.5
 21
-109.5
 31
0.0
  0
ARC
  8
0
 62
0
 10
-123.5
 20
-109.5
 30
0.0
 40
5.0
 50
-180.0
 51
-90.0
  0
LINE
  8
0
 62
0
 10
-123.5
 20
-114.5
 30
0.0
 11
123.5
 21
-114.5
 31
0.0
  0
ARC
  8
0
 62
0
 10
123.5
 20
-109.5
 30
0.0
 40
5.0
 50
-90.0
 51
-0.0
  0
LINE
  8
0
 62
0
 10
128.5
 20
-109.5
 30
0.0
 11
128.5
 21
109.5
 31
0.0
  0
ARC
  8
0
 62
0
 10
123.5
 20
109.5
 30
0.0
 40
5.0
 50
-0.0
 51
90.0
  0
ARC
  8
0
 62
0
 10
-51.3320431857
 20
119.5
 30
0.0
 40
5.0
 50
-180.0
 51
-90.0
  0
LINE
  8
0
 62
0
 10
-56.3320431857
 20
120.0
 30
0.0
 11
-56.3320431857
 21
119.5
 31
0.0
  0
ARC
  8
0
 62
0
 10
-61.3320431857
 20
120.0
 30
0.0
 40
5.0
 50
-0.0
 51
90.0
  0
ARC
  8
0
 62
0
 10
123.5
 20
-109.5
 30
0.0
 40
1.7
 50
-90.0
 51
90.0
  0
ARC
  8
0
 62
0
 10
98.5
 20
109.5
 30
0.0
 40
1.7
 50
-90.0
 51
90.0
  0
ARC
  8
0
 62
0
 10
-123.5
 20
-109.5
 30
0.0
 40
1.7
 50
-90.0
 51
90.0
  0
LINE
  8
0
 62
0
 10
-123.5
 20
-106.3
 30
0.0
 11
-123.5
 21
-107.8
 31
0.0
  0
LINE
  8
0
 62
0
 10
-123.5
 20
-111.2
 30
0.0
 11
-123.5
 21
-112.7
 31
0.0
  0
LINE
  8
0
 62
0
 10
98.5
 20
112.7
 30
0.0
 11
98.5
 21
111.2
 31
0.0
  0
LINE
  8
0
 62
0
 10
98.5
 20
107.8
 30
0.0
 11
98.5
 21
106.3
 31
0.0
  0
LINE
  8
0
 62
0
 10
123.5
 20
-106.3
 30
0.0
 11
123.5
 21
-107.8
 31
0.0
  0
LINE
  8
0
 62
0
 10
123.5
 20
-111.2
 30
0.0
 11
123.5
 21
-112.7
 31
0.0
  0
LINE
  8
0
 62
0
 10
-3.91886975727e-16
 20
112.7
 30
0.0
 11
-2.08189955855e-16
 21
111.2
 31
0.0
  0
LINE
  8
0
 62
0
 10
2.08189955855e-16
 20
107.8
 30
0.0
 11
3.91886975727e-16
 21
106.3
 31
0.0
  0
LINE
  8
0
 62
0
 10
-123.5
 20
112.7
 30
0.0
 11
-123.5
 21
111.2
 31
0.0
  0
LINE
  8
0
 62
0
 10
-123.5
 20
107.8
 30
0.0
 11
-123.5
 21
106.3
 31
0.0
  0
LINE
  8
0
 62
0
 10
-98.5
 20
112.7
 30
0.0
 11
-98.5
 21
111.2
 31
0.0
  0
LINE
  8
0
 62
0
 10
-98.5
 20
107.8
 30
0.0
 11
-98.5
 21
106.3
 31
0.0
  0
LINE
  8
0
 62
0
 10
123.5
 20
112.7
 30
0.0
 11
123.5
 21
111.2
 31
0.0
  0
LINE
  8
0
 62
0
 10
123.5
 20
107.8
 30
0.0
 11
123.5
 21
106.3
 31
0.0
  0
ENDBLK
  0
ENDSEC
  0
SECTION
  2
ENTITIES
  0
INSERT
  2
PART__FEATURE001
  8
0
 62
0
 10
0.0
 20
0.0
 30
0.0
  0
ENDSEC
  0
EOF
